<svg width="238" height="70" viewBox="0 0 238 70" fill="none" xmlns="http://www.w3.org/2000/svg">
<path d="M7.09356 53.2715H1.09917L12.0132 22.2702H18.9461L29.8753 53.2715H23.8809L15.6008 28.6279H15.3586L7.09356 53.2715ZM7.29034 41.1162H23.6387V45.6271H7.29034V41.1162ZM33.9586 53.2715V22.2702H45.8263C48.0666 22.2702 49.9285 22.6234 51.412 23.3298C52.9055 24.0261 54.0206 24.9798 54.7573 26.1908C55.5041 27.4017 55.8775 28.7742 55.8775 30.3081C55.8775 31.5696 55.6353 32.6494 55.1509 33.5475C54.6665 34.4356 54.0156 35.1571 53.1982 35.7122C52.3807 36.2672 51.4675 36.6658 50.4583 36.908V37.2107C51.5583 37.2713 52.6128 37.6094 53.622 38.225C54.6413 38.8304 55.4738 39.6882 56.1197 40.7983C56.7655 41.9084 57.0885 43.2506 57.0885 44.8248C57.0885 46.4294 56.6999 47.8725 55.9229 49.1541C55.1458 50.4257 53.9752 51.4298 52.411 52.1665C50.8468 52.9031 48.879 53.2715 46.5074 53.2715H33.9586ZM39.5745 48.5789H45.6143C47.6528 48.5789 49.1212 48.1904 50.0193 47.4133C50.9276 46.6262 51.3817 45.617 51.3817 44.3859C51.3817 43.4675 51.1546 42.64 50.7005 41.9033C50.2464 41.1566 49.6005 40.5712 48.7629 40.1474C47.9253 39.7135 46.9262 39.4965 45.7657 39.4965H39.5745V48.5789ZM39.5745 35.4548H45.1299C46.0987 35.4548 46.9717 35.2782 47.7487 34.925C48.5258 34.5617 49.1363 34.0521 49.5803 33.3961C50.0345 32.7301 50.2615 31.943 50.2615 31.0347C50.2615 29.8338 49.8377 28.8448 48.99 28.0678C48.1524 27.2907 46.9061 26.9022 45.251 26.9022H39.5745V35.4548ZM89.6754 37.7708C89.6754 41.1111 89.0497 43.9721 87.7984 46.3537C86.5571 48.7252 84.8617 50.5417 82.7122 51.8032C80.5728 53.0646 78.1458 53.6953 75.4311 53.6953C72.7165 53.6953 70.2844 53.0646 68.1349 51.8032C65.9955 50.5316 64.3001 48.7101 63.0488 46.3386C61.8075 43.957 61.1869 41.1011 61.1869 37.7708C61.1869 34.4305 61.8075 31.5746 63.0488 29.2031C64.3001 26.8215 65.9955 24.9999 68.1349 23.7385C70.2844 22.4771 72.7165 21.8463 75.4311 21.8463C78.1458 21.8463 80.5728 22.4771 82.7122 23.7385C84.8617 24.9999 86.5571 26.8215 87.7984 29.2031C89.0497 31.5746 89.6754 34.4305 89.6754 37.7708ZM84.0292 37.7708C84.0292 35.4195 83.6608 33.4365 82.9241 31.8219C82.1975 30.1971 81.1884 28.971 79.8967 28.1435C78.6049 27.3059 77.1164 26.8871 75.4311 26.8871C73.7459 26.8871 72.2574 27.3059 70.9656 28.1435C69.6739 28.971 68.6597 30.1971 67.923 31.8219C67.1964 33.4365 66.8331 35.4195 66.8331 37.7708C66.8331 40.1222 67.1964 42.1102 67.923 43.735C68.6597 45.3496 69.6739 46.5757 70.9656 47.4133C72.2574 48.2408 73.7459 48.6546 75.4311 48.6546C77.1164 48.6546 78.6049 48.2408 79.8967 47.4133C81.1884 46.5757 82.1975 45.3496 82.9241 43.735C83.6608 42.1102 84.0292 40.1222 84.0292 37.7708ZM114.527 22.2702H120.143V42.524C120.143 44.7441 119.618 46.6968 118.569 48.3821C117.529 50.0674 116.066 51.3844 114.179 52.333C112.292 53.2715 110.087 53.7407 107.564 53.7407C105.031 53.7407 102.821 53.2715 100.934 52.333C99.0467 51.3844 97.5834 50.0674 96.544 48.3821C95.5045 46.6968 94.9848 44.7441 94.9848 42.524V22.2702H100.601V42.0547C100.601 43.3464 100.883 44.4969 101.448 45.506C102.024 46.5152 102.831 47.3074 103.87 47.8826C104.91 48.4477 106.141 48.7303 107.564 48.7303C108.987 48.7303 110.218 48.4477 111.257 47.8826C112.307 47.3074 113.114 46.5152 113.679 45.506C114.245 44.4969 114.527 43.3464 114.527 42.0547V22.2702ZM124.885 26.9779V22.2702H149.619V26.9779H140.037V53.2715H134.467V26.9779H124.885ZM184.503 22.2702H190.119V42.524C190.119 44.7441 189.595 46.6968 188.545 48.3821C187.506 50.0674 186.042 51.3844 184.155 52.333C182.268 53.2715 180.063 53.7407 177.54 53.7407C175.007 53.7407 172.797 53.2715 170.91 52.333C169.023 51.3844 167.56 50.0674 166.52 48.3821C165.481 46.6968 164.961 44.7441 164.961 42.524V22.2702H170.577V42.0547C170.577 43.3464 170.86 44.4969 171.425 45.506C172 46.5152 172.807 47.3074 173.847 47.8826C174.886 48.4477 176.117 48.7303 177.54 48.7303C178.963 48.7303 180.194 48.4477 181.234 47.8826C182.283 47.3074 183.091 46.5152 183.656 45.506C184.221 44.4969 184.503 43.3464 184.503 42.0547V22.2702ZM213.071 30.7925C212.93 29.4705 212.335 28.4412 211.285 27.7045C210.246 26.9678 208.893 26.5995 207.228 26.5995C206.058 26.5995 205.054 26.7761 204.216 27.1293C203.378 27.4825 202.738 27.9618 202.294 28.5673C201.85 29.1728 201.622 29.8641 201.612 30.6411C201.612 31.287 201.759 31.8471 202.051 32.3214C202.354 32.7957 202.763 33.1994 203.277 33.5324C203.792 33.8553 204.362 34.1278 204.988 34.3498C205.614 34.5718 206.244 34.7585 206.88 34.9099L209.787 35.6365C210.957 35.9089 212.082 36.2773 213.162 36.7415C214.252 37.2057 215.226 37.791 216.084 38.4974C216.952 39.2038 217.638 40.0566 218.142 41.0556C218.647 42.0547 218.899 43.2253 218.899 44.5675C218.899 46.384 218.435 47.9835 217.507 49.366C216.578 50.7385 215.236 51.8133 213.48 52.5903C211.734 53.3573 209.62 53.7407 207.137 53.7407C204.726 53.7407 202.632 53.3674 200.855 52.6206C199.089 51.8738 197.707 50.7839 196.708 49.3509C195.719 47.9179 195.184 46.1721 195.103 44.1134H200.628C200.709 45.1932 201.042 46.0913 201.627 46.8078C202.213 47.5243 202.975 48.0592 203.913 48.4124C204.862 48.7656 205.921 48.9422 207.092 48.9422C208.313 48.9422 209.383 48.7606 210.301 48.3973C211.23 48.0239 211.956 47.5092 212.481 46.8532C213.006 46.1872 213.273 45.4102 213.283 44.5221C213.273 43.7148 213.036 43.0487 212.572 42.524C212.108 41.9891 211.457 41.5451 210.619 41.1919C209.792 40.8286 208.823 40.5056 207.713 40.2231L204.186 39.3148C201.633 38.6589 199.614 37.6649 198.131 36.3328C196.657 34.9906 195.921 33.2094 195.921 30.9893C195.921 29.1627 196.415 27.5632 197.404 26.1908C198.403 24.8183 199.761 23.7536 201.476 22.9968C203.192 22.2298 205.134 21.8463 207.304 21.8463C209.504 21.8463 211.431 22.2298 213.086 22.9968C214.752 23.7536 216.058 24.8082 217.007 26.1605C217.956 27.5027 218.445 29.0467 218.475 30.7925H213.071Z" fill="#505050"/>
<g clip-path="url(#clip0_78_4327)">
<path d="M10.7097 0C6.69278 0 3.46484 3.14903 3.46484 7.07434C3.46484 12.0325 10.7097 18.7558 10.7097 18.7558C10.7097 18.7558 17.958 12.0325 17.958 7.07434C17.958 3.14903 14.706 0 10.7097 0ZM10.7097 10.1896C8.94993 10.1896 7.5435 8.83956 7.5435 7.07434C7.5435 5.30913 8.94993 3.98607 10.7097 3.98607C12.4694 3.98607 13.8519 5.36651 13.8519 7.07434C13.8519 8.78218 12.4454 10.1896 10.7097 10.1896Z" fill="#7BADEF"/>
</g>
<defs>
<clipPath id="clip0_78_4327">
<rect width="14.4931" height="18.7558" fill="white" transform="translate(3.46484)"/>
</clipPath>
</defs>
</svg>
