<svg width="265" height="125" viewBox="0 0 265 125" fill="none" xmlns="http://www.w3.org/2000/svg">
<path d="M11.9225 57.2135L19.592 54.3479L20.4956 56.7664L12.8261 59.632L11.9225 57.2135ZM14.4469 63.3717L21.6806 60.6689L22.5761 63.0657L15.3424 65.7684L14.4469 63.3717ZM16.5528 71.2009C18.4871 69.9319 21.329 67.9017 24.0264 65.9503L25.2298 68.1079C22.7938 69.9616 20.1481 71.9185 18.1345 73.4406L16.5528 71.2009ZM24.7815 58.2688L25.2862 59.6197L31.0166 57.4787L30.5118 56.1278L24.7815 58.2688ZM26.0352 61.6242L26.5318 62.9533L32.2621 60.8123L31.7655 59.4832L26.0352 61.6242ZM23.5441 54.957L24.0407 56.2861L29.771 54.145L29.2744 52.816L23.5441 54.957ZM20.3278 53.7254L31.0258 49.7282L35.6173 62.0168L24.9192 66.014L20.3278 53.7254ZM30.0517 63.0038L32.5574 62.0676L34.5112 67.2968C34.7554 67.9505 34.8452 67.9914 35.1938 67.8612C35.3463 67.8042 35.9128 67.5925 36.1089 67.5192C36.4793 67.3809 36.4362 66.9997 35.6657 64.8046C36.3134 65.0095 37.5139 65.0327 38.2245 64.941C39.1219 68.0074 38.8212 69.0633 37.2307 69.6576C36.8385 69.8042 35.9452 70.1379 35.5748 70.2763C33.5485 71.0334 32.8359 70.4554 32.0137 68.2548L30.0517 63.0038ZM26.4313 65.0766L28.9805 64.1241C30.0458 67.9721 30.0939 70.9585 25.8023 74.2256C25.2966 73.6697 24.2685 72.9116 23.5584 72.6059C27.3074 70.0133 27.1819 67.9496 26.4313 65.0766ZM14.9171 57.1872L17.4445 56.2428L22.2314 69.0544L19.8423 70.3691L14.9171 57.1872Z" fill="#7BADEF"/>
<path d="M35.2071 48.8936L54.1454 40.42L55.2379 42.8616L36.2996 51.3352L35.2071 48.8936ZM45.2064 52.6757L56.3315 47.6979L57.386 50.0546L46.2608 55.0324L45.2064 52.6757ZM47.6082 60.2648L60.3682 54.5556L61.4226 56.9123L48.6626 62.6215L47.6082 60.2648ZM47.9606 47.2134L50.5296 46.064L55.8968 58.0596L53.3279 59.2091L47.9606 47.2134ZM40.5651 42.9289L43.5039 42.3784C44.2222 48.1981 43.8555 54.5542 40.6989 59.6869C40.1212 59.079 39.0232 58.2197 38.3656 57.775C41.0875 53.5503 41.3799 47.7116 40.5651 42.9289ZM40.2991 53.7247L42.8681 52.5753L47.7983 63.5943L45.2294 64.7437L40.2991 53.7247Z" fill="#7BADEF"/>
<path d="M72.8229 33.9385L75.424 33.5611L77.7816 49.8122L75.1805 50.1896L72.8229 33.9385ZM67.3519 44.1804L78.5408 37.3865L79.8943 39.5875L68.7417 46.4701L67.3519 44.1804ZM68.6122 36.8291L71.2363 36.4484L73.4002 51.3645C73.5973 52.7226 73.8312 52.8767 75.2583 52.6696C75.9489 52.5694 79.0103 52.1253 79.7239 52.0218C80.9899 51.8381 81.1466 51.2983 80.9868 48.9007C81.6454 49.2282 82.7907 49.5086 83.5474 49.5398C83.6763 52.8586 83.0046 54.0607 80.3114 54.4514C79.5518 54.5616 76.099 55.0625 75.3854 55.166C72.2319 55.6235 71.237 54.9217 70.7728 51.7222L68.6122 36.8291ZM78.0548 37.7626L77.8937 37.7859L78.327 37.3705L78.7603 36.9551L80.794 37.3652L80.7457 37.8422C81.3835 42.2388 81.7416 45.0307 81.7864 45.9878C81.8479 47.06 81.5368 47.6693 80.8666 48.072C80.2458 48.4911 79.256 48.6347 78.5194 48.7416C78.3272 48.0644 77.9697 47.0586 77.587 46.5265C77.9817 46.4928 78.5111 46.416 78.7183 46.3859C78.9945 46.3459 79.1226 46.2568 79.1315 45.8324C79.1568 45.3587 78.7928 42.8497 78.0548 37.7626ZM60.1778 41.2257L67.774 40.1237L68.1513 42.7248L60.5552 43.8268L60.1778 41.2257ZM62.12 35.8202L64.6981 35.4462L66.9121 50.7075L64.334 51.0816L62.12 35.8202ZM61.345 51.5387C63.1553 50.571 65.9674 48.8938 68.602 47.2895L69.5775 49.6393C67.3179 51.2363 64.851 52.8633 62.8506 54.1406L61.345 51.5387Z" fill="#7BADEF"/>
<path d="M88.7751 33.1306L103.374 32.1751L103.543 34.7514L88.9437 35.7069L88.7751 33.1306ZM91.3877 37.435L101.159 36.7955L101.299 38.9308L91.5274 39.5703L91.3877 37.435ZM91.1342 41.0412L101.857 40.3394L102.001 42.5444L91.2785 43.2462L91.1342 41.0412ZM87.0807 33.2415L89.8427 33.0607L90.3713 41.1378C90.6219 44.9674 90.6106 50.4924 88.2793 54.0482C87.8033 53.5432 86.5604 52.7155 85.911 52.4084C87.9401 49.222 87.8326 44.7304 87.6093 41.3185L87.0807 33.2415ZM102.283 32.2465L105.092 32.0627L106.243 49.6558C106.339 51.1181 106.083 51.8341 105.206 52.3343C104.328 52.8114 103.008 52.9444 100.989 53.0765C100.849 52.3631 100.377 51.2052 99.9618 50.5564C101.15 50.5486 102.541 50.4342 102.934 50.3852C103.329 50.3594 103.459 50.211 103.435 49.8396L102.283 32.2465ZM94.7689 35.6753L97.3916 35.5036L97.8033 41.7935L95.1806 41.9652L94.7689 35.6753ZM93.6165 44.4218L101.206 43.9251L101.621 50.2614L94.0311 50.7581L93.8944 48.6692L98.9078 48.3411L98.768 46.2058L93.7547 46.5339L93.6165 44.4218ZM92.2006 44.5144L94.7305 44.3489L95.2288 51.9617L92.6989 52.1273L92.2006 44.5144Z" fill="#7BADEF"/>
<path d="M117.762 32.4232L129.546 32.8756L129.445 35.502L117.661 35.0496L117.762 32.4232ZM128.5 32.8354L131.266 32.9416C131.266 32.9416 131.231 33.8481 131.195 34.1726C130.66 43.2532 130.327 46.4759 129.544 47.47C128.955 48.2621 128.364 48.4954 127.546 48.5804C126.797 48.6913 125.59 48.6217 124.428 48.5538C124.411 47.785 124.105 46.6793 123.715 45.9194C124.804 46.0544 125.757 46.0909 126.268 46.1106C126.64 46.1248 126.875 46.064 127.119 45.7708C127.679 45.1173 127.987 41.9402 128.479 33.3933L128.5 32.8354ZM121.91 33.5135L124.745 33.6224C124.3 39.7736 123.567 45.5181 118.56 48.6311C118.214 47.9428 117.459 46.9828 116.827 46.4697C121.211 43.8448 121.541 38.8763 121.91 33.5135ZM116.45 39.9145L116.122 48.4677L113.402 48.3633L113.632 42.39L110.912 42.2856L111.011 39.7057L116.45 39.9145ZM116.168 47.2591C117.039 48.8288 118.78 49.5706 121.193 49.7564C123.908 49.977 129.187 50.1098 132.334 49.9746C132.007 50.6138 131.491 51.944 131.342 52.7763C128.525 52.8078 123.828 52.674 121.043 52.4507C118.189 52.2248 116.286 51.4767 114.844 49.6058C113.787 50.473 112.707 51.316 111.413 52.2905L110.153 49.3326C111.224 48.7219 112.51 47.9566 113.612 47.1609L116.168 47.2591ZM111.321 32.851L113.454 31.2569C114.811 32.2866 116.452 33.816 117.223 34.9397L114.921 36.6902C114.266 35.571 112.652 33.9495 111.321 32.851Z" fill="#7BADEF"/>
<path d="M146.055 36.817C148.807 37.6934 153.411 38.3704 155.915 38.4959L155.404 41.4526C152.56 41.2448 148.389 40.5245 145.571 39.7547L146.055 36.817ZM146.199 46.9206C145.881 47.6682 145.694 48.2025 145.591 48.7984C145.413 49.8298 146.2 50.603 148.538 51.0067C150.578 51.359 152.306 51.4685 154.375 51.3773L153.909 54.4834C152.368 54.5241 150.484 54.364 147.894 53.9168C143.952 53.236 142.295 51.4864 142.698 49.1486C142.857 48.2318 143.148 47.3616 143.625 46.2402L146.199 46.9206ZM142.791 34.6718C142.547 35.1254 142.047 36.2429 141.884 36.6396C141.302 38.097 139.708 42.5425 139.313 44.8345C139.233 45.2929 139.157 45.8699 139.147 46.3402C139.625 45.6203 140.127 44.9043 140.605 44.1844L141.832 45.5529C140.835 47.3634 139.651 49.7082 139.212 50.8834C139.084 51.2153 138.928 51.7077 138.889 51.9369C138.868 52.193 138.801 52.5826 138.768 52.9075L136.105 52.6127C135.915 50.975 135.963 48.1035 136.501 44.9864C137.099 41.5254 138.451 37.7935 139.012 36.0493C139.211 35.4462 139.476 34.5951 139.625 33.8656L142.791 34.6718Z" fill="#7BADEF"/>
<path d="M172.312 44.7547L179.992 47.0815L179.331 49.263L171.651 46.9363L172.312 44.7547ZM164.578 56.4834C166.692 56.8078 169.977 57.1955 173.122 57.565L172.62 59.9407C169.856 59.7594 166.936 59.5309 164.68 59.3577L164.578 56.4834ZM172.033 40.2225L174.637 41.0116L169.309 58.5972L166.705 57.8081L172.033 40.2225ZM173.546 40.6811L182.428 43.3721L179.279 53.7677L170.397 51.0767L171.091 48.7839L177.347 50.679L179.107 44.8691L172.852 42.9739L173.546 40.6811ZM175.508 50.9725C175.109 55.1777 175.824 58.9915 178.658 61.4298C177.924 61.7665 176.828 62.5766 176.241 63.1521C173.23 60.1741 172.64 55.8638 173.174 50.6543L175.508 50.9725ZM178.207 53.6132L179.855 55.7164C178.28 56.503 176.477 57.3179 175.122 57.7821L173.843 55.9852C175.175 55.4407 177.047 54.4767 178.207 53.6132ZM163.943 37.723L169.508 39.4091L168.787 41.791L165.715 40.8603L160.387 58.4459L157.894 57.6905L163.943 37.723ZM168.774 39.1866L169.241 39.3282L169.647 39.3538L171.133 40.9463C169.945 42.7009 168.395 44.929 167.179 46.4562C168.122 48.6376 167.946 50.2613 167.555 51.5524C167.103 53.0438 166.486 53.8776 165.596 54.167C165.159 54.3262 164.667 54.3471 164.134 54.2588C163.691 54.1974 163.112 54.0221 162.585 53.838C162.765 53.1634 162.882 52.0565 162.706 51.274C163.115 51.4467 163.427 51.5411 163.716 51.6288C163.968 51.6807 164.204 51.7036 164.445 51.6308C164.795 51.5181 165.041 51.1066 165.23 50.4833C165.547 49.4371 165.631 47.9558 164.776 46.0442C166.029 44.2363 167.743 41.3047 168.531 39.9879L168.774 39.1866Z" fill="#7BADEF"/>
<path d="M186.773 54.3339C187.463 54.4925 188.558 54.6423 189.292 54.6933C190.953 54.8751 195.101 55.1266 197.703 56.1996C201.122 57.6096 202.568 60.5708 201.22 63.8392C199.624 67.7097 195.084 68.9573 188.099 66.5548L188.05 63.4399C193.006 65.3327 197.181 65.5197 198.387 62.5953C199.043 61.0041 198.309 59.3679 196.417 58.5875C193.922 57.5589 188.907 57.5789 186.739 57.5904L186.773 54.3339Z" fill="#7BADEF"/>
<path d="M220.304 59.6523C219.866 60.1615 219.21 61.0034 218.877 61.4088C217.877 62.6769 216.086 64.9531 214.461 66.7927C212.254 69.3286 208.734 72.8723 206.35 74.7735L203.95 72.3475C206.229 70.8622 209.988 67.3084 212.237 64.7933C213.737 63.0993 215.362 61.0517 216.122 59.8978C216.612 59.1805 217.06 58.3384 217.247 57.8081L220.304 59.6523ZM213.438 60.1136C215.975 61.3851 219.105 62.4596 222.131 63.1699L220.828 65.7691C217.948 65.0798 214.506 63.797 212.156 62.6192C211.137 62.1085 210.389 61.6813 209.682 61.275L210.901 58.6341C211.92 59.3008 212.586 59.6863 213.438 60.1136ZM218.373 66.5677C219.6 67.0266 221.139 67.6938 222.49 68.3713C223.675 68.9653 224.892 69.6531 226.035 70.3823L224.743 72.8567C223.745 72.2004 222.55 71.4191 221.302 70.7938C219.867 70.0746 218.547 69.4908 217.153 69.0006L218.373 66.5677ZM216.88 72.3497C216.432 72.8798 215.973 73.4827 215.744 73.9401C215.286 74.855 215.545 75.8435 217.79 76.9691C219.184 77.6674 220.691 78.241 222.303 78.7107L220.876 81.2994C219.628 80.8821 218.172 80.3085 216.509 79.4747C212.994 77.7134 211.717 75.5901 212.77 73.4899C213.26 72.5126 213.947 71.6083 214.52 70.8807L216.88 72.3497Z" fill="#7BADEF"/>
<path d="M228.199 86.5267C227.819 84.3286 227.093 81.6115 226.37 79.5927L229.529 78.9842C230.295 80.9742 231.105 84.0604 231.421 85.9008L228.199 86.5267Z" fill="#7BADEF"/>
</svg>
