<svg width="303" height="93" viewBox="0 0 303 93" fill="none" xmlns="http://www.w3.org/2000/svg">
<path d="M12.184 42.1847L18.8914 45.0154L18.2131 46.6226L11.5057 43.7919L12.184 42.1847ZM11.0807 44.7991L17.8095 47.6388L17.1312 49.246L10.4024 46.4063L11.0807 44.7991ZM12.2218 34.6774L22.0364 38.8194L21.1954 40.8123L11.3807 36.6703L12.2218 34.6774ZM9.80356 47.4664L16.9396 50.4779L16.1618 52.3209L9.02581 49.3093L9.80356 47.4664ZM15.5085 41.3661L17.6729 42.2795L14.372 50.1012L12.2076 49.1878L15.5085 41.3661ZM14.4773 39.9211L20.3704 42.4081L19.656 44.101L13.7629 41.614L9.90127 50.7644L7.65118 49.8148L11.4495 40.8144L13.963 39.704L14.4773 39.9211ZM17.3629 39.2454L19.5144 40.6078C18.6993 41.2232 17.8933 41.8171 17.3243 42.2081L15.7175 41.0504C16.2888 40.5341 16.9596 39.7821 17.3629 39.2454ZM16.4518 30.2773L18.4972 31.7716C17.1228 33.4132 15.3198 34.874 13.7543 35.6523C13.5099 35.0948 12.8564 34.0111 12.4563 33.4636C13.8762 32.851 15.3507 31.6303 16.4518 30.2773ZM17.4077 34.1141L19.3798 35.6028C16.7156 38.745 13.3276 41.3293 10.0751 42.456C10.0045 41.8456 9.68856 40.5005 9.45894 39.8481C12.3006 38.9772 15.1963 36.8415 17.4077 34.1141ZM16.3993 32.3758L23.321 35.2969L22.48 37.2898L14.5725 33.9527L16.3993 32.3758ZM24.2796 41.2808L23.6737 42.7166L27.6167 44.3806L28.2226 42.9448L24.2796 41.2808ZM22.8236 44.7309L22.2177 46.1667L26.1607 47.8307L26.7666 46.395L22.8236 44.7309ZM25.7266 37.8521L25.1297 39.2664L29.0727 40.9305L29.6696 39.5161L25.7266 37.8521ZM24.4261 34.6524L32.9979 38.2699L27.5898 51.0847L19.018 47.4672L24.4261 34.6524ZM23.9822 47.6687L26.2323 48.6183L24.116 53.6328C23.8809 54.1899 23.8662 54.2847 24.1233 54.3932C24.209 54.4294 24.5948 54.5922 24.7019 54.6374C25.0019 54.764 25.1928 54.4911 26.1976 52.2896C26.4634 52.8562 27.2831 53.606 27.8107 54.0307C26.3484 56.8975 25.4747 57.4124 24.1033 56.8336C23.739 56.6799 23.1604 56.4357 22.8389 56.3001C21.0817 55.5585 20.9978 54.7404 21.8569 52.7046L23.9822 47.6687ZM20.7141 47.0974L22.857 48.0018C21.2162 51.1719 19.3628 53.4698 15.4635 53.6166C15.4324 52.9724 15.1817 51.8315 14.8607 51.2164C18.1044 51.2472 19.4293 49.4837 20.7141 47.0974Z" fill="#7BADEF"/>
<path d="M44.8142 54.1613L47.3871 55.3021L44.3231 62.2126C43.9837 62.9781 44.0429 63.1316 44.7446 63.4427C45.0636 63.5841 46.3181 64.1403 46.7008 64.31C47.4025 64.6211 47.7162 64.2005 49.1141 61.3345C49.4572 61.9955 50.3861 62.9416 50.9699 63.404C49.0649 67.012 47.9745 67.7498 45.8482 66.807C45.3804 66.5996 43.7431 65.8737 43.2966 65.6757C40.8938 64.6104 40.6567 63.5385 41.7503 61.0719L44.8142 54.1613ZM39.026 51.7222L41.7477 52.9289C39.3428 57.4348 36.8778 60.6418 30.2882 60.01C30.304 59.2283 30.043 57.8659 29.7259 57.0892C35.4559 57.8232 37.1186 55.2782 39.026 51.7222ZM38.8991 42.023L41.5727 42.1907C41.8437 44.2191 41.9429 46.8074 41.6727 48.3923L38.7418 48.2886C39.0664 46.7533 39.09 44.1177 38.8991 42.023ZM53.109 47.102L55.4159 49.2443C53.6413 50.7219 51.6306 52.273 50.153 53.1953L48.2975 51.3549C49.7915 50.3381 51.8233 48.5674 53.109 47.102ZM34.6908 47.3831L53.9128 55.9055L52.8475 58.3082L33.6255 49.7858L34.6908 47.3831ZM46.3583 43.2184L48.9524 44.3686L45.0589 53.1503L42.4648 52.0002L46.3583 43.2184Z" fill="#7BADEF"/>
<path d="M76.0655 55.1929C75.8432 55.4181 75.3249 56.0454 75.0448 56.497C73.7713 58.5392 71.5963 61.4094 69.2706 63.4099C66.246 65.987 62.3418 68.3133 58.5232 69.4528L56.5072 66.6072C60.4416 65.791 64.4077 63.5211 66.9314 61.4564C68.7102 59.9612 70.4575 57.8967 71.2335 56.3438C70.2676 56.1977 64.4032 55.3105 63.4143 55.1608C62.4714 55.0182 61.1891 54.9418 60.6762 54.9113L61.1737 51.6226C61.7807 51.8085 63.1962 52.0932 63.8631 52.1941C65.082 52.3785 70.9694 53.2693 71.9813 53.4224C72.9932 53.5754 73.9076 53.5962 74.4149 53.5082L76.0655 55.1929ZM69.8583 61.5464C71.9348 63.8366 74.6821 67.7573 75.8986 69.8233L72.9324 71.7034C71.5889 69.0772 69.4962 65.9612 67.3729 63.3581L69.8583 61.5464Z" fill="#7BADEF"/>
<path d="M99.296 54.5665C99.2424 55.2622 99.7562 55.8616 100.452 55.9151C101.148 55.9686 101.77 55.4567 101.824 54.7609C101.877 54.0652 101.342 53.4408 100.646 53.3873C99.9507 53.3338 99.3495 53.8707 99.296 54.5665ZM97.8813 54.4576C97.9955 52.9734 99.271 51.8585 100.755 51.9726C102.239 52.0868 103.353 53.3855 103.238 54.8698C103.124 56.354 101.827 57.444 100.343 57.3298C98.8589 57.2156 97.7671 55.9419 97.8813 54.4576ZM94.7523 53.2838C94.6578 53.6031 94.4312 54.7288 94.3866 55.3085C94.2813 56.6768 94.1297 58.648 94.0262 59.9931C93.8817 61.8716 93.35 68.7825 93.2002 70.7306C93.0967 72.0756 92.244 72.8499 90.5974 72.7232C89.3683 72.6286 88.0036 72.477 86.8547 72.2486L86.7977 69.3515C87.7574 69.612 88.7725 69.7601 89.3522 69.8047C89.9552 69.8511 90.18 69.6584 90.2496 69.0572C90.3406 68.1777 90.9043 60.8494 90.9882 59.7594C91.0506 58.9477 91.2415 56.4663 91.3504 55.0516C91.3967 54.4487 91.3575 53.4425 91.32 53.0197L94.7523 53.2838ZM83.1033 56.1201C83.7919 56.2664 84.5982 56.3984 85.3171 56.4537C86.7318 56.5626 97.9794 57.4279 99.6492 57.5563C100.299 57.6063 101.301 57.6134 101.933 57.592L101.699 60.63C100.985 60.5052 100.083 60.4124 99.4565 60.3642C97.7867 60.2358 86.6318 59.3776 85.1012 59.2599C84.4055 59.2063 83.5225 59.1617 82.8678 59.1814L83.1033 56.1201ZM88.5335 62.8599C87.3097 64.8186 84.9192 67.6907 83.5616 68.9626L81.1641 67.0752C82.832 65.7105 84.8836 63.3022 85.986 61.4041L88.5335 62.8599ZM98.5841 62.3033C99.6527 63.8786 101.283 66.9434 102.081 68.7077L99.2513 70.0063C98.4075 67.9352 96.9768 65.0024 95.951 63.4771L98.5841 62.3033Z" fill="#7BADEF"/>
<path d="M117.694 60.9663C117.979 61.9998 118.634 65.1864 118.79 66.2938L115.908 66.8079C115.782 65.6581 115.206 62.7193 114.842 61.4381L117.694 60.9663ZM125.914 63.9481C125.543 64.6669 125.329 65.1279 125.119 65.5659C124.159 67.7933 122.796 70.0285 120.921 71.7832C118.349 74.2292 115.201 75.6905 112.35 76.3037L110.322 73.4672C112.935 73.1699 116.425 71.927 118.684 69.8321C120.548 68.1464 122.153 65.2663 122.859 62.4104L125.914 63.9481ZM112.175 61.3267C112.566 62.5886 113.254 65.5684 113.489 66.9236L110.523 67.5189C110.346 66.2434 109.656 62.9807 109.259 61.9062L112.175 61.3267Z" fill="#7BADEF"/>
<path d="M137.229 75.2064C137.28 73.4162 137.556 63.7907 137.612 61.8377C137.636 61.0007 137.599 59.8594 137.46 59.0178L141.087 59.1216C140.97 59.956 140.825 60.9524 140.797 61.9289C140.724 64.4864 140.487 73.5778 140.437 75.2983C140.419 75.9493 140.465 77.5795 140.554 78.5361L136.904 78.4315C137.093 77.5294 137.203 76.1132 137.229 75.2064ZM140.031 65.1181C143.099 66.0669 148.068 68.0475 150.314 69.2287L148.92 72.4232C146.309 70.9755 142.445 69.3757 139.935 68.4661L140.031 65.1181Z" fill="#7BADEF"/>
<path d="M168.663 58.4435C168.611 58.9111 168.564 59.4948 168.564 60.1C168.564 61.2872 168.669 64.5884 168.745 66.5407C168.845 69.0974 169.381 73.2896 169.452 75.1258C169.53 77.1246 168.079 78.7174 165.035 78.836C161.316 78.9809 159.308 77.6392 159.212 75.1755C159.121 72.8281 161.218 71.0937 164.774 70.9552C169.887 70.756 173.797 73.1176 175.789 74.6694L174.217 77.3377C171.928 75.3319 168.47 73.2088 164.495 73.3636C162.868 73.427 161.987 74.0898 162.018 74.9033C162.053 75.7865 162.887 76.2893 164.491 76.2269C165.722 76.1789 166.546 75.7977 166.493 74.4496C166.439 73.0551 166.021 68.9048 165.933 66.6503C165.846 64.4191 165.754 61.4664 165.703 60.1417C165.687 59.7233 165.612 59.0046 165.502 58.5666L168.663 58.4435ZM159.102 60.9808C160.763 61.1954 163.444 61.3237 164.862 61.2684C168.023 61.1453 171.061 60.864 174.434 60.1972L174.514 62.8477C172.156 63.2655 168.471 63.6883 164.985 63.8241C163.498 63.8821 160.793 63.7779 159.252 63.6518L159.102 60.9808ZM159.158 66.0064C160.702 66.2256 163.544 66.2778 164.776 66.2298C169.076 66.0623 172.063 65.6666 174.908 65.1834L174.991 67.9268C171.798 68.4236 169.27 68.6618 164.854 68.8338C163.483 68.8873 160.852 68.8734 159.311 68.7472L159.158 66.0064Z" fill="#7BADEF"/>
<path d="M198.318 60.5219C197.669 61.0456 196.997 61.5728 196.21 62.1178C194.895 63.0502 192.231 64.8496 190.325 66.532C188.608 68.0676 187.527 69.5995 187.771 71.1856C188.026 72.8407 189.774 73.4891 192.969 72.9963C195.314 72.6347 198.361 71.7883 200.332 70.99L200.82 74.3038C198.892 74.9305 196.517 75.5556 193.529 76.0165C188.932 76.7256 185.262 75.9736 184.652 72.0197C184.202 69.1002 186.024 66.7246 188.483 64.5097C190.444 62.7247 193.12 60.8527 194.399 59.8319C195.194 59.1914 195.777 58.7014 196.301 58.1265L198.318 60.5219ZM185.996 57.3857C187.571 60.2729 189.445 62.8081 190.823 64.5725L188.436 66.4938C186.849 64.5969 185.006 61.7982 183.284 59.0278L185.996 57.3857Z" fill="#7BADEF"/>
<path d="M217.201 50.1515C217.223 50.8353 217.409 51.9791 217.465 52.5517C217.928 56.7575 218.13 61.8222 216.973 65.2233C215.864 68.4837 214.869 70.1231 212.853 70.8422C211.035 71.491 208.823 70.5516 207.815 67.7257C206.767 64.7902 207.336 61.0556 209.313 58.498C211.118 56.1501 213.135 54.8129 215.479 53.9765C219.992 52.3663 224.32 54.2544 225.946 58.811C227.603 63.4552 225.249 67.3082 220.921 69.6429L218.349 67.6958C223.02 65.5599 224.029 62.4341 223.052 59.6957C221.988 56.7164 219.216 55.3842 216.062 56.5098C213.783 57.3227 212.306 58.7883 211.171 60.4528C209.892 62.2673 209.651 64.7738 210.292 66.5701C210.675 67.6436 211.377 68.1585 212.144 67.8849C213.283 67.4784 213.988 65.6465 214.509 63.5094C215.313 60.432 215.145 55.9478 214.644 53.0892C214.527 52.4148 214.264 51.4712 214.054 50.9533L217.201 50.1515ZM208.214 54.1732C208.59 54.8789 209.023 55.5393 209.425 56.1121C210.979 58.3233 213.336 61.2607 214.907 62.4784C216.074 63.3956 217.596 64.4084 218.97 65.0049L217.368 67.5766C216.17 66.9176 215.216 66.3196 214.116 65.4525C212.084 63.9796 209.519 60.9436 207.354 58.061C206.84 57.3802 206.327 56.773 205.651 56.1251L208.214 54.1732Z" fill="#7BADEF"/>
<path d="M232.856 42.7095C233.024 43.307 233.259 44.0269 233.436 44.5928C233.735 45.6226 234.182 47.0216 234.528 48.185C235.429 51.4303 236.98 58.1386 236.725 62.7593L233.471 63.1615C234.112 58.568 232.694 52.344 231.858 49.4606C231.241 47.4121 230.516 45.555 229.658 44.036L232.856 42.7095ZM241.012 40.8967C243.228 41.9904 247.019 44.8472 248.713 46.4392L246.781 49.0614C245.01 47.0871 241.596 44.2891 239.133 43.2774L241.012 40.8967ZM226.883 51.4153C227.639 51.054 228.322 50.6539 229.066 50.2203C230.675 49.286 234.306 46.7151 235.816 45.8887C237.979 44.7048 240.034 44.8261 241.653 47.7845C242.971 50.192 244.474 53.6648 244.578 55.8885C244.687 57.6853 243.79 58.7596 242.259 59.5972C241.464 60.0328 240.438 60.4353 239.655 60.6518L237.732 58.2043C238.65 57.9932 239.925 57.5606 240.455 57.2702C241.149 56.8905 241.568 56.3961 241.505 55.5553C241.451 54.1 240.354 51.4657 239.259 49.4662C238.366 47.834 237.538 47.9689 236.253 48.6725C235.049 49.3314 231.765 51.7124 230.721 52.4695C230.174 52.875 229.191 53.5986 228.635 54.0356L226.883 51.4153ZM239.103 38.2821C240.016 38.7374 241.444 39.6523 242.245 40.195L240.993 41.7822C240.106 41.1802 238.815 40.3226 237.829 39.8285L239.103 38.2821ZM240.997 36.0257C241.952 36.5106 243.422 37.4032 244.18 37.9163L242.927 39.5034C242.05 38.8699 240.729 38.0551 239.754 37.5813L240.997 36.0257Z" fill="#7BADEF"/>
<path d="M247.764 33.6033L250.2 32.1935L253.637 38.1322C255.664 41.6351 258.371 47.0556 258.148 51.5921C257.452 51.4575 256.036 51.471 255.272 51.5906C255.534 47.3539 253.042 42.7227 251.201 39.542L247.764 33.6033ZM249.274 32.7295L263.245 24.6438L266.775 30.7436L252.804 38.8292L251.534 36.6349L263.069 29.959L262.079 28.2479L250.544 34.9238L249.274 32.7295ZM258.789 42.8094L269.137 36.8209L270.244 38.7334L259.896 44.7219L258.789 42.8094ZM260.84 46.3525L271.187 40.364L272.422 42.4979L262.075 48.4864L260.84 46.3525ZM259.424 34.9442L261.759 33.5927L267.69 43.8395L265.354 45.191L259.424 34.9442ZM255.585 39.8266L268.207 32.5216L273.94 42.4261L271.564 43.8009L267.055 36.0101L259.063 40.6355L263.572 48.4263L261.317 49.7312L255.585 39.8266Z" fill="#7BADEF"/>
<path d="M283.905 16.7518C283.441 17.5424 282.984 18.4061 282.674 19.0269C281.781 20.745 279.935 24.1575 279.056 26.0221C278.353 27.4783 278.487 27.7241 280.078 28.215C282.267 28.8484 287.711 30.2276 290.813 31.3723L289.363 34.7617C288.466 34.3449 287.536 33.9682 286.615 33.6128C284.746 32.8381 280.433 31.5431 277.751 30.7721C274.845 29.8969 274.507 28.6731 275.851 25.966C276.907 23.8702 278.797 20.2097 279.6 18.175C279.953 17.3064 280.323 16.3032 280.437 15.6421L283.905 16.7518Z" fill="#7BADEF"/>
</svg>
