<svg width="710" height="131" viewBox="0 0 710 131" fill="none" xmlns="http://www.w3.org/2000/svg">
<path d="M9.08829 71.6352L18.1817 66.5198L19.7948 69.3873L10.7014 74.5027L9.08829 71.6352ZM13.477 78.8928L22.0538 74.0681L23.6523 76.9098L15.0756 81.7345L13.477 78.8928ZM17.6672 88.3366C19.8534 86.3587 23.0325 83.244 26.0453 80.2568L27.9845 82.7368C25.2817 85.5496 22.3351 88.5335 20.0989 90.8457L17.6672 88.3366ZM25.4864 70.4367L26.3874 72.0384L33.1816 68.2164L32.2806 66.6147L25.4864 70.4367ZM27.7244 74.4151L28.6108 75.9909L35.4051 72.1689L34.5186 70.5931L27.7244 74.4151ZM23.2775 66.51L24.164 68.0858L30.9582 64.2638L30.0717 62.688L23.2775 66.51ZM18.9858 65.5914L31.6701 58.456L39.8663 73.0262L27.182 80.1615L18.9858 65.5914ZM33.0527 75.3627L36.0235 73.6915L39.5113 79.8916C39.9472 80.6666 40.0683 80.7005 40.4817 80.468C40.6625 80.3662 41.3342 79.9884 41.5667 79.8576C42.0059 79.6106 41.8767 79.1391 40.4751 76.5267C41.3309 76.6574 42.847 76.4507 43.7237 76.1956C45.4563 79.8801 45.2852 81.2687 43.3994 82.3296C42.9344 82.5911 41.8752 83.187 41.436 83.434C39.0335 84.7855 38.0227 84.1978 36.5549 81.5886L33.0527 75.3627ZM28.9015 78.6841L31.9241 76.9838C34.0216 81.6194 34.6692 85.3701 29.9078 90.3272C29.1618 89.7265 27.7183 88.9742 26.764 88.7288C30.9749 84.7276 30.4113 82.1539 28.9015 78.6841ZM12.8536 71.0134L15.8503 69.3277L24.3953 84.5179L21.6456 86.6428L12.8536 71.0134Z" fill="#7BADEF"/>
<path d="M36.7272 56.6092L58.9069 42.2181L60.7622 45.0776L38.5825 59.4687L36.7272 56.6092ZM50.0604 59.406L63.0898 50.9521L64.8806 53.7121L51.8513 62.166L50.0604 59.406ZM54.5761 68.4894L69.52 58.7932L71.3109 61.5532L56.3669 71.2494L54.5761 68.4894ZM52.4548 51.9872L55.4635 50.035L64.5789 64.0838L61.5702 66.036L52.4548 51.9872ZM42.301 48.046L45.8932 46.7753C47.9413 53.9617 48.7287 62.0367 45.763 69.1196C44.9161 68.4678 43.3648 67.6017 42.4494 67.171C45.0462 61.3167 44.267 53.9077 42.301 48.046ZM44.0879 61.6912L47.0966 59.7391L55.4698 72.6441L52.4611 74.5962L44.0879 61.6912Z" fill="#7BADEF"/>
<path d="M81.3462 30.2955L84.5471 29.3091L90.7094 49.3075L87.5085 50.2938L81.3462 30.2955ZM76.4705 44.2663L89.2232 33.5131L91.3599 36.0183L78.6704 46.8761L76.4705 44.2663ZM76.6126 34.7626L79.8418 33.7676L85.4979 52.123C86.0129 53.7943 86.3376 53.9423 88.0939 53.4011C88.9436 53.1393 92.711 51.9784 93.5891 51.7078C95.1471 51.2277 95.2383 50.5173 94.5659 47.5298C95.4595 47.8128 96.9567 47.9407 97.9155 47.8314C98.73 51.9846 98.1205 53.6302 94.8064 54.6514C93.8716 54.9395 89.6227 56.2487 88.7445 56.5193C84.8638 57.7151 83.4732 57.0271 82.26 53.0897L76.6126 34.7626ZM88.6852 34.0821L88.4869 34.1432L88.9508 33.535L89.4147 32.9268L92.056 33.0434L92.0889 33.6536C93.7561 39.0639 94.7556 42.5088 95.0002 43.7051C95.2884 45.043 95.0163 45.8713 94.2517 46.5101C93.5524 47.1598 92.3344 47.5351 91.4279 47.8144C91.0528 46.9995 90.4051 45.8034 89.8186 45.2087C90.3089 45.0887 90.9604 44.8879 91.2153 44.8094C91.5552 44.7046 91.699 44.5673 91.6269 44.0312C91.5656 43.4298 90.6142 40.3422 88.6852 34.0821ZM66.857 41.9559L76.2047 39.0755L77.191 42.2764L67.8433 45.1568L66.857 41.9559ZM68.24 34.7683L71.4126 33.7907L77.1996 52.571L74.027 53.5486L68.24 34.7683ZM70.3534 54.7116C72.4426 53.1374 75.6537 50.473 78.6556 47.9352L80.3456 50.7021C77.8144 53.1569 75.0282 55.6903 72.7604 57.6918L70.3534 54.7116Z" fill="#7BADEF"/>
<path d="M101.33 26.1274L119.524 22.0552L120.243 25.2659L102.049 29.3381L101.33 26.1274ZM105.466 31.0336L117.643 28.308L118.239 30.9691L106.061 33.6947L105.466 31.0336ZM105.855 35.624L119.219 32.633L119.834 35.3809L106.47 38.3719L105.855 35.624ZM99.2188 26.6L102.661 25.8296L104.914 35.8955C105.982 40.6681 107.054 47.6269 104.817 52.5621C104.119 52.0198 102.391 51.2219 101.513 50.9628C103.442 46.5522 102.423 40.9179 101.472 36.6659L99.2188 26.6ZM118.165 22.3595L121.664 21.5762L126.572 43.5013C126.98 45.3235 126.798 46.2754 125.793 47.0775C124.781 47.8506 123.146 48.2775 120.629 48.8407C120.313 47.97 119.491 46.6049 118.84 45.8696C120.335 45.6262 122.064 45.2089 122.549 45.0699C123.041 44.9598 123.175 44.7474 123.072 44.2846L118.165 22.3595ZM109.377 28.1535L112.646 27.4219L114.4 35.2605L111.132 35.9921L109.377 28.1535ZM109.645 39.3926L119.104 37.2756L120.871 45.1721L111.413 47.2891L110.83 44.6859L117.078 43.2875L116.482 40.6264L110.234 42.0248L109.645 39.3926ZM107.881 39.7875L111.034 39.0818L113.157 48.5692L110.004 49.2749L107.881 39.7875Z" fill="#7BADEF"/>
<path d="M137.769 19.5262L152.695 17.7799L153.084 21.1066L138.158 22.8529L137.769 19.5262ZM151.37 17.9349L154.873 17.525C154.873 17.525 155.008 18.6732 155.026 19.0888C156.138 30.6273 156.352 34.7504 155.561 36.156C154.975 37.269 154.277 37.679 153.264 37.9467C152.342 38.2336 150.808 38.3833 149.333 38.5261C149.16 37.5614 148.557 36.2294 147.916 35.3494C149.314 35.3052 150.521 35.164 151.169 35.0882C151.64 35.0331 151.924 34.9104 152.173 34.4932C152.751 33.5602 152.514 29.4994 151.453 18.6415L151.37 17.9349ZM143.206 20.0838L146.797 19.6636C147.445 27.4961 147.652 34.873 141.959 39.7768C141.388 38.9781 140.249 37.9176 139.352 37.3958C144.356 33.2293 143.795 26.9085 143.206 20.0838ZM137.589 29.2163L138.857 40.0501L135.413 40.4531L134.527 32.8871L131.083 33.2901L130.701 30.0223L137.589 29.2163ZM138.678 38.5192C140.083 40.3245 142.42 40.9165 145.496 40.676C148.957 40.4202 155.63 39.55 159.566 38.7612C159.28 39.6303 158.891 41.4067 158.868 42.4837C155.326 43.0771 149.386 43.8318 145.836 44.0979C142.198 44.3744 139.655 43.8065 137.472 41.7341C136.311 43.0338 135.117 44.3075 133.679 45.7889L131.512 42.3121C132.74 41.3328 134.209 40.1164 135.44 38.8981L138.678 38.5192ZM129.743 21.3306L132.116 18.9044C134.027 19.9342 136.393 21.5375 137.585 22.8006L135.031 25.457C133.986 24.1767 131.635 22.4522 129.743 21.3306Z" fill="#7BADEF"/>
<path d="M174.359 19.4927C177.996 20.0554 183.926 20.003 187.103 19.6689L187.042 23.4921C183.42 23.7893 178.026 23.7022 174.327 23.2867L174.359 19.4927ZM176.526 32.1859C176.272 33.1897 176.142 33.8991 176.13 34.6696C176.108 36.0033 177.251 36.8221 180.274 36.871C182.912 36.9136 185.109 36.7119 187.696 36.1905L187.72 40.1929C185.788 40.547 183.384 40.7157 180.035 40.6616C174.937 40.5793 172.507 38.702 172.556 35.6791C172.575 34.4936 172.772 33.3407 173.152 31.8349L176.526 32.1859ZM169.827 17.4333C169.61 18.0523 169.2 19.5576 169.073 20.0891C168.626 22.0385 167.493 27.949 167.445 30.9127C167.436 31.5055 167.453 32.2469 167.533 32.841C167.994 31.8406 168.484 30.8406 168.945 29.8401L170.759 31.322C169.859 33.7976 168.829 36.9825 168.508 38.5485C168.412 38.9916 168.312 39.6422 168.307 39.9386C168.332 40.265 168.324 40.7689 168.347 41.1843L164.935 41.3367C164.375 39.3118 163.87 35.687 163.935 31.6564C164.008 27.1813 164.977 22.2167 165.34 19.9103C165.472 19.112 165.638 17.9882 165.683 17.0403L169.827 17.4333Z" fill="#7BADEF"/>
<path d="M209.074 24.3344L219.201 25.7547L218.797 28.6313L208.671 27.211L209.074 24.3344ZM201.642 40.6218C204.366 40.6149 208.579 40.4574 212.611 40.3046L212.447 43.3944C208.931 43.7094 205.209 43.9955 202.334 44.2208L201.642 40.6218ZM207.831 18.6828L211.266 19.1645L208.013 42.3536L204.579 41.8719L207.831 18.6828ZM209.827 18.9627L221.539 20.6054L219.617 34.3133L207.905 32.6707L208.329 29.6473L216.577 30.8042L217.652 23.143L209.403 21.9861L209.827 18.9627ZM214.32 31.5351C214.644 36.9082 216.294 41.5695 220.342 44.0826C219.484 44.6507 218.263 45.8862 217.636 46.7262C213.26 43.5684 211.671 38.2572 211.318 31.5931L214.32 31.5351ZM218.238 34.3294L220.725 36.6537C218.897 37.9537 216.788 39.334 215.172 40.1849L213.209 38.1736C214.778 37.2264 216.946 35.6448 218.238 34.3294ZM197.155 17.1255L204.493 18.1547L204.053 21.2956L200.002 20.7274L196.75 43.9165L193.462 43.4554L197.155 17.1255ZM203.525 18.0189L204.141 18.1053L204.657 18.0579L206.841 19.771C205.69 22.2136 204.176 25.3236 202.945 27.4855C204.561 30.0468 204.659 32.1257 204.42 33.8282C204.144 35.7948 203.531 36.9659 202.468 37.5052C201.949 37.7916 201.333 37.9147 200.645 37.9081C200.075 37.9179 199.312 37.8109 198.612 37.6827C198.706 36.798 198.635 35.3813 198.26 34.4308C198.809 34.5677 199.22 34.6253 199.602 34.6788C199.929 34.6948 200.231 34.6772 200.519 34.5382C200.938 34.3275 201.167 33.761 201.282 32.9391C201.476 31.5595 201.291 29.6779 199.839 27.439C201.061 24.9165 202.643 20.8884 203.376 19.0756L203.525 18.0189Z" fill="#7BADEF"/>
<path d="M229.24 33.5675C230.139 33.6316 231.548 33.605 232.482 33.525C234.609 33.4275 239.882 32.9288 243.369 33.7685C247.951 34.8718 250.353 38.3162 249.298 42.6963C248.049 47.8834 242.578 50.3464 233.311 48.6942L232.637 44.7819C239.249 46.1912 244.543 45.6061 245.486 41.687C246 39.5545 244.754 37.6386 242.218 37.028C238.875 36.223 232.565 37.2339 229.837 37.6746L229.24 33.5675Z" fill="#7BADEF"/>
<path d="M272.558 33.6892C272.108 34.4164 271.447 35.6054 271.107 36.1812C270.097 37.9744 268.289 41.1925 266.605 43.8279C264.324 47.4548 260.589 52.6082 257.961 55.4706L254.462 52.8878C257.04 50.5697 261.074 45.3564 263.412 41.7476C264.967 39.32 266.61 36.4225 267.341 34.8202C267.817 33.8209 268.215 32.6725 268.347 31.9679L272.558 33.6892ZM264.004 35.6194C267.448 36.7218 271.6 37.4596 275.55 37.7591L274.421 41.2878C270.658 40.986 266.073 40.0473 262.883 39.0262C261.499 38.5834 260.473 38.1926 259.503 37.8199L260.52 34.255C261.933 34.8943 262.847 35.249 264.004 35.6194ZM271.486 42.7759C273.121 43.1125 275.19 43.6502 277.025 44.2376C278.634 44.7526 280.3 45.3795 281.883 46.0729L280.743 49.4424C279.357 48.8122 277.698 48.0634 276.005 47.5212C274.057 46.8977 272.279 46.4222 270.429 46.0788L271.486 42.7759ZM270.742 50.3495C270.283 51.1049 269.824 51.954 269.625 52.5751C269.228 53.8172 269.748 55.0108 272.797 55.9867C274.688 56.5921 276.699 57.018 278.821 57.2926L277.532 60.8326C275.879 60.5524 273.934 60.1163 271.675 59.3935C266.904 57.8664 264.879 55.444 265.791 52.5928C266.216 51.266 266.904 49.9923 267.482 48.9637L270.742 50.3495Z" fill="#7BADEF"/>
<path d="M287.82 65.9889C286.909 63.296 285.461 60.0177 284.154 57.6178L288.011 56.2309C289.367 58.5859 290.994 62.3126 291.753 64.5677L287.82 65.9889Z" fill="#7BADEF"/>
<path d="M319.074 66.1191L327.621 69.7263L326.757 71.7744L318.21 68.1672L319.074 66.1191ZM317.668 69.4507L326.243 73.0695L325.378 75.1176L316.804 71.4988L317.668 69.4507ZM319.122 56.5521L331.629 61.8304L330.558 64.3701L318.05 59.0918L319.122 56.5521ZM316.04 72.8497L325.134 76.6874L324.143 79.036L315.049 75.1982L316.04 72.8497ZM323.311 65.0759L326.069 66.2399L321.862 76.2074L319.104 75.0434L323.311 65.0759ZM321.996 63.2344L329.506 66.4037L328.596 68.5611L321.086 65.3918L316.165 77.0525L313.298 75.8424L318.138 64.3729L321.341 62.9578L321.996 63.2344ZM325.674 62.3733L328.415 64.1096C327.377 64.8937 326.35 65.6506 325.624 66.1489L323.577 64.6735C324.305 64.0156 325.16 63.0573 325.674 62.3733ZM324.513 50.9449L327.119 52.8492C325.368 54.9412 323.07 56.8027 321.075 57.7945C320.764 57.084 319.931 55.7031 319.421 55.0053C321.23 54.2247 323.109 52.6691 324.513 50.9449ZM325.731 55.8344L328.244 57.7314C324.849 61.7357 320.531 65.029 316.386 66.4648C316.297 65.6869 315.894 63.9727 315.601 63.1415C319.223 62.0316 322.913 59.31 325.731 55.8344ZM324.446 53.6191L333.266 57.3416L332.195 59.8813L322.118 55.6287L324.446 53.6191ZM334.488 64.9672L333.716 66.7968L338.741 68.9174L339.513 67.0877L334.488 64.9672ZM332.632 69.3638L331.86 71.1935L336.885 73.314L337.657 71.4843L332.632 69.3638ZM336.332 60.5978L335.571 62.4002L340.596 64.5207L341.357 62.7184L336.332 60.5978ZM334.675 56.5203L345.598 61.1302L338.706 77.4606L327.783 72.8507L334.675 56.5203ZM334.109 73.1076L336.976 74.3176L334.279 80.7078C333.98 81.4178 333.961 81.5386 334.289 81.6769C334.398 81.723 334.89 81.9304 335.026 81.988C335.408 82.1494 335.652 81.8016 336.932 78.9961C337.271 79.7182 338.315 80.6737 338.988 81.2149C337.124 84.8682 336.011 85.5243 334.263 84.7868C333.799 84.5908 333.062 84.2797 332.652 84.1068C330.413 83.1618 330.306 82.1193 331.401 79.525L334.109 73.1076ZM329.944 72.3795L332.675 73.532C330.584 77.5718 328.222 80.5001 323.253 80.6872C323.214 79.8662 322.894 78.4124 322.485 77.6284C326.619 77.6678 328.307 75.4205 329.944 72.3795Z" fill="#7BADEF"/>
<path d="M360.67 81.3869L363.949 82.8405L360.044 91.647C359.612 92.6225 359.687 92.818 360.581 93.2145C360.988 93.3947 362.586 94.1035 363.074 94.3197C363.968 94.7162 364.368 94.1801 366.15 90.528C366.587 91.3702 367.771 92.576 368.514 93.1652C366.087 97.763 364.697 98.7032 361.988 97.5018C361.391 97.2375 359.305 96.3124 358.736 96.0602C355.674 94.7026 355.372 93.3365 356.765 90.1933L360.67 81.3869ZM353.294 78.2786L356.762 79.8164C353.698 85.5584 350.556 89.6451 342.159 88.8401C342.179 87.8439 341.846 86.1077 341.442 85.118C348.744 86.0534 350.863 82.8102 353.294 78.2786ZM353.132 65.9186L356.539 66.1322C356.885 68.7171 357.011 72.0154 356.667 74.0351L352.932 73.9031C353.345 71.9465 353.375 68.5878 353.132 65.9186ZM371.24 72.3909L374.18 75.1209C371.919 77.0039 369.356 78.9805 367.473 80.1559L365.109 77.8106C367.013 76.5147 369.602 74.2583 371.24 72.3909ZM347.769 72.749L372.265 83.6095L370.907 86.6715L346.412 75.811L347.769 72.749ZM362.638 67.4419L365.943 68.9076L360.982 80.0985L357.676 78.6328L362.638 67.4419Z" fill="#7BADEF"/>
<path d="M400.295 82.6434C400.012 82.9303 399.352 83.7297 398.995 84.3052C397.372 86.9076 394.6 90.5652 391.636 93.1146C387.782 96.3986 382.807 99.3632 377.941 100.815L375.372 97.189C380.385 96.1489 385.44 93.2563 388.656 90.6251C390.922 88.7198 393.149 86.0888 394.138 84.11C392.907 83.9238 385.434 82.7931 384.174 82.6025C382.972 82.4207 381.338 82.3233 380.684 82.2844L381.318 78.0935C382.092 78.3304 383.896 78.6933 384.746 78.8218C386.299 79.0568 393.801 80.1919 395.091 80.387C396.38 80.5821 397.546 80.6085 398.192 80.4965L400.295 82.6434ZM392.385 90.7398C395.032 93.6583 398.533 98.6546 400.083 101.287L396.303 103.683C394.591 100.337 391.924 96.3658 389.218 93.0485L392.385 90.7398Z" fill="#7BADEF"/>
<path d="M429.841 81.8386C429.773 82.7252 430.427 83.489 431.314 83.5572C432.2 83.6255 432.994 82.973 433.062 82.0864C433.13 81.1998 432.448 80.4041 431.562 80.3359C430.675 80.2677 429.909 80.952 429.841 81.8386ZM428.038 81.6999C428.184 79.8085 429.809 78.3877 431.7 78.5332C433.592 78.6787 435.01 80.3337 434.865 82.2251C434.719 84.1165 433.067 85.5055 431.175 85.36C429.284 85.2145 427.893 83.5913 428.038 81.6999ZM424.051 80.204C423.93 80.611 423.641 82.0454 423.585 82.7843C423.45 84.5279 423.257 87.0399 423.125 88.754C422.941 91.1478 422.264 99.9547 422.073 102.437C421.941 104.151 420.854 105.138 418.756 104.976C417.19 104.856 415.45 104.663 413.986 104.372L413.914 100.68C415.137 101.012 416.43 101.2 417.169 101.257C417.937 101.316 418.224 101.071 418.313 100.305C418.429 99.184 419.147 89.8452 419.254 88.4562C419.333 87.4218 419.577 84.2596 419.715 82.4569C419.774 81.6885 419.724 80.4063 419.677 79.8675L424.051 80.204ZM409.206 83.8185C410.083 84.0049 411.111 84.1732 412.027 84.2436C413.83 84.3823 428.163 85.485 430.291 85.6487C431.118 85.7124 432.396 85.7215 433.201 85.6942L432.903 89.5657C431.994 89.4065 430.843 89.2883 430.045 89.2269C427.917 89.0632 413.702 87.9696 411.752 87.8196C410.865 87.7514 409.74 87.6945 408.906 87.7195L409.206 83.8185ZM416.126 92.4072C414.566 94.9033 411.52 98.5633 409.79 100.184L406.735 97.779C408.86 96.0399 411.474 92.971 412.879 90.5521L416.126 92.4072ZM428.934 91.698C430.295 93.7054 432.373 97.611 433.389 99.8593L429.784 101.514C428.709 98.8749 426.885 95.1376 425.578 93.1938L428.934 91.698Z" fill="#7BADEF"/>
<path d="M453.347 90.0012C453.711 91.3182 454.545 95.379 454.744 96.7903L451.072 97.4455C450.911 95.9802 450.177 92.2352 449.713 90.6024L453.347 90.0012ZM463.823 93.8011C463.349 94.717 463.077 95.3045 462.81 95.8627C461.586 98.7012 459.85 101.55 457.46 103.786C454.182 106.903 450.17 108.765 446.537 109.546L443.953 105.932C447.282 105.553 451.731 103.969 454.609 101.299C456.985 99.1511 459.03 95.4809 459.929 91.8416L463.823 93.8011ZM446.315 90.4605C446.813 92.0686 447.689 95.8659 447.988 97.5929L444.209 98.3514C443.984 96.726 443.105 92.5682 442.599 91.199L446.315 90.4605Z" fill="#7BADEF"/>
<path d="M478.144 108.139C478.209 105.858 478.56 93.5914 478.631 91.1026C478.662 90.036 478.615 88.5816 478.438 87.5091L483.06 87.6414C482.911 88.7047 482.726 89.9744 482.691 91.2188C482.597 94.478 482.295 106.064 482.232 108.256C482.209 109.086 482.268 111.163 482.381 112.382L477.729 112.249C477.97 111.099 478.111 109.294 478.144 108.139ZM481.714 95.2829C485.623 96.492 491.956 99.016 494.819 100.521L493.042 104.592C489.714 102.747 484.791 100.709 481.592 99.5494L481.714 95.2829Z" fill="#7BADEF"/>
<path d="M518.149 86.7775C518.083 87.3733 518.023 88.1172 518.023 88.8884C518.023 90.4013 518.157 94.6082 518.254 97.0961C518.381 100.354 519.064 105.697 519.155 108.036C519.254 110.584 517.405 112.613 513.525 112.764C508.786 112.949 506.228 111.239 506.106 108.1C505.989 105.108 508.662 102.898 513.193 102.722C519.709 102.468 524.691 105.477 527.23 107.455L525.227 110.855C522.309 108.299 517.903 105.593 512.838 105.791C510.765 105.872 509.641 106.716 509.681 107.753C509.725 108.878 510.788 109.519 512.832 109.44C514.402 109.378 515.451 108.893 515.384 107.175C515.314 105.398 514.782 100.109 514.67 97.2357C514.559 94.3924 514.443 90.6297 514.377 88.9415C514.356 88.4084 514.261 87.4925 514.121 86.9344L518.149 86.7775ZM505.964 90.0108C508.081 90.2843 511.499 90.4478 513.305 90.3774C517.334 90.2205 521.205 89.862 525.503 89.0123L525.605 92.3899C522.6 92.9223 517.905 93.4612 513.462 93.6343C511.566 93.7081 508.12 93.5754 506.156 93.4146L505.964 90.0108ZM506.036 96.4153C508.005 96.6945 511.626 96.7611 513.196 96.6999C518.675 96.4865 522.482 95.9822 526.107 95.3664L526.213 98.8625C522.144 99.4956 518.923 99.7991 513.295 100.018C511.548 100.086 508.195 100.069 506.231 99.9079L506.036 96.4153Z" fill="#7BADEF"/>
<path d="M555.85 89.4346C555.024 90.1019 554.167 90.7738 553.165 91.4682C551.489 92.6565 548.093 94.9495 545.665 97.0935C543.477 99.0504 542.099 101.002 542.411 103.024C542.736 105.133 544.963 105.959 549.035 105.331C552.023 104.87 555.905 103.792 558.417 102.775L559.039 106.997C556.583 107.796 553.556 108.593 549.748 109.18C543.889 110.084 539.213 109.125 538.436 104.087C537.862 100.366 540.184 97.3389 543.318 94.5163C545.816 92.2416 549.227 89.8561 550.856 88.5553C551.87 87.7391 552.613 87.1146 553.28 86.382L555.85 89.4346ZM540.149 85.438C542.156 89.1173 544.543 92.348 546.3 94.5964L543.258 97.0448C541.236 94.6275 538.886 91.061 536.692 87.5306L540.149 85.438Z" fill="#7BADEF"/>
<path d="M579.771 76.2555C579.798 77.1268 580.035 78.5843 580.107 79.3141C580.697 84.6737 580.955 91.1279 579.48 95.4621C578.067 99.6168 576.799 101.706 574.23 102.622C571.913 103.449 569.094 102.252 567.809 98.6509C566.474 94.9101 567.199 90.151 569.719 86.8917C572.018 83.8996 574.589 82.1956 577.576 81.1298C583.327 79.0778 588.843 81.4839 590.915 87.2906C593.027 93.2089 590.027 98.1189 584.511 101.094L581.234 98.6128C587.186 95.8909 588.471 91.9076 587.226 88.418C585.871 84.6214 582.339 82.9236 578.319 84.358C575.415 85.394 573.533 87.2617 572.087 89.3827C570.457 91.6951 570.149 94.8892 570.966 97.1783C571.454 98.5462 572.349 99.2025 573.326 98.8538C574.778 98.3358 575.676 96.0013 576.34 93.2779C577.364 89.3563 577.151 83.6419 576.512 79.999C576.362 79.1396 576.028 77.9372 575.761 77.2772L579.771 76.2555ZM568.319 81.3804C568.797 82.2797 569.349 83.1213 569.861 83.8512C571.842 86.669 574.846 90.4123 576.847 91.9641C578.334 93.1329 580.274 94.4235 582.024 95.1836L579.984 98.4609C578.457 97.6211 577.241 96.8591 575.839 95.7541C573.25 93.8772 569.981 90.0082 567.222 86.3348C566.567 85.4672 565.913 84.6934 565.052 83.8678L568.319 81.3804Z" fill="#7BADEF"/>
<path d="M599.609 66.8221C599.823 67.5835 600.123 68.5009 600.348 69.2221C600.729 70.5344 601.299 72.3172 601.739 73.7998C602.888 77.9354 604.864 86.4841 604.539 92.3725L600.393 92.8849C601.21 87.0312 599.403 79.0998 598.338 75.4253C597.551 72.8149 596.627 70.4483 595.533 68.5125L599.609 66.8221ZM610.002 64.512C612.827 65.9058 617.658 69.5463 619.816 71.5751L617.354 74.9166C615.098 72.4006 610.747 68.8351 607.608 67.5459L610.002 64.512ZM591.997 77.9163C592.961 77.4559 593.831 76.946 594.779 76.3934C596.83 75.2028 601.457 71.9267 603.381 70.8735C606.137 69.3648 608.756 69.5194 610.82 73.2894C612.499 76.3574 614.415 80.7829 614.547 83.6167C614.685 85.9064 613.542 87.2754 611.592 88.3428C610.578 88.8979 609.271 89.4108 608.273 89.6867L605.822 86.5678C606.993 86.2987 608.617 85.7475 609.293 85.3774C610.177 84.8935 610.711 84.2635 610.631 83.192C610.562 81.3375 609.164 77.9805 607.769 75.4325C606.631 73.3525 605.576 73.5244 603.938 74.421C602.404 75.2607 598.219 78.2949 596.888 79.2597C596.191 79.7764 594.939 80.6985 594.23 81.2555L591.997 77.9163ZM607.57 61.1801C608.733 61.7603 610.554 62.9262 611.574 63.6178L609.978 65.6404C608.849 64.8733 607.203 63.7805 605.946 63.1507L607.57 61.1801ZM609.984 58.3047C611.201 58.9227 613.073 60.0601 614.04 60.7139L612.443 62.7365C611.326 61.9291 609.642 60.8908 608.399 60.2871L609.984 58.3047Z" fill="#7BADEF"/>
<path d="M618.59 55.2267L621.694 53.4302L626.074 60.9982C628.658 65.462 632.107 72.3696 631.823 78.1506C630.936 77.979 629.131 77.9963 628.158 78.1487C628.492 72.7498 625.316 66.848 622.97 62.7947L618.59 55.2267ZM620.514 54.1132L638.318 43.8093L642.817 51.5825L625.013 61.8864L623.395 59.0901L638.094 50.5827L636.832 48.4021L622.133 56.9095L620.514 54.1132ZM632.64 66.9585L645.826 59.3271L647.237 61.7642L634.051 69.3956L632.64 66.9585ZM635.253 71.4736L648.44 63.8422L650.013 66.5615L636.827 74.1929L635.253 71.4736ZM633.449 56.9355L636.425 55.2133L643.982 68.2712L641.006 69.9934L633.449 56.9355ZM628.557 63.1574L644.642 53.8482L651.947 66.47L648.919 68.222L643.174 58.2939L632.989 64.1882L638.735 74.1163L635.862 75.7791L628.557 63.1574Z" fill="#7BADEF"/>
<path d="M664.721 33.7142C664.13 34.7217 663.548 35.8224 663.152 36.6134C662.015 38.8029 659.662 43.1516 658.542 45.5277C657.646 47.3835 657.817 47.6967 659.845 48.3223C662.634 49.1294 669.571 50.887 673.524 52.3457L671.677 56.665C670.534 56.1338 669.349 55.6538 668.175 55.2008C665.793 54.2136 660.297 52.5633 656.879 51.5808C653.176 50.4655 652.745 48.906 654.458 45.4562C655.804 42.7855 658.212 38.1208 659.235 35.5279C659.685 34.421 660.156 33.1425 660.302 32.3L664.721 33.7142Z" fill="#7BADEF"/>
</svg>
