<svg width="162" height="135" viewBox="0 0 162 135" fill="none" xmlns="http://www.w3.org/2000/svg">
<path d="M27.7561 62.9404L38.2001 60.4101L38.7721 62.7712L28.3281 65.3014L27.7561 62.9404ZM32.3479 62.9314L34.8791 62.3181L37.1311 71.6135L34.5998 72.2267L32.3479 62.9314ZM25.245 58.617L28.442 58.428C28.4722 58.6458 28.3278 58.7934 27.9656 58.9713L28.9292 62.9489C29.6043 65.7354 30.2205 70.0449 28.2212 73.4117C27.7682 72.936 26.6158 72.2694 25.943 72.0946C27.5721 69.2453 27.028 65.9767 26.4251 63.488L25.245 58.617ZM33.8959 55.1925L36.4707 56.618C34.0386 58.1981 30.641 59.6968 27.6656 60.8004C27.4201 60.2519 26.8317 59.4036 26.4051 58.944C29.1788 57.8441 32.1832 56.3956 33.8959 55.1925ZM24.2815 66.2593L26.1779 74.0869L23.6892 74.6898L22.3649 69.2232L19.8762 69.8262L19.3042 67.4651L24.2815 66.2593ZM25.91 72.9808C27.1009 74.1786 28.8669 74.4038 31.0997 73.9529C33.6142 73.4564 38.4272 72.2228 41.242 71.2931C41.1098 71.9557 40.9833 73.2924 41.0624 74.084C38.5196 74.8351 34.2332 75.9186 31.6549 76.4307C29.0129 76.9581 27.0979 76.769 25.3134 75.4448C24.5784 76.5012 23.8171 77.5413 22.8952 78.7555L20.9961 76.4007C21.809 75.5732 22.7772 74.5505 23.5702 73.5477L25.91 72.9808ZM17.8265 61.1799L19.3486 59.1898C20.8413 59.774 22.7187 60.7378 23.7054 61.5572L22.0705 63.7323C21.1901 62.8872 19.3134 61.8331 17.8265 61.1799Z" fill="#7BADEF"/>
<path d="M53.9455 50.7601C53.4598 51.4728 52.976 52.2547 52.6453 52.8177C51.6983 54.374 49.748 57.4605 48.8048 59.1551C48.052 60.4776 48.1625 60.7169 49.6251 61.2788C51.6394 62.0124 56.6628 63.6529 59.502 64.9246L57.9258 68.0146C57.1102 67.5663 56.2611 67.1536 55.4194 66.7614C53.7136 65.9154 49.7467 64.4257 47.2779 63.5315C44.6053 62.5253 44.3652 61.3549 45.7998 58.8989C46.9243 56.9985 48.9305 53.682 49.8138 51.8228C50.2003 51.0297 50.6111 50.1114 50.7603 49.498L53.9455 50.7601Z" fill="#7BADEF"/>
<path d="M75.8691 46.4178C75.7372 48.6673 75.4999 51.2542 74.9371 53.8886C73.9717 58.3983 72.3062 61.2503 69.9279 61.4358C67.4841 61.6265 65.2673 59.0992 64.9796 55.4117C64.5882 50.3931 68.637 45.7307 74.2883 45.2898C79.6778 44.8694 83.3963 48.3552 83.769 53.1338C84.1264 57.7159 81.5653 61.1867 76.1331 62.4666L74.2739 60.0212C75.1164 59.8457 75.7188 59.6889 76.2977 59.5121C79.0161 58.6195 81.0432 56.4637 80.793 53.2562C80.5258 49.8304 78.1968 47.5534 74.422 47.8479C69.7962 48.2087 67.5595 52.181 67.774 54.9303C67.9459 57.1341 68.9021 58.1352 69.7312 58.0705C70.6695 57.9973 71.3897 56.5362 72.0764 53.519C72.5491 51.4186 72.8335 48.8718 72.8729 46.5637L75.8691 46.4178Z" fill="#7BADEF"/>
<path d="M97.9977 44.4976C97.8408 44.8925 97.5946 45.805 97.48 46.3405C97.0783 48.0257 96.6118 50.3439 96.2659 52.3497C95.8604 54.7006 95.3463 58.4541 95.1306 59.705C94.673 62.3579 93.5976 62.9275 92.1741 62.682C90.082 62.3212 87.4181 59.9961 87.8124 57.71C88.1733 55.6179 91.2487 53.883 94.4288 53.3432C96.4674 52.9841 98.7053 53.0147 100.344 53.2974C103.666 53.8703 106 56.0495 105.486 59.0259C105.044 61.5924 103.375 63.2813 99.8009 63.531C98.7716 63.5756 97.7899 63.4729 96.8907 63.4066L96.4038 60.4354C97.3527 60.5991 98.3017 60.7628 99.0611 60.7383C100.86 60.7376 102.415 60.0952 102.682 58.5423C102.939 57.0541 101.79 55.9898 99.9137 55.6662C98.0804 55.35 96.1155 55.4108 94.3179 55.7893C92.2503 56.1878 90.6691 57.1144 90.5092 58.0418C90.3901 58.732 91.3034 59.4891 91.8641 59.5858C92.2524 59.6528 92.5625 59.5286 92.6927 58.7738C92.8861 57.6522 93.2953 54.6357 93.7454 52.026C94.1695 49.5673 94.6523 46.8966 94.8234 45.9045C94.8978 45.4732 95.0191 44.3836 95.0214 43.9842L97.9977 44.4976ZM103.739 47.9086C105.241 48.9893 107.501 50.8227 108.524 51.8432L106.829 53.8162C105.942 52.7749 103.418 50.6738 102.192 49.7961L103.739 47.9086ZM90.2919 46.8109C91.5384 47.1813 92.4658 47.3413 93.2422 47.4752C95.4852 47.862 98.9205 48.0325 101.254 47.7687L100.857 50.4542C98.3231 50.5946 94.7838 50.384 92.8858 50.0566C91.4623 49.8111 90.6249 49.6445 89.9065 49.4317L90.2919 46.8109Z" fill="#7BADEF"/>
<path d="M122.773 58.1156L130.528 60.998L129.72 63.1726L121.965 60.2902L122.773 58.1156ZM114.898 65.859L124.54 69.443L123.732 71.6175L114.09 68.0336L114.898 65.859ZM122.321 55.7526L124.824 56.6829L121.995 64.2938L119.492 63.3635L122.321 55.7526ZM115.451 60.414L127.699 64.9664L124.778 72.8236L122.255 71.8856L124.367 66.2031L117.043 63.4808L114.923 69.1839L112.523 68.2917L115.451 60.414ZM123.356 50.3933L125.92 51.3465L124.532 55.0802L121.968 54.127L123.356 50.3933ZM116.309 50.5059L132.516 56.53L131.646 58.8687L115.44 52.8446L116.309 50.5059ZM115.099 50.056L117.56 50.971L115.631 56.1613C114.396 59.4847 112.197 64.4579 109.133 66.9848C108.834 66.4068 108.014 65.2846 107.51 64.8173C110.332 62.5037 112.064 58.2208 113.169 55.2462L115.099 50.056Z" fill="#7BADEF"/>
<path d="M146.6 64.1351C145.361 66.0172 143.862 68.1389 142.058 70.1388C138.967 73.5617 136.098 75.1988 133.946 74.1703C131.734 73.1134 131.078 69.8163 132.673 66.479C134.843 61.9371 140.681 59.9238 145.795 62.3678C150.673 64.6986 152.15 69.5766 150.084 73.9013C148.102 78.0482 144.149 79.7733 138.804 78.1655L138.417 75.1182C139.234 75.3875 139.834 75.553 140.424 75.6892C143.225 76.2755 146.058 75.4221 147.445 72.5192C148.927 69.4189 148.048 66.2824 144.632 64.6499C140.445 62.6495 136.522 64.9712 135.333 67.4593C134.38 69.4538 134.708 70.7989 135.458 71.1575C136.307 71.5632 137.662 70.658 139.765 68.3884C141.225 66.8058 142.744 64.7424 143.932 62.7633L146.6 64.1351Z" fill="#7BADEF"/>
</svg>
