<svg width="316" height="177" viewBox="0 0 316 177" fill="none" xmlns="http://www.w3.org/2000/svg">
<path d="M16.9339 79.6141C16.8827 80.036 16.8772 80.9812 16.9028 81.5281C16.9438 83.2601 17.0835 85.6206 17.2601 87.6483C17.4671 90.0249 17.9265 93.7856 18.0366 95.0502C18.2702 97.732 17.3754 98.5569 15.9363 98.6822C13.8214 98.8664 10.653 97.297 10.4517 94.9858C10.2675 92.8709 12.7992 90.4095 15.7369 89.0772C17.6166 88.2105 19.7884 87.6698 21.4455 87.5255C24.8033 87.233 27.6152 88.7456 27.8773 91.7545C28.1033 94.3492 26.9204 96.4074 23.5277 97.5597C22.5438 97.8651 21.5683 98.016 20.6819 98.181L19.4539 95.432C20.4133 95.3485 21.3726 95.2649 22.1007 95.0477C23.8402 94.5886 25.1795 93.5713 25.0428 92.0014C24.9118 90.497 23.5295 89.7606 21.6326 89.9258C19.7793 90.0872 17.8947 90.6468 16.2529 91.4708C14.3552 92.383 13.0623 93.682 13.1439 94.6195C13.2047 95.3172 14.2808 95.8167 14.8476 95.7673C15.2401 95.7331 15.5084 95.534 15.4419 94.7709C15.3432 93.6371 14.9702 90.6159 14.7404 87.9776C14.5239 85.492 14.3102 82.7865 14.2229 81.7835C14.1849 81.3475 14.0245 80.263 13.925 79.8762L16.9339 79.6141ZM23.3549 81.4495C25.0822 82.1119 27.7349 83.3089 28.9844 84.0349L27.8481 86.3747C26.7256 85.5937 23.7487 84.2053 22.3399 83.6689L23.3549 81.4495ZM10.0719 83.8147C11.3716 83.8553 12.3092 83.7736 13.0941 83.7053C15.3617 83.5078 18.7269 82.7973 20.9157 81.9476L21.2166 84.6455C18.8022 85.427 15.326 86.1252 13.4073 86.2923C11.9682 86.4176 11.116 86.4699 10.3671 86.4472L10.0719 83.8147Z" fill="#7BADEF"/>
<path d="M43.126 83.2109L43.0836 84.3263L48.7918 84.5431L48.8341 83.4277L43.126 83.2109ZM43.2331 80.3896L43.1916 81.4831L48.8997 81.6999L48.9413 80.6064L43.2331 80.3896ZM40.7659 78.4562L51.6573 78.8698L51.3683 86.4807L40.4769 86.0671L40.7659 78.4562ZM39.3468 86.9878L52.0535 87.4704L51.9721 89.6137L39.2654 89.1311L39.3468 86.9878ZM38.6494 90.3561L52.3621 90.8769L52.2774 93.1077L38.5647 92.5869L38.6494 90.3561ZM46.7769 89.1536L49.4232 89.2541L49.1632 96.0995C49.1176 97.3024 48.8748 97.9283 48.0077 98.2677C47.1844 98.6088 46.09 98.5891 44.581 98.5318C44.499 97.8059 44.1638 96.8295 43.8606 96.1609C44.7775 96.2396 45.8055 96.2786 46.0906 96.2675C46.4195 96.2581 46.5095 96.1958 46.5194 95.9334L46.7769 89.1536ZM39.9893 93.7142L41.8511 92.5584C42.7591 93.4471 43.8717 94.7158 44.4096 95.5466L42.3881 96.8716C41.9385 96.0222 40.8503 94.6887 39.9893 93.7142ZM37.4134 82.534L39.6732 83.5835C37.9745 86.2129 35.306 89.0027 32.9415 90.7088C32.7882 90.1335 32.1885 88.6214 31.819 87.9722C33.795 86.6894 36.0206 84.6056 37.4134 82.534ZM37.0056 77.7001L39.4606 78.8008C37.918 80.7791 35.6059 82.8377 33.4994 84.0937C33.2375 83.4924 32.6658 82.3975 32.271 81.835C34.0168 80.85 36.0314 79.1305 37.0056 77.7001ZM35.063 87.3289L37.5828 84.9935L37.6896 85.0632L37.1888 98.2511L34.6518 98.1547L35.063 87.3289Z" fill="#7BADEF"/>
<path d="M58.0493 82.9821C58.9489 83.2795 60.0975 83.5612 60.8691 83.7204C63.527 84.2689 66.5136 84.4158 68.7298 84.1804L68.2811 86.6801C66.3315 86.8141 63.13 86.7345 60.3908 86.147C59.5334 85.97 58.6376 85.7628 57.7247 85.5298L58.0493 82.9821ZM67.0508 81.4875C66.5377 82.566 65.5898 84.5604 64.6351 86.263C63.0123 89.1461 60.2605 92.7348 57.9166 94.8882L55.5973 93.0241C58.0129 91.0643 60.716 87.7113 62.0297 85.5689C62.8625 84.1318 63.7454 82.2356 64.1503 80.5985L67.0508 81.4875ZM70.7079 89.2144C70.4579 90.1014 70.2935 91.0061 70.1204 91.9536C69.9023 93.2271 69.4362 96.4607 69.1885 97.661C68.7772 99.6544 67.3826 100.998 64.3174 100.366C61.6595 99.8171 59.8066 98.1833 60.2932 95.8255C60.7222 93.7464 62.816 92.48 65.7954 93.0948C69.5464 93.8688 72.1152 96.3654 73.5625 98.3401L71.6702 100.363C70.4232 98.6086 68.4352 95.8966 65.1986 95.2287C63.9554 94.9722 63.0303 95.34 62.8755 96.0902C62.7119 96.8833 63.2828 97.5821 64.4617 97.8254C65.9192 98.1261 66.5589 97.4089 66.8065 96.2086C67.0719 94.9225 67.65 90.9299 68.0072 88.6572L70.7079 89.2144ZM74.1603 91.1112C73.1249 89.8473 70.9689 87.9498 69.627 86.9801L71.4537 85.167C72.8599 86.15 75.2 88.1301 76.151 89.1532L74.1603 91.1112Z" fill="#7BADEF"/>
<path d="M98.3817 96.4902C97.9906 96.7695 97.4674 97.181 97.0819 97.6069C95.7299 99.1565 93.3912 101.292 90.5738 102.681C87.6314 104.134 84.4078 104.883 79.9917 104.658L78.5893 101.498C83.2159 102.107 86.2149 101.377 88.864 100.199C90.9246 99.2595 93.1657 97.3923 94.1538 96.0621L87.4371 93.0148L89.3848 91.1586C90.2617 91.5565 94.4472 93.4554 95.065 93.7358C95.6829 94.0161 96.3967 94.2438 96.9075 94.2833L98.3817 96.4902ZM93.322 90.3734C92.5272 90.8539 91.593 91.5356 91.1839 91.8547C88.7344 93.6514 85.0877 95.3856 81.3315 96.0367L79.8498 93.3697C84.3052 92.8195 87.2256 91.0442 88.9799 89.7733C89.4958 89.4306 90.3304 88.7036 90.8262 88.0874L93.322 90.3734Z" fill="#7BADEF"/>
<path d="M101.676 102.823C102.415 103.161 103.867 103.779 104.937 104.166C107.366 105.044 114.158 107.5 115.99 108.162C116.957 108.512 117.9 108.737 118.471 108.897L117.295 112.148C116.808 111.949 115.796 111.467 114.931 111.154C113.058 110.477 106.287 108.028 103.858 107.15C102.706 106.733 101.304 106.296 100.5 106.075L101.676 102.823Z" fill="#7BADEF"/>
<path d="M139.496 106.477C139.397 107.126 139.837 107.724 140.486 107.824C141.135 107.923 141.755 107.486 141.855 106.837C141.954 106.188 141.496 105.565 140.847 105.466C140.198 105.366 139.596 105.828 139.496 106.477ZM138.177 106.275C138.388 104.89 139.664 103.934 141.048 104.146C142.433 104.358 143.386 105.655 143.174 107.039C142.963 108.424 141.669 109.355 140.284 109.143C138.9 108.932 137.965 107.66 138.177 106.275ZM135.323 104.953C135.212 105.246 134.92 106.286 134.838 106.827C134.642 108.104 134.361 109.943 134.169 111.197C133.901 112.95 132.915 119.397 132.638 121.214C132.446 122.469 131.591 123.135 130.055 122.9C128.908 122.725 127.638 122.487 126.577 122.191L126.727 119.469C127.609 119.781 128.551 119.992 129.092 120.074C129.655 120.16 129.879 119.995 129.987 119.436C130.134 118.617 131.18 111.781 131.335 110.764C131.451 110.007 131.805 107.692 132.007 106.372C132.093 105.81 132.127 104.863 132.121 104.463L135.323 104.953ZM124.193 106.794C124.829 106.979 125.576 107.16 126.247 107.263C127.567 107.464 138.059 109.069 139.617 109.307C140.223 109.4 141.163 109.477 141.757 109.501L141.324 112.336C140.663 112.168 139.823 112.018 139.238 111.928C137.681 111.69 127.274 110.099 125.847 109.88C125.198 109.781 124.372 109.677 123.756 109.649L124.193 106.794ZM128.813 113.5C127.527 115.252 125.082 117.778 123.718 118.876L121.601 116.936C123.263 115.773 125.357 113.658 126.526 111.955L128.813 113.5ZM138.283 113.686C139.175 115.24 140.489 118.23 141.113 119.942L138.366 120.961C137.721 118.958 136.585 116.106 135.73 114.602L138.283 113.686Z" fill="#7BADEF"/>
<path d="M149.781 107.029C151.298 108.047 154.159 110.304 155.459 111.63L153.242 113.922C152.096 112.704 149.322 110.337 147.717 109.254L149.781 107.029ZM147.123 121.624C150.556 121.119 153.371 119.983 155.486 118.721C159.213 116.463 162.035 113.117 163.416 110.153L165.122 113.206C163.501 116.193 160.611 119.233 157.102 121.38C154.879 122.731 152.064 123.954 149.003 124.5L147.123 121.624Z" fill="#7BADEF"/>
<path d="M177.237 105.175C177.176 105.755 177.131 106.467 177.09 107.023C176.993 108.027 176.898 109.406 176.796 110.543C176.456 113.694 175.481 120.099 173.652 124.051L170.667 123.272C172.824 119.478 173.747 113.543 174.018 110.731C174.19 108.725 174.202 106.849 173.979 105.223L177.237 105.175ZM184.999 106.424C186.556 108.15 188.879 111.966 189.806 113.947L187.205 115.568C186.344 113.226 184.33 109.593 182.528 107.853L184.999 106.424ZM168.988 110.711C169.775 110.658 170.511 110.545 171.312 110.425C173.045 110.167 177.113 109.181 178.72 108.983C181.023 108.7 182.778 109.52 183.166 112.67C183.481 115.233 183.589 118.792 182.907 120.772C182.377 122.381 181.22 123.009 179.59 123.209C178.743 123.314 177.706 123.309 176.946 123.226L176.115 120.418C176.992 120.553 178.257 120.617 178.822 120.548C179.56 120.457 180.098 120.17 180.336 119.413C180.794 118.122 180.75 115.437 180.488 113.308C180.274 111.57 179.503 111.401 178.135 111.569C176.853 111.727 173.154 112.668 171.978 112.967C171.359 113.131 170.248 113.423 169.61 113.611L168.988 110.711ZM184.238 103.474C184.878 104.189 185.809 105.486 186.321 106.239L184.674 107.191C184.108 106.357 183.277 105.158 182.586 104.383L184.238 103.474ZM186.678 102.159C187.345 102.915 188.32 104.206 188.804 104.919L187.158 105.871C186.611 105.012 185.739 103.841 185.051 103.088L186.678 102.159Z" fill="#7BADEF"/>
<path d="M195.779 108.675L207.459 106.366L207.931 108.749L196.251 111.059L195.779 108.675ZM196.688 113.27L208.368 110.96L208.839 113.344L197.159 115.653L196.688 113.27ZM197.601 117.886L209.281 115.576L209.752 117.96L198.072 120.269L197.601 117.886ZM193.093 104.343L208.702 101.256L212.124 118.561L209.376 119.105L206.442 104.269L196.201 106.294L199.143 121.173L196.524 121.691L193.093 104.343ZM198.635 100.325L201.812 100.031C201.581 101.571 201.238 103.112 200.953 104.15L198.506 104.187C198.637 103.046 198.705 101.471 198.635 100.325Z" fill="#7BADEF"/>
<path d="M216.811 111.067L226.757 108.714L227.186 110.524L217.239 112.878L216.811 111.067ZM213.923 101.045L224.572 98.5257L225.01 100.379L214.361 102.898L213.923 101.045ZM217.803 98.5303L220.103 97.9861L223.716 113.257L221.416 113.801L217.803 98.5303ZM217.016 114.595C219.612 113.778 223.609 112.518 227.362 111.27L227.842 113.203C224.312 114.443 220.526 115.743 217.818 116.654L217.016 114.595ZM218.113 107.161L218.345 108.14L223.968 106.81L223.736 105.83L218.113 107.161ZM217.534 104.711L217.761 105.67L223.383 104.34L223.157 103.381L217.534 104.711ZM215.111 103.598L224.887 101.285L226.454 107.909L216.679 110.222L215.111 103.598ZM222.372 95.3127L223.955 96.9625C221.359 98.1612 217.559 99.3978 214.379 100.218C214.173 99.7266 213.747 98.9727 213.397 98.5383C216.535 97.6384 220.15 96.3782 222.372 95.3127ZM224.849 99.6971L232.218 97.9536L232.772 100.296L225.403 102.04L224.849 99.6971ZM231.196 98.1955L233.645 97.616C233.645 97.616 233.82 98.4516 233.891 98.7498C235.775 107.57 236.341 110.72 235.864 111.845C235.567 112.68 235.133 113.03 234.46 113.324C233.83 113.608 232.829 113.845 231.818 114.039C231.588 113.351 231.064 112.373 230.498 111.787C231.434 111.656 232.244 111.464 232.67 111.363C232.989 111.288 233.187 111.174 233.308 110.83C233.647 110.075 233.107 107.032 231.327 98.7492L231.196 98.1955ZM225.84 94.7621L228.29 94.1826C230.42 103.282 232.016 110.124 228.014 115.164C227.505 114.632 226.468 113.955 225.792 113.665C229.475 109.173 227.83 103.265 225.84 94.7621Z" fill="#7BADEF"/>
<path d="M237.38 95.2852C238.204 95.0631 239.045 94.8145 239.439 94.6741C241.163 94.0764 244.601 92.9286 248.411 91.6456C250.582 90.9398 252.864 90.2294 254.359 89.7998L255.045 92.5387C253.896 92.8169 252.072 93.2811 250.985 93.8145C248.598 95.1133 247.332 98.3474 247.945 100.879C248.789 104.367 252.374 104.85 256.01 104.15L255.716 107.306C251.204 108.106 246.41 106.722 245.292 102.107C244.555 99.0647 245.691 96.2225 246.854 94.7926C244.927 95.4843 240.68 97.0083 238.362 98.1324L237.38 95.2852ZM252.508 95.3599C253.199 95.9808 254.279 97.0929 254.889 97.8459L253.464 98.9341C252.632 97.9194 251.98 97.1767 251.094 96.4005L252.508 95.3599ZM254.632 93.8096C255.366 94.4202 256.478 95.4795 257.125 96.2009L255.715 97.353C254.863 96.3434 254.178 95.6536 253.271 94.8825L254.632 93.8096Z" fill="#7BADEF"/>
<path d="M260.551 87.0388L263.074 86.2337L265.037 92.3846C266.195 96.0125 267.591 101.54 266.472 105.665C265.859 105.401 264.555 105.128 263.828 105.084C264.923 101.243 263.565 96.484 262.514 93.1896L260.551 87.0388ZM262.115 86.5398L276.585 81.9223L278.601 88.24L264.131 92.8574L263.406 90.5847L275.353 86.7724L274.787 85.0001L262.84 88.8125L262.115 86.5398ZM268.83 97.7214L279.548 94.3016L280.18 96.2824L269.463 99.7022L268.83 97.7214ZM270.001 101.391L280.719 97.9713L281.424 100.181L270.707 103.601L270.001 101.391ZM270.998 90.6201L273.417 89.8483L276.803 100.461L274.385 101.233L270.998 90.6201ZM266.486 94.3343L279.559 90.1627L282.833 100.421L280.372 101.206L277.797 93.137L269.52 95.7784L272.095 103.848L269.76 104.593L266.486 94.3343Z" fill="#7BADEF"/>
<path d="M293.4 75.3726C293.048 76.1602 292.711 77.0154 292.485 77.6282C291.829 79.3277 290.457 82.711 289.829 84.546C289.322 85.981 289.474 86.1969 291.013 86.4906C293.125 86.8556 298.36 87.5797 301.379 88.3279L300.376 91.6484C299.494 91.3518 298.585 91.0961 297.687 90.8593C295.858 90.3291 291.69 89.5661 289.102 89.1238C286.293 88.6072 285.849 87.4979 286.826 84.8265C287.596 82.7568 288.982 79.1373 289.522 77.1509C289.762 76.3019 290.003 75.3253 290.042 74.6951L293.4 75.3726Z" fill="#7BADEF"/>
</svg>
