<svg width="611" height="146" viewBox="0 0 611 146" fill="none" xmlns="http://www.w3.org/2000/svg">
<path d="M24.2349 79.1642L35.6303 70.78L37.5257 73.3561L26.1303 81.7403L24.2349 79.1642ZM29.8061 76.8179L32.5679 74.7859L40.0301 84.928L37.2682 86.96L29.8061 76.8179ZM18.9867 75.1914L22.7727 73.3359C22.9203 73.5851 22.82 73.8377 22.4705 74.2379L25.6637 78.5779C27.9006 81.6183 30.8407 86.538 30.1253 91.6431C29.3332 91.2959 27.5949 91.0724 26.6889 91.2024C27.2181 86.9139 24.8949 83.2216 22.8971 80.5062L18.9867 75.1914ZM27.75 66.6332L31.6016 67.0547C29.4519 70.2103 26.0883 73.7583 23.0366 76.6117C22.4595 76.0705 21.3136 75.3396 20.5618 74.9984C23.3705 72.2522 26.2821 68.9653 27.75 66.6332ZM21.7036 84.9615L27.9875 93.5022L25.2721 95.5001L20.8836 89.5355L18.1682 91.5334L16.2728 88.9572L21.7036 84.9615ZM27.0995 92.2954C29.1549 93.1441 31.4139 92.5194 33.8959 90.8364C36.6967 88.9545 41.9138 85.0087 44.8591 82.4482C45.0355 83.32 45.5618 85.0076 46.0604 85.9285C43.3547 88.1339 38.7007 91.6297 35.8303 93.5627C32.8903 95.547 30.4688 96.2912 27.6283 95.5909C27.2731 97.2474 26.8776 98.8977 26.3756 100.841L22.8719 98.9474C23.4381 97.5291 24.0937 95.7947 24.5466 94.1737L27.0995 92.2954ZM11.2819 82.0766L12.118 78.8858C14.2277 78.836 16.9977 79.0516 18.6125 79.5448L17.7335 83.0175C16.2347 82.439 13.4196 82.1135 11.2819 82.0766Z" fill="#7BADEF"/>
<path d="M49.7988 51.089C49.5715 52.2015 49.3817 53.3971 49.2665 54.2489C48.908 56.6204 48.1096 61.3602 47.8261 63.8978C47.5846 65.8865 47.8404 66.1209 49.9022 66.0594C52.7213 65.9258 59.6557 65.363 63.7502 65.4632L63.4076 70.017C62.1893 69.8875 60.9483 69.8182 59.7268 69.7701C57.2251 69.6103 51.6504 69.8189 48.1978 69.9887C44.4406 70.1261 43.5539 68.827 44.0467 65.115C44.4457 62.2354 45.1951 57.1878 45.3221 54.4809C45.3882 53.3213 45.42 51.9972 45.2892 51.1764L49.7988 51.089Z" fill="#7BADEF"/>
<path d="M74.3238 34.5894C75.3077 37.388 76.3353 40.6501 76.9916 44.1352C78.113 50.1024 77.5411 54.4127 74.7474 55.8476C71.8768 57.322 67.8996 55.3805 65.6748 51.049C62.647 45.154 65.1923 37.4331 71.8306 34.0236C78.1613 30.7721 84.4495 33.1137 87.3325 38.7268C90.097 44.1092 88.7521 49.6263 82.8066 53.9433L79.3053 51.9194C80.2391 51.2778 80.8909 50.7811 81.5039 50.2719C84.3509 47.8055 85.716 44.1567 83.7809 40.389C81.7141 36.365 77.728 34.7845 73.2939 37.0619C67.8602 39.8527 67.1645 45.8138 68.8232 49.0432C70.1527 51.6319 71.823 52.3613 72.797 51.861C73.8991 51.295 74.0305 49.1544 73.3299 45.1414C72.8357 42.3503 71.8857 39.1132 70.7598 36.2904L74.3238 34.5894Z" fill="#7BADEF"/>
<path d="M100.334 20.9608C100.344 21.5201 100.509 22.7535 100.642 23.462C101.012 25.7127 101.624 28.7649 102.224 31.3765C102.928 34.4374 104.212 39.2569 104.587 40.8856C105.38 44.3397 104.364 45.5783 102.511 46.0042C99.7866 46.63 95.3694 45.1615 94.6855 42.1849C94.0596 39.4609 96.9117 35.7901 100.499 33.5172C102.792 32.0444 105.525 30.9434 107.659 30.453C111.984 29.4594 115.926 30.9188 116.816 34.7941C117.584 38.1358 116.417 41.0351 112.204 43.1562C110.976 43.7338 109.732 44.1084 108.607 44.4853L106.504 41.125C107.74 40.8411 108.975 40.5572 109.885 40.1413C112.069 39.2255 113.63 37.6548 113.166 35.6329C112.72 33.6952 110.784 32.9872 108.341 33.5485C105.954 34.0969 103.599 35.1702 101.608 36.544C99.3003 38.0794 97.8514 40.0088 98.1289 41.2163C98.3354 42.1149 99.8294 42.5699 100.56 42.4021C101.065 42.286 101.378 41.9775 101.153 40.9946C100.817 39.5344 99.7799 35.6632 98.9992 32.2653C98.2636 29.064 97.4917 25.5754 97.1949 24.2837C97.0658 23.722 96.659 22.3373 96.4586 21.8512L100.334 20.9608ZM109.04 22.1829C111.413 22.7315 115.09 23.8084 116.852 24.5271L115.797 27.785C114.191 26.9714 110.056 25.7041 108.122 25.2617L109.04 22.1829ZM92.1531 27.6889C93.8551 27.5048 95.0626 27.2274 96.0736 26.9951C98.9941 26.3241 103.252 24.784 105.951 23.277L106.835 26.7398C103.83 28.199 99.4249 29.7433 96.9537 30.311C95.1003 30.7369 93.9986 30.9604 93.018 31.0675L92.1531 27.6889Z" fill="#7BADEF"/>
<path d="M137.436 24.8843L148.319 24.4405L148.443 27.4922L137.561 27.936L137.436 24.8843ZM131.812 38.2923L145.343 37.7406L145.467 40.7923L131.936 41.344L131.812 38.2923ZM135.685 22.245L139.197 22.1018L139.633 32.7827L136.12 32.9259L135.685 22.245ZM129.714 31.3992L146.901 30.6984L147.351 41.7248L143.81 41.8692L143.485 33.8945L133.207 34.3136L133.533 42.3171L130.165 42.4544L129.714 31.3992ZM134.216 15.2109L137.814 15.0641L138.028 20.3038L134.429 20.4506L134.216 15.2109ZM125.716 18.9314L148.46 18.004L148.594 21.286L125.85 22.2134L125.716 18.9314ZM124.018 19.0007L127.472 18.8598L127.769 26.1436C127.96 30.8075 127.819 37.9649 125.383 42.5917C124.726 42.0417 123.159 41.0963 122.31 40.7849C124.56 36.5406 124.485 30.4589 124.315 26.2845L124.018 19.0007Z" fill="#7BADEF"/>
<path d="M169.475 20.0759C168.928 22.9915 168.187 26.3303 167.012 29.6767C165 35.4051 162.349 38.8519 159.212 38.6977C155.989 38.5392 153.516 34.8692 153.755 30.0056C154.08 23.3865 160.145 17.9727 167.599 18.3393C174.707 18.6888 178.982 23.8609 178.672 30.1635C178.375 36.207 174.451 40.3125 167.144 41.0782L165.124 37.5748C166.253 37.4861 167.066 37.3818 167.852 37.2474C171.55 36.5349 174.557 34.0576 174.765 29.8271C174.987 25.3089 172.325 21.947 167.347 21.7021C161.246 21.4021 157.663 26.2167 157.484 29.8428C157.341 32.7494 158.423 34.2162 159.517 34.27C160.754 34.3308 161.938 32.5428 163.338 28.7171C164.306 26.0529 165.102 22.7745 165.538 19.7669L169.475 20.0759Z" fill="#7BADEF"/>
<path d="M197.517 19.0561C197.322 19.5803 197.023 20.7883 196.888 21.4963C196.406 23.7258 195.858 26.7901 195.459 29.44C194.992 32.5456 194.421 37.5006 194.172 39.1532C193.644 42.6578 192.245 43.4378 190.364 43.1548C187.601 42.7389 184.029 39.7537 184.483 36.7335C184.899 33.9697 188.898 31.5995 193.069 30.7994C195.742 30.2693 198.688 30.2465 200.854 30.5724C205.242 31.2328 208.375 34.0354 207.783 37.9673C207.273 41.358 205.125 43.6279 200.427 44.0573C199.073 44.145 197.778 44.0375 196.593 43.9757L195.868 40.0787C197.122 40.2673 198.376 40.456 199.374 40.4024C201.742 40.3508 203.77 39.4613 204.079 37.4099C204.375 35.4439 202.833 34.0754 200.354 33.7023C197.932 33.3378 195.347 33.4733 192.992 34.0221C190.282 34.6049 188.227 35.8691 188.042 37.0943C187.905 38.006 189.128 38.9769 189.869 39.0884C190.382 39.1656 190.787 38.9934 190.937 37.9961C191.16 36.5145 191.614 32.5326 192.132 29.085C192.621 25.8368 193.181 22.308 193.379 20.9974C193.464 20.4275 193.593 18.99 193.585 18.4643L197.517 19.0561ZM205.17 23.3839C207.177 24.764 210.203 27.1135 211.579 28.4278L209.403 31.0724C208.207 29.7269 204.825 27.0325 203.187 25.9118L205.17 23.3839ZM187.44 22.318C189.091 22.7705 190.316 22.9549 191.342 23.1093C194.305 23.5552 198.831 23.6828 201.895 23.2697L201.448 26.8157C198.117 27.0719 193.453 26.8944 190.945 26.517C189.065 26.234 187.958 26.0383 187.006 25.7785L187.44 22.318Z" fill="#7BADEF"/>
<path d="M229.993 31.7439L229.595 33.1585L236.834 35.1949L237.232 33.7803L229.993 31.7439ZM230.999 28.1658L230.609 29.5527L237.848 31.5891L238.239 30.2023L230.999 28.1658ZM228.437 24.9308L242.25 28.8165L239.535 38.4689L225.722 34.5833L228.437 24.9308ZM223.992 35.4136L240.107 39.9468L239.342 42.6651L223.227 38.1318L223.992 35.4136ZM222.061 39.51L239.452 44.4021L238.656 47.2313L221.265 42.3391L222.061 39.51ZM232.835 40.4752L236.191 41.4193L233.748 50.101C233.319 51.6265 232.816 52.3529 231.601 52.5201C230.442 52.7029 229.048 52.3406 227.134 51.8022C227.253 50.8479 227.125 49.4948 226.943 48.5456C228.092 48.9288 229.396 49.2955 229.764 49.3692C230.188 49.4585 230.322 49.4065 230.416 49.0737L232.835 40.4752ZM222.741 44.221L225.48 43.3153C226.369 44.7326 227.402 46.6994 227.834 47.9285L224.839 49.0015C224.525 47.7758 223.543 45.7336 222.741 44.221ZM222.889 29.1172L225.459 31.1569C222.474 33.9989 218.199 36.7473 214.647 38.2025C214.628 37.4189 214.326 35.2987 214.053 34.3539C216.978 33.3208 220.468 31.3395 222.889 29.1172ZM223.857 22.8044L226.66 24.9698C224.076 27.0265 220.482 28.9489 217.399 29.9074C217.249 29.0571 216.855 27.4795 216.523 26.6378C219.061 25.9151 222.169 24.335 223.857 22.8044ZM218.404 34.5301L222.348 32.3173L222.464 32.4396L217.759 49.165L214.541 48.2599L218.404 34.5301Z" fill="#7BADEF"/>
<path d="M249.242 36.0782C250.301 36.7361 251.685 37.4506 252.623 37.8922C255.856 39.4132 259.634 40.5216 262.543 40.9032L261.198 43.9643C258.662 43.5352 254.588 42.4467 251.263 40.8506C250.221 40.3599 249.138 39.8187 248.041 39.2391L249.242 36.0782ZM261.224 36.939C260.235 38.1613 258.407 40.422 256.66 42.307C253.695 45.4971 249.067 49.2426 245.403 51.2765L243.009 48.1758C246.705 46.4118 251.198 42.9531 253.539 40.6157C255.048 39.0329 256.763 36.8781 257.785 34.9073L261.224 36.939ZM263.524 47.956C262.93 49.0143 262.441 50.1216 261.927 51.281C261.256 52.8438 259.663 56.839 258.976 58.299C257.835 60.7237 255.636 62.0137 251.908 60.2596C248.675 58.7386 246.807 56.0765 248.156 53.2085C249.346 50.6795 252.416 49.7039 256.04 51.4089C260.603 53.5555 263.121 57.5425 264.365 60.5161L261.32 62.5223C260.264 59.8923 258.556 55.8085 254.619 53.9563C253.106 53.2449 251.809 53.4306 251.38 54.3431C250.926 55.3077 251.441 56.3781 252.875 57.0528C254.648 57.8869 255.688 57.166 256.375 55.706C257.111 54.1416 259.081 49.2094 260.239 46.4105L263.524 47.956ZM267.358 51.4477C266.422 49.5108 264.247 46.4178 262.829 44.7632L265.725 43.0054C267.222 44.6968 269.607 47.9524 270.509 49.5549L267.358 51.4477Z" fill="#7BADEF"/>
<path d="M296.796 65.854C296.21 66.0908 295.413 66.4564 294.788 66.8827C292.58 68.4496 288.929 70.462 284.895 71.3722C280.681 72.3252 276.324 72.2899 270.741 70.6409L269.92 66.1645C275.654 68.3696 279.718 68.3591 283.471 67.6684C286.398 67.1006 289.842 65.4013 291.517 64.0031L283.859 58.033L286.924 56.2574C287.923 57.0369 292.695 60.7571 293.4 61.3063C294.104 61.8555 294.948 62.367 295.589 62.5749L296.796 65.854ZM292.205 56.4656C291.04 56.8357 289.634 57.4204 289.012 57.7027C285.323 59.2476 280.121 60.3435 275.113 60.0194L274.038 56.1492C279.91 56.818 284.195 55.4456 286.832 54.3594C287.598 54.0798 288.89 53.4065 289.715 52.7706L292.205 56.4656Z" fill="#7BADEF"/>
<path d="M299.029 74.9523C299.871 75.6116 301.54 76.8503 302.79 77.6755C305.628 79.5479 313.565 84.7845 315.705 86.1968C316.836 86.9426 317.973 87.5205 318.654 87.9009L316.147 91.7008C315.586 91.2959 314.438 90.3664 313.428 89.6999C311.24 88.2559 303.327 83.0352 300.489 81.1627C299.142 80.2741 297.484 79.2831 296.522 78.7522L299.029 74.9523Z" fill="#7BADEF"/>
<path d="M346.227 91.2377C345.9 92.0378 346.279 92.9396 347.079 93.2666C347.879 93.5937 348.807 93.2261 349.134 92.4259C349.461 91.6258 349.067 90.6864 348.267 90.3594C347.467 90.0324 346.554 90.4375 346.227 91.2377ZM344.6 90.5727C345.298 88.8657 347.225 88.0348 348.932 88.7324C350.639 89.4301 351.459 91.3839 350.761 93.0909C350.064 94.7979 348.121 95.5913 346.414 94.8936C344.707 94.1959 343.903 92.2797 344.6 90.5727ZM341.356 88.0015C341.123 88.3422 340.429 89.5837 340.156 90.2505C339.513 91.8241 338.586 94.0912 337.954 95.6382C337.071 97.7986 333.823 105.747 332.907 107.987C332.275 109.534 330.975 110.124 329.082 109.35C327.668 108.772 326.116 108.075 324.848 107.37L325.88 103.932C326.913 104.603 328.054 105.163 328.72 105.436C329.414 105.719 329.752 105.577 330.062 104.895C330.503 103.892 333.948 95.4637 334.46 94.2101C334.842 93.2766 336.008 90.4227 336.673 88.7958C336.957 88.1023 337.292 86.9009 337.408 86.3881L341.356 88.0015ZM326.542 86.9274C327.299 87.3611 328.2 87.8227 329.026 88.1606C330.653 88.8256 343.589 94.1126 345.51 94.8975C346.256 95.2028 347.436 95.5915 348.189 95.8058L346.761 99.2998C345.967 98.8819 344.937 98.43 344.217 98.1357C342.297 97.3508 329.468 92.1074 327.707 91.3879C326.907 91.0608 325.883 90.6733 325.103 90.4481L326.542 86.9274ZM330.389 96.9352C328.203 98.7809 324.295 101.261 322.211 102.246L320.1 99.1108C322.584 98.1342 325.917 96.0724 327.937 94.2522L330.389 96.9352ZM342.453 100.092C343.115 102.355 343.876 106.587 344.147 108.97L340.318 109.429C340.108 106.666 339.533 102.665 338.902 100.477L342.453 100.092Z" fill="#7BADEF"/>
<path d="M359.145 95.0901C360.773 96.8609 363.739 100.631 364.995 102.729L361.452 104.979C360.36 103.067 357.538 99.1827 355.818 97.3015L359.145 95.0901ZM351.246 112.951C355.795 113.363 359.749 112.777 362.844 111.813C368.31 110.072 372.954 106.659 375.634 103.29L376.877 107.723C373.882 111.048 369.246 114.048 364.093 115.715C360.831 116.758 356.851 117.456 352.766 117.212L351.246 112.951Z" fill="#7BADEF"/>
<path d="M394.802 101.167C394.545 101.892 394.269 102.788 394.044 103.488C393.61 104.743 393.064 106.479 392.583 107.903C391.177 111.831 387.955 119.729 384.397 124.223L380.816 122.307C384.746 118.115 387.756 110.803 388.97 107.287C389.808 104.773 390.401 102.376 390.617 100.225L394.802 101.167ZM404.351 105.158C405.813 107.848 407.61 113.447 408.187 116.268L404.358 117.542C403.977 114.279 402.52 109.009 400.749 106.225L404.351 105.158ZM382.538 105.712C383.562 105.887 384.538 105.969 385.601 106.061C387.897 106.266 393.409 106.257 395.527 106.499C398.561 106.846 400.555 108.436 400.081 112.587C399.695 115.965 398.736 120.554 397.252 122.879C396.079 124.775 394.404 125.221 392.257 124.976C391.14 124.849 389.814 124.523 388.867 124.183L388.669 120.332C389.75 120.775 391.349 121.247 392.093 121.332C393.066 121.443 393.843 121.242 394.381 120.347C395.365 118.835 396.136 115.385 396.457 112.579C396.718 110.289 395.784 109.835 393.981 109.629C392.292 109.436 387.267 109.5 385.67 109.52C384.826 109.54 383.315 109.571 382.44 109.616L382.538 105.712ZM404.287 101.148C404.885 102.261 405.678 104.207 406.101 105.329L403.7 106.04C403.232 104.798 402.538 103.008 401.892 101.803L404.287 101.148ZM407.816 100.217C408.436 101.39 409.286 103.343 409.687 104.404L407.285 105.116C406.85 103.848 406.095 102.08 405.446 100.904L407.816 100.217Z" fill="#7BADEF"/>
<path d="M417.421 111.359L433.082 112.002L432.951 115.198L417.29 114.555L417.421 111.359ZM417.168 117.52L432.83 118.163L432.698 121.359L417.037 120.716L417.168 117.52ZM416.914 123.71L432.575 124.353L432.444 127.548L416.783 126.906L416.914 123.71ZM415.318 104.986L436.248 105.846L435.295 129.05L431.61 128.898L432.427 109.005L418.694 108.441L417.875 128.392L414.363 128.248L415.318 104.986ZM423.649 101.551L427.806 102.154C427.036 104.054 426.123 105.92 425.437 107.161L422.294 106.455C422.814 105.035 423.386 103.039 423.649 101.551Z" fill="#7BADEF"/>
<path d="M443.584 120.901L457.04 120.954L457.031 123.403L443.575 123.35L443.584 120.901ZM442.976 107.183L457.382 107.24L457.372 109.747L442.966 109.69L442.976 107.183ZM448.718 105.16L451.829 105.172L451.748 125.831L448.636 125.819L448.718 105.16ZM442.76 125.479C446.334 125.234 451.838 124.852 457.027 124.412L457.045 127.034C452.145 127.533 446.899 128.031 443.152 128.362L442.76 125.479ZM446.455 116.302L446.45 117.628L454.057 117.657L454.062 116.332L446.455 116.302ZM446.468 112.989L446.463 114.285L454.07 114.315L454.075 113.019L446.468 112.989ZM443.711 110.817L456.936 110.869L456.901 119.83L443.675 119.778L443.711 110.817ZM455.557 102.45L457.074 105.049C453.383 105.784 448.137 106.195 443.815 106.265C443.702 105.573 443.39 104.476 443.075 103.813C447.369 103.628 452.385 103.129 455.557 102.45ZM457.376 108.825L467.345 108.864L467.333 112.033L457.364 111.994L457.376 108.825ZM465.962 108.858L469.276 108.871C469.276 108.871 469.243 109.995 469.241 110.398C468.935 122.268 468.688 126.474 467.732 127.767C467.094 128.744 466.43 129.059 465.479 129.228C464.585 129.397 463.231 129.392 461.877 129.329C461.794 128.378 461.425 126.964 460.881 126.04C462.12 126.16 463.215 126.165 463.791 126.167C464.223 126.169 464.512 126.083 464.773 125.681C465.439 124.819 465.685 120.757 465.959 109.608L465.962 108.858ZM460.166 102.814L463.479 102.827C463.402 115.13 463.337 124.379 456.661 129.597C456.174 128.759 455.055 127.573 454.279 126.994C460.377 122.379 460.092 114.31 460.166 102.814Z" fill="#7BADEF"/>
<path d="M474.772 107.04C475.896 107.009 477.048 106.95 477.596 106.892C479.987 106.658 484.74 106.248 490.013 105.78C493.009 105.546 496.149 105.34 498.195 105.251L498.229 108.968C496.673 108.97 494.195 109.002 492.64 109.35C489.183 110.276 486.566 114.026 486.571 117.454C486.577 122.18 491.017 123.903 495.886 124.127L494.537 128.076C488.515 127.709 482.805 124.461 482.797 118.209C482.792 114.088 485.121 110.8 487.05 109.328C484.37 109.62 478.464 110.262 475.152 110.986L474.772 107.04ZM494.112 111.797C494.805 112.804 495.845 114.561 496.394 115.712L494.234 116.666C493.483 115.111 492.876 113.96 491.981 112.693L494.112 111.797ZM497.309 110.467C498.059 111.475 499.156 113.173 499.763 114.296L497.603 115.336C496.823 113.781 496.159 112.687 495.236 111.421L497.309 110.467Z" fill="#7BADEF"/>
<path d="M506.937 103.626L510.414 103.373L511.031 111.85C511.395 116.851 511.479 124.356 508.775 129.291C508.073 128.764 506.487 128.013 505.571 127.733C508.155 123.153 507.884 116.644 507.554 112.103L506.937 103.626ZM509.092 103.469L529.036 102.018L529.67 110.725L509.726 112.177L509.498 109.044L525.964 107.846L525.787 105.403L509.32 106.601L509.092 103.469ZM514.242 119.85L529.013 118.776L529.212 121.506L514.441 122.58L514.242 119.85ZM514.61 124.908L529.381 123.833L529.603 126.88L514.832 127.954L514.61 124.908ZM519.205 111.429L522.538 111.187L523.603 125.814L520.269 126.056L519.205 111.429ZM512.285 114.793L530.303 113.482L531.332 127.621L527.941 127.867L527.132 116.746L515.723 117.576L516.532 128.697L513.314 128.931L512.285 114.793Z" fill="#7BADEF"/>
<path d="M552.47 98.8359C551.777 99.7355 551.082 100.726 550.604 101.441C549.24 103.414 546.441 107.322 545.072 109.477C543.982 111.157 544.109 111.48 545.988 112.331C548.58 113.449 555.057 115.989 558.691 117.877L556.383 121.818C555.346 121.166 554.261 120.559 553.185 119.979C551.007 118.737 545.908 116.476 542.731 115.112C539.295 113.586 539.069 112.029 541.142 108.911C542.765 106.499 545.656 102.293 546.958 99.9171C547.527 98.9043 548.137 97.7287 548.38 96.9339L552.47 98.8359Z" fill="#7BADEF"/>
</svg>
