<svg width="256" height="98" viewBox="0 0 256 98" fill="none" xmlns="http://www.w3.org/2000/svg">
<path d="M14.8336 46.2602L20.3902 49.2408L19.676 50.5723L14.1194 47.5916L14.8336 46.2602ZM13.6719 48.426L19.2462 51.4162L18.5319 52.7476L12.9576 49.7575L13.6719 48.426ZM15.4701 39.7891L23.6008 44.1505L22.7151 45.8015L14.5845 41.4401L15.4701 39.7891ZM12.3559 50.6234L18.2675 53.7945L17.4486 55.3212L11.537 52.1502L12.3559 50.6234ZM17.7664 45.8217L19.5594 46.7835L16.0836 53.2631L14.2906 52.3013L17.7664 45.8217ZM16.9934 44.4926L21.8754 47.1113L21.1231 48.5138L16.2411 45.895L12.1749 53.4754L10.3109 52.4755L14.3105 45.0194L16.5674 44.264L16.9934 44.4926ZM19.5361 44.142L21.282 45.49C20.5296 45.9551 19.7867 46.4024 19.2646 46.6939L17.9721 45.5662C18.5063 45.1669 19.1452 44.5724 19.5361 44.142ZM19.4719 36.3349L21.1156 37.7881C19.7983 39.0932 18.1259 40.2079 16.7132 40.7532C16.5474 40.2527 16.071 39.2656 15.77 38.7612C17.0437 38.3472 18.4135 37.4131 19.4719 36.3349ZM19.9876 39.7206L21.5685 41.163C19.0183 43.6584 15.8887 45.6145 12.9931 46.3245C12.9814 45.7924 12.8171 44.607 12.6716 44.026C15.1922 43.5035 17.8612 41.8947 19.9876 39.7206ZM19.2578 38.1404L24.9919 41.2162L24.1063 42.8672L17.5556 39.3533L19.2578 38.1404ZM25.3372 46.4537L24.6992 47.6431L27.9657 49.3953L28.6037 48.2058L25.3372 46.4537ZM23.8041 49.3118L23.166 50.5012L26.4325 52.2534L27.0705 51.064L23.8041 49.3118ZM26.8609 43.6132L26.2324 44.7849L29.4988 46.5371L30.1273 45.3654L26.8609 43.6132ZM25.9967 40.7493L33.0977 44.5584L27.4031 55.1745L20.3021 51.3654L25.9967 40.7493ZM24.5668 51.9385L26.4309 52.9384L24.2025 57.0925C23.9549 57.554 23.9346 57.6345 24.1476 57.7488C24.2187 57.7869 24.5382 57.9583 24.627 58.0059C24.8755 58.1393 25.0621 57.9193 26.1057 56.1016C26.2893 56.6116 26.9358 57.3242 27.3567 57.7328C25.8651 60.0874 25.0702 60.4612 23.934 59.8517C23.6322 59.6898 23.1529 59.4327 22.8866 59.2899C21.4309 58.509 21.4243 57.7968 22.329 56.1103L24.5668 51.9385ZM21.7945 51.1829L23.5698 52.1352C21.8998 54.737 20.1166 56.5695 16.7421 56.3825C16.7672 55.8244 16.6428 54.8204 16.4154 54.2641C19.2102 54.5516 20.4946 53.1374 21.7945 51.1829Z" fill="#FAF7D5"/>
<path d="M40.8427 56.2981L43.1432 57.1041L40.9784 63.283C40.7386 63.9675 40.8003 64.0959 41.4277 64.3157C41.7129 64.4156 42.8346 64.8086 43.1768 64.9285C43.8043 65.1483 44.0459 64.7633 45.0535 62.192C45.3956 62.7387 46.2633 63.491 46.7994 63.8496C45.4056 67.0968 44.5155 67.8096 42.6143 67.1435C42.196 66.9969 40.7321 66.484 40.3328 66.3442C38.1844 65.5915 37.9052 64.6825 38.6779 62.4771L40.8427 56.2981ZM35.6761 54.5947L38.1097 55.4473C36.3467 59.5044 34.4415 62.4444 28.7087 62.357C28.668 61.681 28.348 60.5229 28.0202 59.8744C33.018 60.1099 34.2766 57.7972 35.6761 54.5947ZM34.8925 46.23L37.2123 46.1889C37.5872 47.9212 37.8527 50.1488 37.7297 51.5359L35.1922 51.6501C35.3656 50.3021 35.2028 48.0251 34.8925 46.23ZM47.5131 49.6271L49.6536 51.3162C48.2243 52.7152 46.5962 54.1941 45.3847 55.0931L43.6548 53.6332C44.874 52.6514 46.505 50.9815 47.5131 49.6271ZM31.6319 51.1499L48.819 57.1715L48.0663 59.3198L30.8792 53.2983L31.6319 51.1499ZM41.4152 46.7435L43.7347 47.5562L40.9837 55.4083L38.6642 54.5956L41.4152 46.7435Z" fill="#FAF7D5"/>
<path d="M65.7805 56.5739C65.5786 56.7591 65.1031 57.2794 64.8414 57.658C63.6517 59.3696 61.6464 61.7586 59.5483 63.3888C56.8207 65.4876 53.3432 67.3315 49.9907 68.1526L48.3696 65.604C51.8082 65.0677 55.337 63.2752 57.6091 61.598C59.2123 60.3814 60.8129 58.6708 61.5511 57.3611C60.7219 57.193 55.6872 56.1725 54.8382 56.0004C54.0287 55.8364 52.9228 55.715 52.4804 55.6664L53.0526 52.8431C53.5697 53.0301 54.7818 53.3374 55.3544 53.4535C56.4008 53.6656 61.4553 54.69 62.324 54.8661C63.1927 55.0422 63.9828 55.0995 64.4254 55.0454L65.7805 56.5739ZM60.1371 61.8021C61.8346 63.8728 64.0419 67.3829 65.0051 69.2225L62.3581 70.7209C61.3093 68.3912 59.6334 65.6055 57.909 63.2621L60.1371 61.8021Z" fill="#FAF7D5"/>
<path d="M83.2263 56.8628C83.1739 57.4649 83.6137 57.9885 84.2157 58.0409C84.8178 58.0933 85.3615 57.6553 85.4139 57.0532C85.4663 56.4512 85.0083 55.9057 84.4062 55.8533C83.8041 55.8009 83.2788 56.2607 83.2263 56.8628ZM82.0021 56.7562C82.1139 55.4717 83.2284 54.5172 84.5128 54.6291C85.7972 54.7409 86.75 55.8754 86.6382 57.1598C86.5263 58.4443 85.3936 59.377 84.1091 59.2651C82.8247 59.1533 81.8903 58.0406 82.0021 56.7562ZM79.3024 55.7123C79.2178 55.988 79.0117 56.9609 78.968 57.4626C78.8649 58.6467 78.7164 60.3526 78.6151 61.5167C78.4735 63.1423 77.9528 69.123 77.806 70.8088C77.7047 71.9728 76.9594 72.6359 75.5345 72.5119C74.4708 72.4193 73.2902 72.276 72.2972 72.0682L72.273 69.5587C73.102 69.7926 73.9798 69.9297 74.4815 69.9734C75.0033 70.0188 75.1997 69.8539 75.2652 69.3339C75.3517 68.573 75.9038 62.231 75.986 61.2878C76.0471 60.5853 76.2341 58.4379 76.3407 57.2137C76.3861 56.6919 76.3609 55.8201 76.3322 55.4536L79.3024 55.7123ZM69.1888 58.0671C69.7839 58.1998 70.4811 58.3212 71.1033 58.3754C72.3275 58.482 82.0612 59.3295 83.5062 59.4553C84.0681 59.5042 84.9363 59.5191 85.4835 59.5061L85.2545 62.1352C84.6376 62.0208 83.8567 61.9326 83.3148 61.8854C81.8698 61.7596 72.2164 60.9191 70.8918 60.8038C70.2897 60.7514 69.5254 60.705 68.9582 60.7163L69.1888 58.0671ZM73.833 63.9515C72.756 65.6373 70.6606 68.1039 69.4738 69.1936L67.4138 67.5381C68.8703 66.3707 70.6681 64.3029 71.6394 62.6686L73.833 63.9515ZM82.5424 63.5572C83.4541 64.9308 84.8395 67.5993 85.5147 69.1343L83.053 70.2344C82.3403 68.4333 81.1268 65.8808 80.2517 64.5509L82.5424 63.5572Z" fill="#FAF7D5"/>
<path d="M96.0235 60.2739C96.4057 61.1203 97.3913 63.7599 97.6728 64.6867L95.275 65.5113C95.0137 64.5441 94.1287 62.106 93.6458 61.0582L96.0235 60.2739ZM103.456 61.7288C103.234 62.3935 103.113 62.8164 102.992 63.2193C102.467 65.2537 101.6 67.3483 100.229 69.1001C98.3536 71.5366 95.8546 73.2072 93.4971 74.1123L91.3831 71.9555C93.5793 71.3524 96.4006 69.8231 98.0537 67.7289C99.4246 66.0375 100.413 63.3588 100.636 60.8206L103.456 61.7288ZM91.3491 61.3187C91.8521 62.3464 92.8378 64.8047 93.2199 65.9331L90.7616 66.8382C90.4399 65.7703 89.4141 63.0702 88.9311 62.2037L91.3491 61.3187Z" fill="#FAF7D5"/>
<path d="M111.949 69.8924C111.852 68.3442 111.334 60.0201 111.229 58.3312C111.184 57.6074 111.062 56.6259 110.876 55.9108L114.013 55.7155C113.977 56.4443 113.931 57.3152 113.983 58.1596C114.121 60.3713 114.631 68.2317 114.724 69.7196C114.759 70.2825 114.927 71.685 115.079 72.5031L111.922 72.6997C112.014 71.9068 111.998 70.6765 111.949 69.8924ZM113.573 60.9706C116.294 61.548 120.735 62.8659 122.766 63.7083L121.814 66.5732C119.448 65.5297 115.99 64.4533 113.753 63.866L113.573 60.9706Z" fill="#FAF7D5"/>
<path d="M133.978 53.8212C133.894 54.5792 133.756 55.7884 133.344 57.2892C133.025 58.3146 132.562 59.5169 132.084 60.3765C132.6 60.0801 133.647 59.8299 134.329 59.7595C135.992 59.5874 137.356 60.4387 137.548 62.3023C137.66 63.3844 137.946 65.5624 138.097 66.8227L135.692 67.0714C135.675 66.1213 135.539 64.4139 135.407 63.3339C135.274 62.0515 134.429 61.7136 133.588 61.8006C132.486 61.9146 131.292 62.7064 130.605 63.5066C130.066 64.1699 129.579 64.9493 128.989 65.9015L126.679 64.5202C129 61.8904 130.319 59.5666 130.932 57.2753C131.221 56.1518 131.355 54.9025 131.31 53.8743L133.978 53.8212ZM126.616 56.4661C127.652 56.5007 129.144 56.4275 130.165 56.3218C132.811 56.0482 136.423 55.5328 139.275 54.7112L139.495 57.0378C136.711 57.7308 132.702 58.3277 130.257 58.5806C129.436 58.6656 127.969 58.7768 126.856 58.7906L126.616 56.4661ZM143.075 60.5155C142.472 60.7601 141.432 61.2728 140.777 61.6038C139.527 62.2395 137.798 63.1474 136.014 64.3041C134.288 65.4345 133.395 66.3977 133.509 67.4998C133.623 68.6019 134.616 68.803 136.56 68.602C138.263 68.4258 140.484 67.9732 142.21 67.4301L142.398 70.0234C141.074 70.3426 138.648 70.7758 136.744 70.9727C133.618 71.2961 131.193 70.7571 130.925 68.1721C130.637 65.3867 133.333 63.4472 135.613 61.9962C137.357 60.8437 138.57 60.2322 139.714 59.5467C140.46 59.1252 141.129 58.7321 141.851 58.2726L143.075 60.5155Z" fill="#FAF7D5"/>
<path d="M144.297 54.2186L148.088 53.7514L153.297 63.0279L153.467 63.0069L156.268 52.7436L160.059 52.2764L161.851 66.8176L158.869 67.1851L157.703 57.7205L157.582 57.7354L154.976 67.5926L152.946 67.8428L148.021 58.8774L147.9 58.8923L149.071 68.3924L146.089 68.7598L144.297 54.2186Z" fill="#FAF7D5"/>
<path d="M167.225 66.1237L163.932 66.5375L167.124 51.3701L171.085 50.8725L177.922 64.7799L174.629 65.1936L169.578 54.4361L169.465 54.4504L167.225 66.1237ZM166.302 60.4356L174.081 59.4583L174.382 61.8574L166.603 62.8348L166.302 60.4356Z" fill="#FAF7D5"/>
<path d="M179.871 64.5519L177.82 50.045L183.543 49.2359C184.644 49.0803 185.611 49.1579 186.445 49.4687C187.278 49.7748 187.95 50.2699 188.461 50.9538C188.976 51.6324 189.301 52.4534 189.438 53.4168C189.574 54.3801 189.486 55.2595 189.175 56.0549C188.863 56.8504 188.342 57.5092 187.612 58.0316C186.886 58.5532 185.966 58.8928 184.851 59.0504L181.203 59.5661L180.856 57.1082L184.008 56.6625C184.598 56.5791 185.07 56.4088 185.424 56.1517C185.782 55.8891 186.03 55.5627 186.167 55.1724C186.309 54.7767 186.346 54.3403 186.278 53.8634C186.21 53.3817 186.054 52.9751 185.81 52.6436C185.569 52.3067 185.242 52.0664 184.826 51.9228C184.41 51.7745 183.905 51.7424 183.31 51.8265L181.241 52.1189L182.938 64.1183L179.871 64.5519Z" fill="#FAF7D5"/>
<path d="M197.874 47.4404C200.371 47.2893 204.302 46.3988 206.364 45.7184L206.875 48.2665C204.512 48.9865 200.917 49.707 198.401 49.9648L197.874 47.4404ZM201.145 55.5581C201.121 56.2613 201.137 56.7512 201.24 57.2648C201.418 58.1537 202.296 58.5326 204.31 58.1288C206.068 57.7765 207.498 57.3255 209.142 56.6058L209.735 59.2606C208.503 59.7747 206.931 60.2336 204.699 60.6809C201.301 61.3618 199.416 60.4657 199.013 58.4509C198.854 57.6608 198.818 56.8667 198.853 55.8118L201.145 55.5581ZM194.567 46.7266C194.512 47.1691 194.457 48.228 194.449 48.5994C194.434 49.9584 194.535 54.0475 194.93 56.0228C195.01 56.4178 195.128 56.9077 195.267 57.2909C195.428 56.5599 195.61 55.825 195.772 55.094L197.19 55.8164C196.95 57.5905 196.726 59.8544 196.738 60.9408C196.738 61.249 196.766 61.6954 196.805 61.893C196.869 62.1063 196.936 62.4421 197.011 62.7147L194.767 63.3082C194.103 62.0442 193.245 59.7096 192.706 57.0232C192.109 54.0406 192.036 50.6034 191.945 49.0191C191.917 48.47 191.865 47.6996 191.758 47.0635L194.567 46.7266Z" fill="#FAF7D5"/>
<path d="M208.007 43.7217L223.518 38.0991L224.218 40.0309L208.707 45.6536L208.007 43.7217ZM209.928 46.3037L223.83 41.2645L224.489 43.0827L210.587 48.1219L209.928 46.3037ZM209.393 49.7334L226.211 43.637L226.912 45.5688L210.093 51.6652L209.393 49.7334ZM214.069 40.1101L216.379 39.2725L219.51 47.9089L217.199 48.7465L214.069 40.1101ZM216.889 47.8305L219.195 48.0446C217.958 50.9572 215.299 54.0852 212.562 56.1702C212.022 55.7445 211.076 55.1446 210.431 54.8427C213.142 52.9815 215.847 50.1581 216.889 47.8305ZM220.296 47.0027C222.647 50.4146 225.745 52.3988 230.051 52.102C229.705 52.7419 229.404 53.9223 229.308 54.664C224.53 54.7245 221.289 52.3426 218.376 48.1487L220.296 47.0027ZM225.083 46.5531L227.473 47.2939C226.423 48.8316 225.096 50.4911 224.022 51.6088L222.144 50.9184C223.145 49.7198 224.41 47.8898 225.083 46.5531ZM213.811 57.9029C215.959 56.6745 219.183 54.6916 222.168 52.8168L223.117 54.7868C220.391 56.5465 217.425 58.4143 215.262 59.777L213.811 57.9029ZM215.013 53.1177L215.966 51.0791L216.818 51.0059L218.796 56.4605L216.523 57.2843L215.013 53.1177Z" fill="#FAF7D5"/>
<path d="M233.799 38.7305L235.986 37.2178L240.868 44.2757C241.636 45.3858 241.777 46.121 241.244 46.9795C240.672 47.8164 239.601 48.6059 238.143 49.6144C237.637 49.0587 236.703 48.3818 235.992 47.9916C236.971 47.3881 238.147 46.5744 238.451 46.3401C238.765 46.1223 238.819 45.9873 238.647 45.7388L233.799 38.7305ZM231.267 43.5686L233.733 42.6713C234.351 45.1586 234.512 48.0114 234.206 50.0842C233.54 50.0063 232.239 50.0733 231.542 50.1634C231.979 48.2448 231.846 45.7157 231.267 43.5686ZM239.613 38.8488L240.947 36.7751C243.106 37.5596 245.725 38.7608 247.146 39.8597L245.722 42.192C244.39 41.0804 241.785 39.7225 239.613 38.8488ZM225.432 36.974L237.178 28.8487L238.542 30.8203L226.795 38.9456L225.432 36.974ZM226.686 42.0098L241.498 31.7643L242.873 33.7525L228.061 43.9979L226.686 42.0098Z" fill="#FAF7D5"/>
</svg>
