<svg width="253" height="96" viewBox="0 0 253 96" fill="none" xmlns="http://www.w3.org/2000/svg">
<path d="M13.1673 71.5366L21.2324 66.6928L22.114 68.1608L14.0489 73.0045L13.1673 71.5366ZM7.83299 63.5545L16.468 58.3685L17.3704 59.871L8.73535 65.057L7.83299 63.5545ZM10.5333 60.2643L12.3985 59.1441L19.8352 71.5268L17.9701 72.647L10.5333 60.2643ZM14.3329 74.5729C16.381 73.1314 19.5344 70.9085 22.4771 68.7652L23.4382 70.3264C20.689 72.4005 17.7325 74.5991 15.6119 76.1547L14.3329 74.5729ZM13.2175 67.7465L13.6946 68.5409L18.2539 65.8027L17.7768 65.0083L13.2175 67.7465ZM12.0247 65.7604L12.4915 66.5376L17.0508 63.7994L16.584 63.0222L12.0247 65.7604ZM9.58889 65.4609L17.5159 60.7001L20.7416 66.0711L12.8146 70.8319L9.58889 65.4609ZM13.641 56.1655L15.4898 57.1701C13.5489 58.9467 10.5613 61.0935 8.00192 62.7011C7.68391 62.3281 7.0998 61.7859 6.67127 61.5028C9.17191 59.8365 11.9902 57.7209 13.641 56.1655ZM17.0385 59.3184L23.014 55.7297L24.1549 57.6294L18.1794 61.2181L17.0385 59.3184ZM22.185 56.2275L24.1711 55.0347C24.1711 55.0347 24.5583 55.7186 24.7035 55.9604C28.8213 63.1691 30.1975 65.7735 30.0943 66.8929C30.067 67.7083 29.7839 68.1368 29.2762 68.5827C28.8031 69.0078 27.9914 69.4953 27.159 69.9483C26.7649 69.4095 26.0321 68.6981 25.3721 68.3425C26.1562 67.9656 26.8125 67.5714 27.1579 67.364C27.4169 67.2084 27.5585 67.0529 27.5687 66.7178C27.6548 65.9611 26.3305 63.443 22.4547 56.6765L22.185 56.2275ZM16.5287 54.7132L18.5147 53.5204C22.9263 60.9051 26.2385 66.4592 24.1368 71.9983C23.5424 71.6738 22.4436 71.3702 21.7699 71.3049C23.744 66.3359 20.6498 61.6144 16.5287 54.7132Z" fill="#FAF7D5"/>
<path d="M24.8911 51.3331C27.37 49.7135 29.284 48.1711 30.8214 46.6804C32.1524 45.414 33.2152 44.1089 34.1645 42.6362L35.8822 44.1942C35.0258 45.4323 33.8985 46.8173 32.6294 48.0321C31.1384 49.4842 29.0155 51.2792 26.4696 53.0072L24.8911 51.3331ZM27.3077 54.7999C30.3257 52.7573 32.7943 50.6218 34.4968 48.8886C36.0523 47.3565 36.9551 46.0798 37.6336 45.0688L39.4648 46.6371C38.7296 47.643 37.7648 48.814 36.6273 49.9978C34.8577 51.8394 31.8784 54.4005 28.9378 56.5359L27.3077 54.7999ZM30.1429 47.6914C29.511 47.2478 28.8482 46.8299 28.1286 46.4068L30.009 44.4466C31.4327 45.7777 32.9545 46.8172 34.3499 47.6737C35.624 48.4476 37.7106 49.4098 39.3253 49.9C39.7999 50.029 40.1945 50.0935 40.6923 50.1245L40.9501 52.3221C39.9286 52.8586 38.0869 54.0785 36.8539 54.896L35.7707 53.2813C36.4723 52.8016 37.388 52.1697 37.8755 51.8421C35.9075 51.1482 34.213 50.2788 32.8847 49.4714C31.5821 48.6949 30.9631 48.2667 30.1429 47.6914ZM33.284 55.9301C33.3381 56.7503 33.4516 57.5474 34.0061 58.2129C34.9604 59.3582 36.4306 58.9198 38.4891 57.2047C39.9439 55.9925 41.1692 54.788 42.103 53.6428L43.6324 55.6987C42.6908 56.7716 41.3572 58.0664 40.0881 59.1238C37.0082 61.69 34.3282 62.376 32.4506 60.2169C31.5969 59.2238 31.29 58.1946 31.0554 57.1577L33.284 55.9301Z" fill="#FAF7D5"/>
<path d="M44.5699 35.4327C46.7326 34.1758 49.844 31.614 51.3804 30.0796L52.9816 32.1265C51.1947 33.8312 48.3069 36.0902 46.1745 37.4513L44.5699 35.4327ZM51.1392 41.2151C51.4343 41.8539 51.6687 42.2844 51.9914 42.6969C52.55 43.411 53.5039 43.3553 55.1224 42.0893C56.5346 40.9846 57.6095 39.9391 58.7541 38.5578L60.4774 40.6627C59.6074 41.6757 58.409 42.7922 56.616 44.1948C53.8868 46.3297 51.8002 46.3761 50.5342 44.7576C50.0377 44.1229 49.6488 43.4296 49.2062 42.4714L51.1392 41.2151ZM41.2947 36.2811C41.4443 36.7012 41.871 37.6718 42.0309 38.007C42.628 39.228 44.5551 42.8359 45.7963 44.4227C46.0445 44.74 46.3707 45.1243 46.6665 45.4044C46.4825 44.6787 46.3144 43.9407 46.1304 43.215L47.7224 43.2229C48.3048 44.9157 49.1217 47.039 49.6209 48.0041C49.7595 48.2794 49.9849 48.6657 50.1091 48.8244C50.2615 48.9865 50.4725 49.2562 50.6621 49.466L48.9242 51.0044C47.7629 50.1737 45.9471 48.4737 44.2591 46.3157C42.3848 43.9198 40.7756 40.8817 39.982 39.5075C39.7103 39.0294 39.318 38.3644 38.9367 37.8442L41.2947 36.2811Z" fill="#FAF7D5"/>
<path d="M60.7028 29.3317L70.0729 25.5273L70.8687 27.4872L61.4986 31.2915L60.7028 29.3317ZM64.0786 38.2888L73.71 34.3783L74.5057 36.3382L64.8743 40.2486L64.0786 38.2888ZM61.0431 33.6507L72.9331 28.8233L76.063 36.5322L73.7671 37.4643L71.4406 31.734L64.049 34.735L66.3755 40.4653L64.173 41.3596L61.0431 33.6507ZM63.7486 23.6596C63.1047 26.4649 61.2305 30.0958 58.8176 32.9888C58.3067 32.5875 57.3573 32.0163 56.6826 31.7467C59.2751 28.8677 61.136 24.8291 61.5851 21.9724L63.9183 21.0251C67.1199 23.0736 71.0875 24.224 74.5852 24.2171C74.2526 25.0044 74.0407 25.9819 73.9291 26.8317C70.4408 26.4868 66.2743 25.2215 63.7486 23.6596Z" fill="#FAF7D5"/>
<path d="M86.3344 30.3334C89.6904 29.1242 91.9077 27.2342 91.3057 24.1497C91.0047 22.6074 89.4812 21.427 87.5039 21.8129C84.9731 22.3068 83.1391 24.1631 81.5989 26.5778L81.0746 23.7861C82.9914 21.0926 85.352 19.8314 87.4676 19.4185C90.4928 18.828 93.3256 20.5124 93.9431 23.676C94.7265 27.6897 92.6785 30.5525 87.964 32.4784L86.3344 30.3334ZM80.1674 22.6085C79.2969 22.881 77.4687 23.5046 76.1985 23.9373L75.4437 21.4368C76.0011 21.3485 76.4559 21.2598 77.16 21.0813C78.3941 20.7789 80.8516 19.9092 81.6835 19.439L82.675 20.3128C82.4276 20.8332 82.0038 21.9216 81.768 22.5013L81.3467 26.4423C80.7237 27.8776 79.4811 30.8705 78.7149 32.5184L76.7481 30.6445C77.6928 28.8591 79.4519 25.2522 80.1395 23.517L80.0787 22.9952L80.1674 22.6085ZM79.1853 18.8387C79.0773 18.2851 78.9813 17.6881 78.743 17.0983L81.6452 16.614C81.6178 18.2613 81.9764 23.569 82.6672 27.1083C82.9797 28.7098 83.3078 30.3905 83.7853 32.2061C83.8745 32.5582 84.0964 33.2743 84.2208 33.7016L81.512 34.2303C81.4705 33.8073 81.3475 33.0719 81.2858 32.7556C80.9312 30.8338 80.6924 29.5052 80.2694 27.0221C79.9852 25.2508 79.3397 19.6296 79.1853 18.8387Z" fill="#FAF7D5"/>
<path d="M109.351 14.3357C109.302 14.6599 109.292 15.5472 109.29 16.0713C109.297 17.4418 109.337 18.5894 109.332 19.6176C109.354 21.4108 109.368 23.5873 109.202 24.6211C109.018 25.6958 108.503 25.9756 107.476 26.011C106.772 26.0353 105.135 25.9104 104.446 25.8132L104.41 23.5972C105.039 23.7166 105.888 23.7881 106.291 23.7742C106.673 23.761 106.852 23.6943 106.899 23.2896C106.973 22.521 106.963 21.07 106.956 19.6794C106.919 18.6325 106.879 17.4648 106.838 16.2769C106.82 15.7534 106.707 14.8099 106.633 14.4295L109.351 14.3357ZM101.44 15.2134C101.382 15.8806 101.361 16.4457 101.391 17.3115C101.454 19.1436 101.557 24.4616 101.654 26.1111C101.784 28.1023 101.96 28.5396 104.98 28.4354C106.953 28.3673 109.502 28.0375 110.982 27.7042L110.976 30.466C109.632 30.6535 107.182 30.9194 105.249 30.9861C100.055 31.1654 99.3725 30.0803 99.1718 26.6C99.0718 24.8699 98.8807 18.7486 98.839 17.5406C98.8099 16.695 98.7258 16.0126 98.6008 15.3114L101.44 15.2134ZM94.8721 19.9956C95.4359 19.9762 96.3606 19.9039 97.3832 19.7477C99.4105 19.4963 106.955 18.4902 110.832 18.1145C111.375 18.0555 112.158 17.968 112.76 17.9069L112.845 20.3631C112.482 20.3555 111.416 20.4326 110.893 20.4507C107.755 20.6597 99.9527 21.7756 97.6263 22.1179C97.0049 22.22 95.7629 22.4442 95.2221 22.5435L94.8721 19.9956Z" fill="#FAF7D5"/>
<path d="M115.36 16.3185C116.146 16.3368 116.953 16.336 117.337 16.3145C119.035 16.2363 122.349 16.1161 126.067 15.9754C128.148 15.8958 130.348 15.8825 131.779 15.8921L131.672 18.4887C130.586 18.4355 128.854 18.3709 127.756 18.5591C125.31 19.0848 123.351 21.6109 123.234 23.9852C123.072 27.3052 126.112 28.6441 129.504 28.9917L128.443 31.703C124.231 31.2345 120.358 28.7658 120.572 24.3995C120.714 21.502 122.455 19.3081 123.873 18.3489C121.972 18.4575 117.847 18.6791 115.487 19.088L115.36 16.3185Z" fill="#FAF7D5"/>
<path d="M138.624 22.4039L137.748 29.7653L135.507 29.4984L136.12 24.3574L134.039 24.1095L134.304 21.8891L138.624 22.4039ZM137.857 28.8451C138.475 30.2983 139.866 31.0524 141.915 31.3979C144.383 31.7934 149.312 32.3196 152.178 32.438C151.856 32.9271 151.37 33.9444 151.191 34.5926C148.617 34.4076 144.171 33.9186 141.682 33.5207C139.254 33.1299 137.685 32.3344 136.671 30.6311C135.815 31.3407 134.924 32.0055 133.877 32.7937L133.011 30.3574C133.878 29.8926 134.928 29.2469 135.857 28.6068L137.857 28.8451ZM134.915 15.7336L136.939 14.7574C137.884 15.8439 138.963 17.3519 139.386 18.3964L137.186 19.4936C136.84 18.4786 135.814 16.8753 134.915 15.7336ZM139.799 22.9293L152.062 24.3901L151.855 26.1305L139.592 24.6696L139.799 22.9293ZM138.832 25.9384L152.315 27.5446L152.103 29.3249L138.62 27.7188L138.832 25.9384ZM142.586 22.186L144.847 22.4553L144.251 27.4563L141.99 27.187L142.586 22.186ZM147.167 22.7318L149.448 23.0034L148.852 28.0044L146.571 27.7327L147.167 22.7318ZM140.962 17.7726L143.882 18.1205L143.982 17.2804L140.181 16.8276L140.36 15.3273L146.181 16.0208L145.721 19.8815L140.78 19.2929L140.962 17.7726ZM140.361 17.7011L142.342 17.937L142.111 19.8774C142.061 20.2975 142.131 20.3871 142.651 20.449C142.871 20.4752 143.891 20.5968 144.191 20.6325C144.592 20.6802 144.686 20.5697 144.845 19.9191C145.174 20.222 145.903 20.5726 146.431 20.737C146.069 22.0734 145.484 22.3892 144.263 22.2438C143.883 22.1985 142.543 22.0389 142.163 21.9936C140.383 21.7815 139.937 21.2618 140.128 19.6615L140.361 17.7011ZM147.543 18.5566L150.483 18.907L150.583 18.0668L146.683 17.6021L146.861 16.1018L152.803 16.8096L152.343 20.6703L147.362 20.0769L147.543 18.5566ZM146.943 18.4852L148.923 18.7211L148.692 20.6615C148.642 21.0815 148.732 21.1735 149.252 21.2354C149.493 21.264 150.553 21.3903 150.853 21.4261C151.273 21.4761 151.367 21.3656 151.528 20.695C151.857 20.998 152.589 21.3286 153.115 21.513C152.75 22.8694 152.165 23.1851 150.925 23.0374C150.544 22.9921 149.144 22.8253 148.764 22.78C146.964 22.5655 146.519 22.0459 146.712 20.4255L146.943 18.4852ZM146.022 29.4526L147.899 28.6821C149.26 29.5138 150.906 30.6837 151.825 31.483L149.238 32.0877C148.574 31.3594 147.261 30.29 146.022 29.4526ZM142.638 28.0553L144.65 29.0457C143.495 29.882 141.705 30.602 140.258 30.9977C139.926 30.5523 139.152 29.7297 138.69 29.35C140.14 29.0968 141.697 28.633 142.638 28.0553Z" fill="#FAF7D5"/>
<path d="M168.452 21.2376C168.355 23.786 168.558 27.0927 171.006 30.4771L168.953 32.43C167.276 29.6101 166.353 25.9957 165.845 21.4367L168.452 21.2376ZM155.255 19.6336C155.607 19.7242 156.002 19.803 156.382 19.8581C158.258 20.1296 161.64 20.3725 163.019 20.1544L163.333 22.4971C163.036 22.5407 162.59 22.616 162.262 22.715C160.714 23.4745 157.44 25.9852 156.684 29.7785C156.223 32.09 157.543 33.2981 159.44 33.6763C163.925 34.5704 166.229 29.915 165.975 22.0174L167.535 26.2518C167.577 31.8066 165.428 37.6433 158.849 36.3316C155.668 35.6974 153.328 33.4231 154.041 29.8472C154.683 26.6269 156.483 24.5003 158.789 22.5156C158.027 22.4252 156.731 22.3311 156.146 22.2762C155.719 22.2527 155.395 22.2292 154.921 22.2374L155.255 19.6336ZM170.451 20.4858C170.661 21.3904 170.93 22.7177 171.026 23.5789L169.465 23.7814C169.318 22.7661 169.164 21.5849 168.894 20.6685L170.451 20.4858ZM172.714 20.1565C172.984 21.0729 173.233 22.3963 173.368 23.2654L171.788 23.4639C171.673 22.496 171.463 21.2832 171.194 20.3668L172.714 20.1565Z" fill="#FAF7D5"/>
<path d="M180.798 25.4884L192.054 28.8419L191.415 30.9849L180.16 27.6315L180.798 25.4884ZM182.778 30.5556L188.126 32.1489L187.51 34.2147L181.757 32.5006L182.778 30.5556ZM187.566 31.9821L187.971 32.1029L188.375 32.16L189.65 32.9603C187.126 38.3255 183.729 40.9079 179.455 41.5682C179.351 40.9278 179.025 39.9057 178.713 39.3294C182.362 39.0079 185.494 36.536 187.457 32.3489L187.566 31.9821ZM183.165 32.4999C183.285 36.4032 184.939 39.881 188.511 42.1434C187.891 42.463 186.958 43.1941 186.452 43.6948C182.707 41.0237 181.245 37.1828 181.135 32.3995L183.165 32.4999ZM171.885 30.3583C173.718 30.4841 176.551 30.5713 179.199 30.6454L178.881 32.8418C176.409 32.8832 173.783 32.8785 171.718 32.894L171.885 30.3583ZM174.113 24.1485L180.407 26.0237L179.769 28.1667L173.475 26.2915L174.113 24.1485ZM177.442 21.2304L179.72 21.9092L175.061 37.5476C174.728 38.6674 174.343 39.1833 173.602 39.341C172.842 39.493 171.892 39.2941 170.527 38.8664C170.642 38.27 170.615 37.2319 170.517 36.5722C171.264 36.8158 172.056 37.0516 172.307 37.1264C172.583 37.1876 172.702 37.1392 172.783 36.8689L177.442 21.2304ZM183.962 23.1939L186.221 23.8669C184.077 30.9217 181.887 37.9206 175.958 40.4634C175.772 39.8193 175.289 38.8979 174.82 38.3585C180.249 36.1504 181.968 29.7467 183.962 23.1939Z" fill="#FAF7D5"/>
<path d="M202.459 31.1081C202.142 31.5419 201.776 32.0867 201.467 32.5019C200.943 33.2636 200.21 34.3083 199.62 35.1732C197.889 37.5218 194.127 42.1553 190.86 44.4586L188.847 42.4557C192.321 40.4382 195.805 36.1458 197.324 34.0352C198.39 32.5198 199.269 31.0333 199.846 29.6368L202.459 31.1081ZM208.108 35.5692C208.547 37.6643 208.594 41.8491 208.405 43.8726L205.586 43.9566C205.993 41.6765 206.108 37.7802 205.482 35.5607L208.108 35.5692ZM193.333 31.688C193.984 32.0109 194.621 32.2623 195.314 32.5376C196.811 33.1357 200.485 34.229 201.874 34.8245C203.818 35.6582 204.833 37.1239 203.682 39.8085C202.745 41.9932 201.2 44.8815 199.739 46.1403C198.554 47.1664 197.361 47.137 195.972 46.5415C195.25 46.2319 194.428 45.7476 193.843 45.3216L194.502 42.7109C195.137 43.2242 196.113 43.8619 196.594 44.0684C197.224 44.3383 197.766 44.3517 198.324 43.8677C199.288 43.0532 200.497 40.8976 201.275 39.0832C201.91 37.602 201.357 37.1019 200.209 36.6097C199.099 36.1333 195.739 35.175 194.665 34.8679C194.097 34.7117 193.078 34.4284 192.483 34.2828L193.333 31.688Z" fill="#FAF7D5"/>
<path d="M221.733 58.4162C220.473 58.6623 219.106 58.5828 217.696 57.7221C216.406 56.9349 216.113 55.4816 217.131 53.8136C218.275 51.9394 220.427 49.8068 221.392 48.2248C221.907 47.3823 221.729 46.7072 220.989 46.2559C219.39 45.2797 215.285 46.2435 212.839 47.1577L214.438 44.4992C216.159 44.0389 220.605 43.2125 222.874 44.598C224.731 45.7316 224.902 47.3464 224.021 48.7907C222.94 50.5618 220.829 52.7431 219.738 54.5314C219.465 54.9785 219.516 55.4349 219.946 55.6973C220.583 56.0857 221.664 56.1319 222.91 55.8305L221.733 58.4162ZM214.847 42.9786C214.021 42.5923 212.261 41.8015 211.021 41.2807L212.152 38.9261C212.623 39.2372 213.018 39.4786 213.658 39.8221C214.773 40.4317 217.173 41.4485 218.105 41.6629L218.247 42.9769C217.713 43.1939 216.666 43.7111 216.1 43.9798L213.13 46.6037C211.702 47.2423 208.765 48.6123 207.087 49.3113L206.9 46.6011C208.802 45.9212 212.524 44.4639 214.213 43.6303L214.52 43.2042L214.847 42.9786ZM216.666 39.534C216.96 39.0526 217.292 38.5472 217.515 37.9512L219.983 39.5524C218.851 40.7496 215.534 44.9083 213.655 47.9862C212.805 49.379 211.912 50.8406 211.04 52.5027C210.868 52.8227 210.548 53.5009 210.352 53.9002L207.996 52.4622C208.272 52.0877 208.656 51.4964 208.824 51.2213C209.86 49.5639 210.58 48.4223 211.944 46.3044C212.929 44.8055 216.247 40.2218 216.666 39.534Z" fill="#FAF7D5"/>
<path d="M238.073 52.8997C237.592 53.2266 236.853 53.7824 236.483 54.046C235.36 54.8803 233.348 56.3789 231.574 57.5499C229.156 59.1715 225.412 61.3393 222.989 62.3903L221.531 59.8195C223.772 59.0927 227.718 56.9705 230.167 55.3757C231.803 54.2981 233.624 52.9531 234.521 52.1602C235.092 51.6711 235.657 51.0682 235.934 50.6672L238.073 52.8997ZM232.228 51.7342C234.062 53.3705 236.436 54.9761 238.806 56.2537L237.129 58.1326C234.876 56.9054 232.288 55.0552 230.59 53.5396C229.853 52.8824 229.324 52.3561 228.825 51.8566L230.441 49.924C231.142 50.7116 231.612 51.1843 232.228 51.7342ZM234.896 58.2455C235.818 58.9064 236.954 59.812 237.931 60.6838C238.788 61.4483 239.649 62.2981 240.441 63.1662L238.801 64.9432C238.115 64.169 237.292 63.2456 236.39 62.4408C235.353 61.5154 234.381 60.7289 233.326 60.0042L234.896 58.2455ZM232.341 62.7427C231.847 63.0847 231.327 63.4852 231.032 63.8159C230.442 64.4773 230.435 65.3623 232.059 66.8108C233.066 67.7094 234.197 68.5297 235.438 69.2866L233.66 71.1285C232.711 70.4976 231.623 69.6892 230.421 68.6162C227.88 66.3495 227.292 64.2856 228.647 62.7674C229.277 62.061 230.056 61.4602 230.7 60.9812L232.341 62.7427Z" fill="#FAF7D5"/>
</svg>
