<svg width="781" height="171" viewBox="0 0 781 171" fill="none" xmlns="http://www.w3.org/2000/svg">
<path d="M20.1257 112.783L32.5234 104.537L34.0243 106.793L21.6266 115.039L20.1257 112.783ZM11.1099 100.552L24.3837 91.7234L25.92 94.0331L12.6462 102.862L11.1099 100.552ZM15.1392 95.1536L18.0063 93.2465L30.667 112.281L27.7999 114.188L15.1392 95.1536ZM22.1899 117.498C25.3229 115.07 30.1463 111.326 34.6423 107.722L36.2757 110.121C32.0805 113.6 27.5667 117.292 24.3274 119.906L22.1899 117.498ZM19.9286 106.787L20.7409 108.008L27.7494 103.347L26.9372 102.125L19.9286 106.787ZM17.898 103.734L18.6926 104.929L25.7011 100.267L24.9065 99.0725L17.898 103.734ZM14.0251 103.438L26.2104 95.3333L31.702 103.59L19.5166 111.695L14.0251 103.438ZM19.7535 88.4466L22.7497 89.9001C19.8107 92.8505 15.2439 96.4624 11.3148 99.1908C10.7848 98.6242 9.82176 97.8097 9.1236 97.3933C12.9556 94.5765 17.257 91.0261 19.7535 88.4466ZM25.3549 93.1835L34.5404 87.0739L36.4827 89.9942L27.2973 96.1038L25.3549 93.1835ZM33.2661 87.9215L36.3191 85.8909C36.3191 85.8909 36.9812 86.9439 37.2284 87.3155C44.2645 98.4121 46.6301 102.429 46.5487 104.207C46.565 105.498 46.1486 106.196 45.3785 106.938C44.6615 107.645 43.4137 108.474 42.1307 109.251C41.4683 108.428 40.258 107.357 39.1885 106.843C40.4007 106.19 41.4095 105.519 41.9405 105.166C42.3387 104.901 42.5512 104.645 42.5429 104.114C42.6238 102.911 40.3464 99.0269 33.7252 88.6117L33.2661 87.9215ZM24.213 85.94L27.266 83.9093C34.7793 95.2628 40.4209 103.802 37.5022 112.713C36.5388 112.243 34.7794 111.843 33.7095 111.789C36.4681 103.789 31.2319 96.5501 24.213 85.94Z" fill="#FAF7D5"/>
<path d="M37.2388 79.9456C41.0397 77.2041 43.9532 74.6261 46.2751 72.1571C48.2871 70.0579 49.8722 67.917 51.2656 65.5194L54.095 67.8573C52.8313 69.8771 51.1501 72.1491 49.2322 74.1622C46.9809 76.5667 43.7555 79.5596 39.8564 82.4772L37.2388 79.9456ZM41.3123 85.2504C45.9347 81.8008 49.6818 78.2445 52.2471 75.3801C54.5945 72.8445 55.9288 70.7602 56.9277 69.1122L59.9372 71.4583C58.8483 73.1022 57.4084 75.0239 55.6962 76.9785C53.0329 80.019 48.5093 84.2854 44.016 87.8761L41.3123 85.2504ZM45.2763 73.805C44.2449 73.1497 43.1664 72.5373 41.9978 71.9209L44.8279 68.6847C47.1759 70.6853 49.6576 72.2179 51.9261 73.4701C53.997 74.6007 57.3662 75.9698 59.9547 76.627C60.7144 76.7964 61.343 76.8696 62.1323 76.8823L62.7002 80.3379C61.1244 81.2605 58.3015 83.3235 56.4118 84.706L54.5815 82.2321C55.6557 81.4225 57.0574 80.3567 57.8043 79.8033C54.6423 78.8497 51.8997 77.5988 49.7408 76.4192C47.6249 75.2866 46.615 74.6547 45.2763 73.805ZM50.8432 86.6013C50.9886 87.8941 51.2261 89.146 52.1513 90.1577C53.7436 91.8988 56.0361 91.0985 59.1654 88.2367C61.3771 86.2141 63.2264 84.2205 64.6192 82.3419L67.1872 85.4806C65.7768 87.2456 63.7628 89.3899 61.8335 91.1543C57.1513 95.4361 52.9643 96.7161 49.8383 93.4395C48.4161 91.9317 47.8559 90.3269 47.4093 88.7047L50.8432 86.6013Z" fill="#FAF7D5"/>
<path d="M67.1833 53.3808C70.5109 51.2359 75.2432 46.9588 77.5604 44.4209L80.2411 47.5402C77.5404 50.3657 73.1395 54.1478 69.8675 56.4552L67.1833 53.3808ZM77.9913 62.0437C78.5044 63.0321 78.9064 63.6956 79.4467 64.3243C80.3818 65.4124 81.886 65.2549 84.3525 63.1352C86.5046 61.2857 88.1277 59.5545 89.8366 57.2871L92.7146 60.4892C91.413 62.1543 89.5998 64.0068 86.8673 66.3551C82.7082 69.9294 79.4127 70.155 77.2931 67.6885C76.4618 66.7213 75.7965 65.6535 75.0268 64.1709L77.9913 62.0437ZM62.0671 54.961C62.3342 55.6142 63.0797 57.1176 63.357 57.636C64.39 59.5229 67.6999 65.0865 69.778 67.5046C70.1936 67.9882 70.7373 68.5719 71.2255 68.9932C70.8816 67.8593 70.562 66.7047 70.2181 65.5708L72.7356 65.4673C73.78 68.1011 75.2264 71.3985 76.0859 72.8879C76.3251 73.3129 76.7097 73.9073 76.9175 74.1491C77.1703 74.3943 77.5236 74.8054 77.8387 75.1231L75.2034 77.6822C73.3066 76.4535 70.3119 73.8982 67.4857 70.6096C64.3478 66.9583 61.582 62.2724 60.2271 60.1577C59.7627 59.4217 59.094 58.3989 58.4532 57.6043L62.0671 54.961Z" fill="#FAF7D5"/>
<path d="M92.1418 42.6227L106.679 35.9246L108.08 38.9652L93.5428 45.6633L92.1418 42.6227ZM98.1322 56.5377L113.074 49.6528L114.475 52.6933L99.5332 59.5782L98.1322 56.5377ZM92.9949 49.4263L111.441 40.9269L116.951 52.8864L113.39 54.5276L109.293 45.6376L97.8262 50.9214L101.922 59.8113L98.5055 61.3858L92.9949 49.4263ZM96.5435 33.433C95.73 37.9152 93.0318 43.7924 89.428 48.5422C88.5911 47.9449 87.0484 47.1111 85.9619 46.7341C89.8508 41.9933 92.4982 35.4725 92.9999 30.9234L96.6196 29.2555C101.831 32.2606 108.187 33.79 113.717 33.524C113.248 34.7931 112.985 36.3539 112.87 37.7056C107.33 37.4148 100.651 35.7182 96.5435 33.433Z" fill="#FAF7D5"/>
<path d="M132.66 42.3643C137.878 40.2078 141.245 37.0579 140.069 32.2252C139.48 29.8089 136.986 28.0536 133.888 28.808C129.922 29.7735 127.158 32.8421 124.899 36.7721L123.867 32.3966C126.701 27.9984 130.341 25.8322 133.656 25.0251C138.395 23.8709 142.997 26.3273 144.204 31.2839C145.735 37.5726 142.706 42.248 135.393 45.6367L132.66 42.3643ZM122.347 30.6009C120.99 31.0953 118.145 32.2146 116.169 32.9913L114.793 29.0931C115.668 28.9129 116.38 28.7394 117.481 28.4059C119.41 27.8377 123.231 26.2836 124.512 25.4794L126.144 26.7886C125.791 27.6293 125.2 29.3811 124.869 30.3148L124.491 36.5763C123.61 38.8908 121.864 43.7133 120.773 46.3745L117.527 43.5553C118.89 40.6637 121.408 34.8329 122.369 32.0394L122.235 31.2189L122.347 30.6009ZM120.519 24.7126C120.308 23.8452 120.113 22.9083 119.693 21.9932L124.246 21.0158C124.323 23.6223 125.277 31.9876 126.627 37.5328C127.238 40.0421 127.879 42.6753 128.767 45.511C128.933 46.0611 129.336 47.1771 129.564 47.8435L125.32 48.877C125.224 48.2113 124.976 47.0576 124.855 46.5619C124.154 43.5495 123.68 41.4664 122.83 37.5714C122.251 34.7917 120.821 25.9517 120.519 24.7126Z" fill="#FAF7D5"/>
<path d="M167.815 15.4043C167.761 15.9205 167.81 17.3239 167.845 18.1528C167.956 20.319 168.102 22.1305 168.17 23.7564C168.335 26.59 168.516 30.0299 168.33 31.6764C168.116 33.389 167.323 33.8689 165.702 33.9998C164.59 34.0896 161.993 34.0115 160.897 33.9081L160.678 30.4071C161.681 30.55 163.029 30.6011 163.664 30.5498C164.268 30.501 164.546 30.3826 164.59 29.7393C164.652 28.5188 164.531 26.2255 164.417 24.0275C164.284 22.3749 164.135 20.5317 163.983 18.6566C163.916 17.8303 163.669 16.3469 163.525 15.7508L167.815 15.4043ZM155.371 17.369C155.328 18.4281 155.336 19.323 155.447 20.6896C155.68 23.5816 156.231 31.9819 156.505 34.5827C156.854 37.7212 157.165 38.3999 161.932 38.0148C165.047 37.7633 169.052 37.0559 171.368 36.4211L171.56 40.7878C169.449 41.1822 165.595 41.7814 162.544 42.0278C154.345 42.6901 153.187 41.0243 152.616 35.5366C152.331 32.8086 151.583 23.1449 151.429 21.238C151.321 19.9033 151.138 18.8304 150.89 17.731L155.371 17.369ZM145.336 25.4087C146.226 25.3369 147.683 25.1552 149.288 24.8336C152.475 24.2883 164.329 22.1473 170.432 21.2705C171.285 21.1377 172.517 20.9422 173.465 20.8017L173.778 24.6789C173.203 24.6933 171.524 24.8929 170.698 24.9596C165.753 25.519 153.498 27.8523 149.845 28.5632C148.87 28.7698 146.923 29.215 146.075 29.4114L145.336 25.4087Z" fill="#FAF7D5"/>
<path d="M177.423 18.1022C178.667 18.0738 179.942 18.0136 180.548 17.9516C183.227 17.7041 188.458 17.2724 194.326 16.7788C197.61 16.5011 201.086 16.3196 203.35 16.2304L203.371 20.3434C201.649 20.3386 198.907 20.3627 197.184 20.7405C193.355 21.75 190.442 25.8867 190.431 29.6489C190.417 34.9097 195.321 36.8047 200.709 37.1069L199.23 41.4708C192.535 41.0374 186.233 37.4168 186.252 30.498C186.265 25.9068 188.858 22.3112 191.031 20.6913C188.033 21.0016 181.526 21.6529 177.826 22.4714L177.423 18.1022Z" fill="#FAF7D5"/>
<path d="M214.621 26.0251L213.772 37.7276L210.21 37.469L210.803 29.2964L207.496 29.0563L207.752 25.5265L214.621 26.0251ZM213.878 36.2648C214.961 38.5172 217.216 39.6079 220.479 40.0047C224.411 40.45 232.241 40.9225 236.782 40.9005C236.308 41.6973 235.614 43.3412 235.378 44.379C231.294 44.2743 224.23 43.8254 220.267 43.3778C216.398 42.9372 213.86 41.7939 212.132 39.175C210.831 40.3592 209.472 41.4753 207.873 42.7978L206.326 39.0092C207.663 38.2111 209.277 37.1135 210.698 36.0339L213.878 36.2648ZM208.27 15.75L211.398 14.059C212.973 15.7078 214.787 18.0133 215.533 19.6339L212.135 21.529C211.514 19.9495 209.775 17.4896 208.27 15.75ZM216.517 26.7702L236.011 28.1854L235.81 30.952L216.316 29.5368L216.517 26.7702ZM215.208 31.5981L236.641 33.1541L236.435 35.9843L215.002 34.4283L215.208 31.5981ZM220.869 25.3918L224.462 25.6527L223.885 33.6027L220.292 33.3418L220.869 25.3918ZM228.151 25.9205L231.776 26.1837L231.199 34.1337L227.574 33.8705L228.151 25.9205ZM217.978 18.5327L222.621 18.8697L222.718 17.5341L216.676 17.0955L216.849 14.7105L226.103 15.3823L225.658 21.5197L217.803 20.9495L217.978 18.5327ZM217.024 18.4634L220.173 18.692L219.949 21.7766C219.9 22.4444 220.018 22.5808 220.845 22.6409C221.195 22.6662 222.817 22.784 223.294 22.8186C223.93 22.8648 224.071 22.6832 224.274 21.6431C224.816 22.098 225.995 22.5991 226.842 22.8205C226.367 24.9598 225.464 25.5017 223.525 25.3608C222.92 25.317 220.79 25.1623 220.186 25.1184C217.355 24.913 216.613 24.1238 216.798 21.5798L217.024 18.4634ZM228.441 19.2922L233.115 19.6316L233.212 18.296L227.011 17.8458L227.184 15.4608L236.629 16.1465L236.183 22.2839L228.265 21.709L228.441 19.2922ZM227.487 19.223L230.635 19.4515L230.411 22.5361C230.362 23.2039 230.512 23.3427 231.339 23.4027C231.721 23.4304 233.406 23.5528 233.883 23.5874C234.551 23.6359 234.692 23.4543 234.898 22.3823C235.44 22.8373 236.621 23.3066 237.465 23.5598C236.988 25.7309 236.086 26.2727 234.114 26.1296C233.51 26.0857 231.284 25.9241 230.68 25.8803C227.818 25.6725 227.076 24.8834 227.263 22.3076L227.487 19.223ZM226.83 36.6297L229.742 35.2746C231.955 36.4902 234.643 38.2198 236.154 39.4164L232.107 40.5612C231.005 39.4582 228.851 37.8632 226.83 36.6297ZM221.378 34.6675L224.632 36.0865C222.868 37.4928 220.09 38.7617 217.831 39.4928C217.273 38.8129 215.989 37.5689 215.231 37.0023C217.505 36.4961 219.933 35.6494 221.378 34.6675Z" fill="#FAF7D5"/>
<path d="M261.658 22.0022C261.69 26.0382 262.253 31.2513 266.369 36.4236L263.265 39.6609C260.409 35.325 258.686 29.6778 257.55 22.5072L261.658 22.0022ZM240.677 20.4287C241.239 20.5464 241.87 20.6422 242.473 20.7016C245.46 20.9939 250.825 21.1313 252.989 20.6859L253.656 24.3668C253.19 24.4574 252.49 24.609 251.979 24.7894C249.587 26.1031 244.594 30.3113 243.675 36.3636C243.115 40.0518 245.29 41.8656 248.316 42.3251C255.472 43.4117 258.776 35.8833 257.799 23.4157L260.573 29.9965C261.046 38.7756 258.073 48.1602 247.576 46.5663C242.501 45.7956 238.635 42.3707 239.501 36.6651C240.281 31.527 242.973 28.0334 246.474 24.7274C245.262 24.6401 243.206 24.5859 242.277 24.5417C241.601 24.5358 241.087 24.5222 240.338 24.5697L240.677 20.4287ZM264.763 20.6678C265.161 22.0826 265.684 24.1615 265.897 25.5161L263.445 25.95C263.139 24.3555 262.808 22.4993 262.315 21.0701L264.763 20.6678ZM268.318 19.9821C268.81 21.4113 269.301 23.4854 269.578 24.8496L267.094 25.2787C266.841 23.7568 266.421 21.8547 265.928 20.4255L268.318 19.9821Z" fill="#FAF7D5"/>
<path d="M281.448 27.8143L299.488 32.2951L298.635 35.7298L280.595 31.249L281.448 27.8143ZM284.948 35.6811L293.519 37.81L292.697 41.121L283.476 38.8306L284.948 35.6811ZM292.622 37.5872L293.272 37.7486L293.914 37.8094L295.988 38.9817C292.39 47.6481 287.207 51.9787 280.497 53.3345C280.287 52.3295 279.697 50.7374 279.162 49.8489C284.906 49.0746 289.679 44.9379 292.476 38.1751L292.622 37.5872ZM285.703 38.7267C286.176 44.8892 289.045 50.2669 294.858 53.5832C293.9 54.1337 292.479 55.3577 291.714 56.1863C285.599 52.2363 283.008 46.2704 282.486 38.7161L285.703 38.7267ZM267.712 36.1636C270.62 36.2287 275.105 36.16 279.296 36.0841L278.953 39.5799C275.048 39.8256 270.896 40.0097 267.633 40.1848L267.712 36.1636ZM270.782 26.1834L280.87 28.689L280.017 32.1237L269.929 29.6181L270.782 26.1834ZM275.832 21.3271L279.483 22.2341L273.258 47.2983C272.812 49.093 272.241 49.9368 271.082 50.2402C269.891 50.5358 268.375 50.2907 266.186 49.714C266.324 48.7627 266.205 47.1235 266.002 46.0876C267.202 46.4182 268.47 46.7334 268.873 46.8333C269.313 46.9099 269.499 46.8246 269.607 46.3914L275.832 21.3271ZM286.283 23.9559L289.904 24.8551C287.029 36.1651 284.076 47.3901 274.889 51.8428C274.547 50.838 273.717 49.4164 272.935 48.5979C281.358 44.7109 283.608 34.4613 286.283 23.9559Z" fill="#FAF7D5"/>
<path d="M316.057 35.1042C315.587 35.8132 315.049 36.7012 314.59 37.3802C313.817 38.6227 312.734 40.3278 311.865 41.7382C309.3 45.5775 303.689 53.1776 298.692 57.0574L295.364 54.0377C300.708 50.5946 305.905 43.5541 308.152 40.1065C309.727 37.6328 311.008 35.2187 311.818 32.9687L316.057 35.1042ZM325.314 41.7452C326.16 45.0256 326.539 51.6383 326.389 54.8512L321.937 55.1897C322.416 51.5552 322.313 45.3866 321.16 41.9233L325.314 41.7452ZM301.671 36.6867C302.723 37.1497 303.749 37.5007 304.865 37.8854C307.275 38.7219 313.164 40.1824 315.402 41.0226C318.537 42.1988 320.249 44.442 318.625 48.7704C317.303 52.2928 315.07 56.9718 312.853 59.0685C311.054 60.7772 309.166 60.8178 306.927 59.9776C305.763 59.5407 304.427 58.8351 303.472 58.2042L304.324 54.0286C305.365 54.7939 306.954 55.7309 307.73 56.0222C308.745 56.4031 309.603 56.3846 310.451 55.5788C311.914 54.2208 313.669 50.7246 314.766 47.7992C315.663 45.4111 314.752 44.6608 312.901 43.9663C311.11 43.2941 305.73 42.0241 304.009 41.6169C303.099 41.4114 301.468 41.0379 300.517 40.851L301.671 36.6867Z" fill="#FAF7D5"/>
<path d="M348.465 76.8467C346.492 77.3276 344.324 77.3016 342.032 76.0437C339.936 74.8932 339.367 72.6169 340.854 69.9056C342.527 66.859 345.772 63.3304 347.184 60.7589C347.935 59.3893 347.605 58.335 346.403 57.6754C343.803 56.2487 337.384 58.0718 333.583 59.6956L335.917 55.3759C338.604 54.5227 345.573 52.8919 349.263 54.9168C352.281 56.5735 352.669 59.114 351.381 61.4619C349.8 64.3409 346.623 67.9434 345.028 70.8503C344.629 71.577 344.744 72.2949 345.443 72.6784C346.477 73.246 348.19 73.2403 350.138 72.6728L348.465 76.8467ZM336.453 52.9421C335.119 52.3915 332.279 51.2696 330.281 50.5367L331.896 46.7316C332.664 47.1891 333.307 47.5419 334.344 48.0382C336.15 48.9208 340.02 50.3532 341.508 50.6243L341.828 52.6913C341 53.0734 339.382 53.9675 338.508 54.4334L334.003 58.7985C331.791 59.9124 327.248 62.2925 324.647 63.5199L324.154 59.2488C327.111 58.0351 332.889 55.4596 335.499 54.0185L335.953 53.3224L336.453 52.9421ZM339.078 47.3634C339.508 46.5808 339.996 45.7576 340.304 44.7991L344.323 47.1506C342.621 49.1259 337.679 55.9428 334.934 60.946C333.691 63.21 332.387 65.5859 331.128 68.2773C330.88 68.7958 330.424 69.8913 330.143 70.5369L326.313 68.4353C326.722 67.8232 327.287 66.8602 327.532 66.413C329.048 63.7171 330.104 61.8597 332.105 58.4119C333.554 55.9703 338.465 48.4815 339.078 47.3634Z" fill="#FAF7D5"/>
<path d="M373.83 66.8899C373.094 67.442 371.966 68.3744 371.4 68.8182C369.687 70.2192 366.615 72.7352 363.896 74.716C360.19 77.4561 354.43 81.1564 350.676 82.9948L348.182 79.0368C351.673 77.7242 357.756 74.0812 361.511 71.3813C364.02 69.5581 366.801 67.2989 368.161 65.9798C369.028 65.1649 369.878 64.1705 370.286 63.5164L373.83 66.8899ZM364.505 65.4737C367.523 67.9269 371.394 70.2921 375.234 72.1392L372.72 75.2321C369.069 73.4562 364.843 70.7197 362.047 68.4475C360.834 67.4621 359.959 66.6686 359.133 65.9153L361.548 62.742C362.714 63.9361 363.49 64.6492 364.505 65.4737ZM369.197 75.5735C370.703 76.5511 372.565 77.8999 374.174 79.207C375.584 80.3532 377.008 81.634 378.323 82.9487L375.86 85.8777C374.719 84.7037 373.35 83.3038 371.866 82.0973C370.159 80.7098 368.564 79.5373 366.844 78.4684L369.197 75.5735ZM365.486 82.8698C364.73 83.4466 363.938 84.1177 363.495 84.6621C362.611 85.7508 362.665 87.1504 365.337 89.3222C366.995 90.6695 368.843 91.8838 370.861 92.9898L368.183 96.0316C366.637 95.1035 364.858 93.9047 362.879 92.296C358.697 88.8976 357.617 85.6775 359.648 83.1784C360.593 82.0155 361.781 81.0088 362.763 80.2047L365.486 82.8698Z" fill="#FAF7D5"/>
<path d="M379.572 92.558L387.717 98.3245L386.335 100.276L378.19 94.5096L379.572 92.558ZM377.324 95.7326L385.495 101.518L384.113 103.469L375.942 97.6843L377.324 95.7326ZM381.835 82.5189L393.753 90.9569L392.04 93.3769L380.122 84.9389L381.835 82.5189ZM374.828 98.9269L383.494 105.062L381.909 107.3L373.244 101.165L374.828 98.9269ZM384.264 92.442L386.892 94.3028L380.167 103.801L377.539 101.94L384.264 92.442ZM383.309 90.2036L390.465 95.2701L389.01 97.3258L381.854 92.2593L373.987 103.371L371.255 101.436L378.993 90.507L382.685 89.7614L383.309 90.2036ZM387.371 90.1496L389.85 92.6077C388.578 93.1912 387.323 93.7487 386.446 94.1045L384.637 92.0809C385.554 91.5582 386.673 90.7492 387.371 90.1496ZM388.795 77.8753L391.093 80.4788C388.769 82.2713 385.925 83.6953 383.6 84.2758C383.437 83.4573 382.881 81.814 382.507 80.9631C384.589 80.5615 386.922 79.362 388.795 77.8753ZM388.944 83.2935L391.145 85.8677C386.652 89.289 381.355 91.7499 376.669 92.2995C376.754 91.4615 376.728 89.5676 376.613 88.6267C380.673 88.2984 385.18 86.2929 388.944 83.2935ZM388.106 80.6691L396.512 86.62L394.798 89.04L385.196 82.2417L388.106 80.6691ZM396.031 94.9133L394.797 96.6568L399.585 100.047L400.819 98.3032L396.031 94.9133ZM393.065 99.1028L391.83 100.846L396.618 104.236L397.853 102.493L393.065 99.1028ZM398.979 90.7498L397.763 92.4672L402.551 95.8572L403.767 94.1397L398.979 90.7498ZM398.181 86.083L408.59 93.4524L397.572 109.014L387.164 101.644L398.181 86.083ZM393.75 103.377L396.482 105.312L392.171 111.401C391.692 112.077 391.644 112.2 391.956 112.421C392.061 112.495 392.529 112.826 392.659 112.918C393.023 113.176 393.359 112.867 395.354 110.216C395.542 111.053 396.419 112.299 397 113.023C394.197 116.429 392.876 116.861 391.21 115.682C390.768 115.369 390.065 114.871 389.675 114.595C387.541 113.084 387.67 111.964 389.42 109.492L393.75 103.377ZM389.543 101.649L392.145 103.491C389.014 107.252 385.856 109.782 380.592 108.829C380.741 107.957 380.741 106.356 380.493 105.438C384.826 106.435 387.12 104.465 389.543 101.649Z" fill="#FAF7D5"/>
<path d="M418.52 113.437L421.975 115.153L417.368 124.434C416.858 125.463 416.93 125.676 417.872 126.144C418.301 126.357 419.986 127.193 420.5 127.448C421.442 127.916 421.897 127.359 423.982 123.517C424.412 124.442 425.628 125.793 426.4 126.461C423.577 131.289 422.04 132.235 419.184 130.817C418.555 130.505 416.356 129.414 415.757 129.116C412.529 127.514 412.268 126.032 413.913 122.719L418.52 113.437ZM410.738 109.753L414.393 111.567C410.832 117.595 407.265 121.841 398.279 120.584C398.347 119.514 398.07 117.633 397.682 116.55C405.486 117.896 407.914 114.51 410.738 109.753ZM411.141 96.4625L414.792 96.8511C415.043 99.6451 415.025 103.196 414.56 105.35L410.553 105.034C411.088 102.95 411.277 99.3424 411.141 96.4625ZM430.299 104.263L433.331 107.334C430.813 109.252 427.967 111.257 425.889 112.432L423.457 109.801C425.563 108.498 428.451 106.193 430.299 104.263ZM405.059 103.553L430.876 116.367L429.275 119.594L403.457 106.78L405.059 103.553ZM421.285 98.5431L424.769 100.272L418.915 112.067L415.431 110.338L421.285 98.5431Z" fill="#FAF7D5"/>
<path d="M457.686 118.764C457.333 119.015 456.484 119.74 455.999 120.283C453.797 122.739 450.18 126.1 446.567 128.25C441.873 131.014 436.051 133.231 430.625 133.865L428.577 129.546C434.082 129.375 439.975 127.249 443.871 125.059C446.626 123.461 449.474 121.087 450.89 119.174C449.62 118.748 441.912 116.162 440.612 115.726C439.373 115.31 437.66 114.904 436.974 114.741L438.425 110.418C439.2 110.813 441.044 111.533 441.92 111.827C443.522 112.364 451.261 114.96 452.591 115.407C453.921 115.853 455.15 116.097 455.856 116.099L457.686 118.764ZM447.801 125.873C450.063 129.457 452.844 135.401 453.998 138.478L449.548 140.315C448.356 136.451 446.268 131.748 444.017 127.731L447.801 125.873Z" fill="#FAF7D5"/>
<path d="M485.078 122.638C484.878 123.574 485.467 124.482 486.402 124.682C487.337 124.882 488.277 124.3 488.477 123.365C488.677 122.429 488.064 121.483 487.128 121.283C486.193 121.083 485.278 121.703 485.078 122.638ZM483.176 122.232C483.603 120.236 485.539 118.955 487.535 119.381C489.53 119.808 490.805 121.776 490.379 123.771C489.952 125.767 487.991 127.01 485.995 126.584C484 126.157 482.75 124.227 483.176 122.232ZM479.14 120.065C478.953 120.482 478.44 121.969 478.273 122.749C477.88 124.588 477.313 127.239 476.927 129.047C476.387 131.573 474.401 140.864 473.841 143.483C473.455 145.292 472.155 146.188 469.941 145.714C468.288 145.361 466.462 144.906 464.943 144.385L465.395 140.439C466.652 140.968 468.003 141.355 468.783 141.522C469.594 141.695 469.934 141.474 470.139 140.67C470.423 139.492 472.529 129.64 472.842 128.174C473.075 127.083 473.789 123.747 474.195 121.845C474.368 121.034 474.499 119.66 474.525 119.079L479.14 120.065ZM462.796 121.788C463.704 122.113 464.776 122.44 465.742 122.646C467.644 123.053 482.766 126.285 485.011 126.765C485.884 126.951 487.245 127.144 488.107 127.231L487.234 131.315C486.287 131.015 485.078 130.724 484.236 130.544C481.991 130.064 466.994 126.859 464.936 126.419C464.001 126.219 462.809 125.997 461.916 125.904L462.796 121.788ZM468.94 131.937C466.92 134.375 463.147 137.839 461.07 139.319L458.158 136.316C460.674 134.768 463.901 131.871 465.746 129.494L468.94 131.937ZM482.696 133.019C483.86 135.354 485.515 139.816 486.275 142.359L482.194 143.606C481.427 140.638 480.019 136.392 478.905 134.132L482.696 133.019Z" fill="#FAF7D5"/>
<path d="M504.547 130.501C504.982 131.905 506.014 136.243 506.276 137.754L502.349 138.581C502.127 137.011 501.213 133.009 500.66 131.269L504.547 130.501ZM515.937 134.238C515.458 135.239 515.185 135.879 514.916 136.488C513.695 139.581 511.923 142.701 509.428 145.185C506.007 148.645 501.756 150.781 497.876 151.742L494.977 147.942C498.544 147.424 503.274 145.573 506.28 142.607C508.763 140.218 510.839 136.204 511.685 132.261L515.937 134.238ZM497.002 131.229C497.591 132.942 498.659 136.995 499.038 138.842L495.001 139.783C494.704 138.043 493.62 133.602 493.031 132.147L497.002 131.229Z" fill="#FAF7D5"/>
<path d="M527.708 148.721C527.859 146.271 528.67 133.096 528.835 130.423C528.906 129.277 528.906 127.712 528.754 126.553L533.719 126.858C533.521 127.996 533.277 129.355 533.195 130.691C532.979 134.192 532.245 146.637 532.1 148.992C532.045 149.883 532.035 152.118 532.114 153.433L527.117 153.125C527.416 151.898 527.632 149.962 527.708 148.721ZM532.002 135.026C536.162 136.464 542.881 139.402 545.905 141.121L543.851 145.435C540.338 143.334 535.117 140.968 531.719 139.609L532.002 135.026Z" fill="#FAF7D5"/>
<path d="M565.461 127.783C565.182 128.957 564.729 130.829 563.789 133.106C563.087 134.654 562.125 136.452 561.206 137.709C562.075 137.344 563.769 137.156 564.853 137.178C567.498 137.233 569.474 138.836 569.413 141.801C569.378 143.522 569.401 146.999 569.392 149.007L565.567 148.928C565.725 147.433 565.845 144.725 565.848 143.003C565.891 140.962 564.629 140.267 563.291 140.239C561.537 140.203 559.507 141.213 558.272 142.336C557.296 143.272 556.38 144.402 555.267 145.782L551.909 143.161C556.067 139.484 558.593 136.092 560.004 132.613C560.677 130.905 561.132 128.969 561.261 127.345L565.461 127.783ZM553.382 130.499C555.004 130.756 557.36 130.932 558.986 130.966C563.193 131.053 568.968 130.949 573.607 130.215L573.499 133.912C568.991 134.457 562.578 134.612 558.689 134.531C557.382 134.504 555.056 134.392 553.306 134.197L553.382 130.499ZM578.442 140.074C577.448 140.34 575.713 140.942 574.621 141.334C572.532 142.088 569.64 143.177 566.612 144.645C563.68 146.083 562.09 147.422 562.054 149.175C562.017 150.928 563.538 151.438 566.63 151.502C569.339 151.558 572.917 151.281 575.734 150.765L575.521 154.874C573.379 155.117 569.485 155.324 566.456 155.261C561.483 155.158 557.78 153.838 557.864 149.726C557.956 145.295 562.568 142.775 566.433 140.942C569.397 139.472 571.421 138.749 573.353 137.896C574.607 137.379 575.733 136.892 576.957 136.312L578.442 140.074Z" fill="#FAF7D5"/>
<path d="M581.6 130.423L587.646 130.43L594.014 146.016L594.286 146.017L600.689 130.444L606.735 130.451L606.709 153.639L601.954 153.634L601.971 138.541L601.778 138.541L595.761 153.514L592.522 153.51L586.539 138.467L586.346 138.467L586.329 153.616L581.574 153.611L581.6 130.423Z" fill="#FAF7D5"/>
<path d="M615.287 153.599L610.033 153.606L618.009 130.407L624.327 130.4L632.35 153.578L627.096 153.584L621.265 135.702L621.084 135.702L615.287 153.599ZM614.947 144.485L627.356 144.469L627.361 148.296L614.952 148.312L614.947 144.485Z" fill="#FAF7D5"/>
<path d="M635.463 153.6L635.075 130.416L644.222 130.263C645.981 130.233 647.485 130.544 648.734 131.195C649.982 131.838 650.941 132.747 651.61 133.921C652.286 135.088 652.637 136.441 652.663 137.98C652.689 139.52 652.38 140.884 651.735 142.072C651.091 143.261 650.144 144.194 648.894 144.872C647.652 145.549 646.141 145.903 644.36 145.933L638.53 146.03L638.464 142.102L643.502 142.018C644.445 142.002 645.22 141.827 645.826 141.492C646.439 141.149 646.892 140.685 647.184 140.099C647.483 139.505 647.627 138.827 647.614 138.065C647.601 137.295 647.435 136.626 647.116 136.057C646.805 135.481 646.337 135.04 645.713 134.733C645.088 134.419 644.301 134.27 643.35 134.286L640.044 134.341L640.365 153.519L635.463 153.6Z" fill="#FAF7D5"/>
<path d="M667.105 130.24C671.056 130.491 677.403 129.86 680.775 129.194L681.079 133.296C677.228 133.965 671.441 134.395 667.439 134.308L667.105 130.24ZM670.656 143.629C670.482 144.729 670.411 145.501 670.473 146.328C670.579 147.759 671.883 148.525 675.126 148.285C677.956 148.075 680.29 147.646 683.011 146.836L683.425 151.122C681.389 151.688 678.83 152.102 675.237 152.369C669.768 152.775 666.983 150.999 666.742 147.756C666.648 146.484 666.746 145.23 667.008 143.58L670.656 143.629ZM662.05 128.473C661.877 129.158 661.584 130.81 661.499 131.392C661.21 133.523 660.569 139.965 660.805 143.145C660.852 143.781 660.943 144.573 661.085 145.202C661.482 144.086 661.911 142.967 662.307 141.85L664.394 143.262C663.67 146.001 662.876 149.513 662.683 151.222C662.623 151.706 662.58 152.413 662.603 152.731C662.661 153.078 662.701 153.619 662.766 154.061L659.126 154.555C658.329 152.44 657.437 148.606 657.117 144.282C656.76 139.48 657.318 134.068 657.484 131.562C657.547 130.694 657.616 129.474 657.573 128.454L662.05 128.473Z" fill="#FAF7D5"/>
<path d="M683.809 126.369L709.269 120.568L709.991 123.738L684.531 129.54L683.809 126.369ZM686.322 130.799L709.14 125.6L709.82 128.584L687.002 133.784L686.322 130.799ZM684.812 136.081L712.417 129.791L713.139 132.962L685.534 139.252L684.812 136.081ZM694.035 121.88L697.828 121.016L701.058 135.192L697.265 136.056L694.035 121.88ZM696.956 134.557L700.536 135.343C698.025 139.676 693.238 144.07 688.532 146.81C687.767 146.036 686.398 144.909 685.444 144.309C690.065 141.915 694.865 138.009 696.956 134.557ZM702.469 133.922C705.495 139.74 709.973 143.461 716.794 143.836C716.125 144.774 715.422 146.569 715.128 147.715C707.612 146.877 702.985 142.503 699.229 135.347L702.469 133.922ZM710.075 134.151L713.684 135.781C711.735 137.991 709.326 140.338 707.422 141.884L704.606 140.433C706.413 138.746 708.757 136.119 710.075 134.151ZM690.156 149.775C693.768 148.265 699.219 145.781 704.273 143.419L705.38 146.699C700.754 148.93 695.732 151.284 692.068 153.002L690.156 149.775ZM692.977 142.494L694.873 139.479L696.225 139.53L698.265 148.483L694.535 149.333L692.977 142.494Z" fill="#FAF7D5"/>
<path d="M725.397 123.529L729.127 121.58L735.416 133.619C736.405 135.512 736.483 136.695 735.479 137.939C734.416 139.142 732.581 140.173 730.094 141.472C729.406 140.5 728.072 139.254 727.032 138.503C728.687 137.746 730.694 136.698 731.216 136.389C731.753 136.109 731.863 135.907 731.642 135.483L725.397 123.529ZM720.475 130.633L724.523 129.706C725.008 133.733 724.703 138.245 723.818 141.441C722.787 141.188 720.731 141.039 719.619 141.045C720.679 138.117 720.964 134.118 720.475 130.633ZM734.505 124.85L737.004 121.854C740.242 123.508 744.121 125.906 746.139 127.909L743.447 131.294C741.571 129.288 737.745 126.647 734.505 124.85ZM712.598 119.136L732.634 108.669L734.391 112.032L714.355 122.499L712.598 119.136ZM713.584 127.29L738.848 114.092L740.62 117.483L715.356 130.681L713.584 127.29Z" fill="#FAF7D5"/>
</svg>
