<svg width="321" height="88" viewBox="0 0 321 88" fill="none" xmlns="http://www.w3.org/2000/svg">
<path d="M14.2492 17.7281L19.01 21.4688L18.1137 22.6096L13.3529 18.8689L14.2492 17.7281ZM12.7912 19.5838L17.5672 23.3364L16.6709 24.4772L11.8948 20.7246L12.7912 19.5838ZM15.9245 11.7135L22.8909 17.1871L21.7794 18.6016L14.8131 13.1281L15.9245 11.7135ZM11.1821 21.4438L16.2472 25.4235L15.2194 26.7316L10.1543 22.7519L11.1821 21.4438ZM17.0957 17.7998L18.632 19.0069L14.2698 24.5587L12.7336 23.3516L17.0957 17.7998ZM16.5851 16.4146L20.7679 19.7011L19.8238 20.9028L15.6409 17.6162L10.5378 24.1111L8.94074 22.8562L13.9602 16.4678L16.22 16.1278L16.5851 16.4146ZM19.0481 16.5048L20.4757 18.0693C19.6869 18.3844 18.9101 18.6842 18.3679 18.8733L17.3326 17.5923C17.904 17.3033 18.607 16.847 19.0481 16.5048ZM20.2823 9.11034L21.5958 10.7574C20.1334 11.7732 18.3669 12.5501 16.9403 12.8315C16.8665 12.3306 16.5796 11.318 16.3786 10.7911C17.652 10.6107 19.1024 9.95452 20.2823 9.11034ZM20.2084 12.398L21.4644 14.0244C18.6385 15.9615 15.3541 17.2925 12.4978 17.4837C12.5749 16.9785 12.6162 15.8301 12.5749 15.2564C15.0456 15.1804 17.8367 14.1015 20.2084 12.398ZM19.7803 10.7824L24.6933 14.6426L23.5819 16.0572L17.9692 11.6472L19.7803 10.7824ZM24.1512 19.6533L23.3505 20.6724L26.1492 22.8714L26.9499 21.8523L24.1512 19.6533ZM22.2271 22.1022L21.4263 23.1213L24.2251 25.3203L25.0258 24.3012L22.2271 22.1022ZM26.0633 17.2197L25.2746 18.2236L28.0733 20.4225L28.8621 19.4187L26.0633 17.2197ZM25.7211 14.3677L31.8053 19.1481L24.6586 28.244L18.5744 23.4636L25.7211 14.3677ZM22.5128 24.713L24.1099 25.9678L21.3133 29.5271C21.0026 29.9226 20.97 29.9953 21.1526 30.1388C21.2134 30.1866 21.4872 30.4017 21.5632 30.4614C21.7762 30.6287 21.9891 30.4517 23.2777 28.9056C23.3668 29.4184 23.86 30.1996 24.1903 30.6559C22.3889 32.6354 21.5752 32.8571 20.6017 32.0922C20.3431 31.889 19.9325 31.5664 19.7043 31.3871C18.457 30.4071 18.569 29.7324 19.7043 28.2874L22.5128 24.713ZM20.0161 23.5385L21.5372 24.7336C19.5261 26.9174 17.5357 28.3548 14.3752 27.6182C14.4915 27.0945 14.5404 26.1243 14.4176 25.5604C17.0131 26.296 18.4625 25.1715 20.0161 23.5385Z" fill="#7BADEF"/>
<path d="M36.3102 35.658L37.9401 37.3379L33.428 41.7156C32.9282 42.2005 32.9261 42.3373 33.3706 42.7954C33.5727 43.0037 34.3674 43.8228 34.6099 44.0727C35.0544 44.5308 35.4271 44.3039 37.3965 42.5279C37.4556 43.1444 37.8779 44.1631 38.1844 44.7012C35.5932 46.8919 34.5227 47.1219 33.1757 45.7336C32.8794 45.4282 31.8422 44.3592 31.5593 44.0676C30.0372 42.4988 30.1877 41.5982 31.7981 40.0357L36.3102 35.658ZM32.6039 31.9768L34.3281 33.7539C31.0721 36.4817 28.1735 38.1889 23.2872 35.6527C23.5425 35.0546 23.7648 33.9225 23.7616 33.2248C27.9532 35.5727 30.027 34.1266 32.6039 31.9768ZM35.5219 24.456L37.532 25.4166C37.1104 27.0655 36.3821 29.0928 35.6809 30.2313L33.4524 29.24C34.1801 28.1566 35.0178 26.131 35.5219 24.456ZM44.9034 32.792L46.0166 35.1617C44.1883 35.7497 42.1551 36.3209 40.7286 36.5729L39.8696 34.5764C41.3382 34.2566 43.4559 33.5225 44.9034 32.792ZM30.6092 27.2819L42.786 39.8324L41.2172 41.3545L29.0404 28.804L30.6092 27.2819ZM40.9038 27.6974L42.5471 29.3912L36.8133 34.9542L35.17 33.2605L40.9038 27.6974Z" fill="#7BADEF"/>
<path d="M59.1503 47.5094C58.9033 47.6002 58.2912 47.8889 57.9206 48.1297C56.2395 49.2159 53.5868 50.6063 51.1285 51.2888C47.9402 52.1579 44.1787 52.527 40.9015 52.0332L40.3913 49.1782C43.6412 49.9563 47.4294 49.6516 50.0594 48.9908C51.9273 48.495 53.9729 47.5596 55.1065 46.6656C54.4312 46.2138 50.3317 43.4706 49.6404 43.0081C48.9812 42.567 48.0432 42.0557 47.668 41.8512L49.2063 39.5522C49.5974 39.907 50.5619 40.6222 51.0281 40.9342C51.8801 41.5043 55.9958 44.2582 56.7032 44.7315C57.4106 45.2049 58.0913 45.544 58.5043 45.6574L59.1503 47.5094ZM52.2303 50.0943C52.9826 52.5528 53.6627 56.4758 53.8471 58.4611L50.9493 58.8264C50.8677 56.3744 50.3954 53.2887 49.7187 50.5782L52.2303 50.0943Z" fill="#7BADEF"/>
<path d="M76.3323 50.8899C76.1909 51.4527 76.5281 52.0161 77.0909 52.1575C77.6538 52.2988 78.2359 51.9664 78.3773 51.4035C78.5186 50.8407 78.1674 50.2539 77.6046 50.1125C77.0417 49.9711 76.4737 50.3271 76.3323 50.8899ZM75.1879 50.6025C75.4895 49.4018 76.6913 48.6665 77.892 48.9681C79.0927 49.2697 79.8233 50.4903 79.5217 51.691C79.2201 52.8917 78.0042 53.6035 76.8035 53.3019C75.6028 53.0003 74.8863 51.8032 75.1879 50.6025ZM72.7873 49.2017C72.6651 49.4502 72.3216 50.3413 72.2038 50.8103C71.9258 51.9172 71.5252 53.5119 71.2519 54.6C70.8702 56.1197 69.466 61.7105 69.0701 63.2864C68.7968 64.3746 67.9893 64.8898 66.6573 64.5552C65.6629 64.3054 64.5654 63.9899 63.6557 63.6417L64.0149 61.2588C64.7651 61.6068 65.5765 61.8704 66.0455 61.9882C66.5333 62.1107 66.7446 61.9843 66.8858 61.5012C67.0837 60.793 68.5727 54.8645 68.7942 53.9827C68.9591 53.3261 69.4634 51.3187 69.7508 50.1742C69.8733 49.6864 69.9821 48.8561 70.0107 48.5043L72.7873 49.2017ZM62.8404 49.8945C63.3844 50.1109 64.0269 50.3321 64.6085 50.4782C65.7529 50.7656 74.8521 53.0511 76.2029 53.3904C76.7282 53.5223 77.549 53.6687 78.0697 53.7396L77.4524 56.1973C76.885 55.995 76.158 55.7924 75.6514 55.6652C74.3006 55.3259 65.2765 53.0593 64.0383 52.7483C63.4755 52.6069 62.7578 52.4466 62.2184 52.371L62.8404 49.8945ZM66.3475 56.1804C65.0698 57.6146 62.7077 59.6341 61.4166 60.4865L59.7156 58.6033C61.2742 57.7183 63.2934 56.0316 64.4632 54.6301L66.3475 56.1804ZM74.6646 57.1326C75.3198 58.5736 76.227 61.3145 76.6334 62.8725L74.1321 63.5407C73.7306 61.7246 72.9687 59.1199 72.3416 57.7258L74.6646 57.1326Z" fill="#7BADEF"/>
<path d="M90.3061 56.2609C90.5879 57.1069 91.2695 59.7251 91.4471 60.6381L89.0757 61.1897C88.9213 60.2402 88.316 57.8244 87.9579 56.776L90.3061 56.2609ZM97.2624 58.382C96.9849 58.995 96.8276 59.3871 96.6723 59.76C95.9706 61.6515 94.9359 63.5668 93.454 65.1051C91.4234 67.2478 88.872 68.5975 86.5311 69.2301L84.7242 66.9619C86.8812 66.6021 89.7265 65.4189 91.5116 63.5814C92.9875 62.1007 94.1955 59.6394 94.6584 57.237L97.2624 58.382ZM85.7385 56.7988C86.1179 57.8299 86.8174 60.275 87.0713 61.3904L84.6342 62.0129C84.432 60.9613 83.7179 58.2813 83.3419 57.4061L85.7385 56.7988Z" fill="#7BADEF"/>
<path d="M107.356 66.4322C107.197 64.9512 106.342 56.9886 106.169 55.373C106.095 54.6806 105.936 53.7443 105.727 53.0663L108.727 52.7444C108.725 53.4451 108.717 54.2824 108.804 55.0902C109.031 57.2059 109.857 64.7241 110.01 66.1474C110.068 66.6859 110.289 68.024 110.47 68.8023L107.45 69.1263C107.504 68.3617 107.436 67.1823 107.356 66.4322ZM108.531 57.8043C111.165 58.2415 115.483 59.3151 117.467 60.0361L116.677 62.8251C114.362 61.9256 110.999 61.0414 108.828 60.5739L108.531 57.8043Z" fill="#7BADEF"/>
<path d="M129.347 47.7164C129.423 48.1002 129.531 48.575 129.683 49.0549C129.98 49.9966 130.889 52.5887 131.437 54.1182C132.155 56.1211 133.629 59.3123 134.145 60.7508C134.706 62.3167 133.954 63.9429 131.568 64.7984C128.655 65.8432 126.727 65.281 126.035 63.3509C125.375 61.5119 126.605 59.6118 129.391 58.6127C133.397 57.1761 137.088 58.0716 139.057 58.8042L138.477 61.3137C136.16 60.2953 132.886 59.476 129.772 60.5926C128.498 61.0497 127.964 61.796 128.192 62.4333C128.441 63.1252 129.228 63.3155 130.484 62.8649C131.45 62.5188 132.007 62.0106 131.628 60.9545C131.237 59.862 129.867 56.6746 129.234 54.9084C128.607 53.1604 127.796 50.8414 127.424 49.8035C127.306 49.4758 127.067 48.9244 126.87 48.6045L129.347 47.7164ZM122.398 52.1198C123.769 51.8747 125.928 51.3058 127.039 50.9074C129.515 50.0193 131.855 49.0364 134.363 47.6642L135.089 49.7465C133.323 50.6675 130.506 51.9243 127.775 52.9038C126.61 53.3217 124.439 53.9154 123.185 54.2007L122.398 52.1198ZM123.699 56.092C124.979 55.8795 127.246 55.2103 128.211 54.8642C131.58 53.6561 133.85 52.5952 135.985 51.5007L136.738 53.6558C134.329 54.8483 132.384 55.6693 128.924 56.91C127.85 57.2953 125.76 57.9422 124.506 58.2275L123.699 56.092Z" fill="#7BADEF"/>
<path d="M153.079 40.7639C152.717 41.3555 152.339 41.9563 151.875 42.6031C151.105 43.7012 149.522 45.8556 148.5 47.7062C147.585 49.3889 147.166 50.8912 147.801 52.0651C148.463 53.2901 150.013 53.3093 152.378 52.0299C154.114 51.091 156.263 49.5762 157.584 48.3997L158.893 50.8588C157.558 51.8886 155.873 53.0422 153.661 54.2388C150.259 56.0797 147.174 56.5169 145.591 53.5905C144.422 51.4298 145.185 49.0596 146.492 46.6372C147.528 44.6909 149.101 42.4763 149.817 41.3193C150.261 40.5953 150.581 40.0483 150.83 39.4517L153.079 40.7639ZM142.552 41.7529C144.592 43.5739 146.769 45.0357 148.342 46.0322L147.01 48.2044C145.236 47.1624 143.01 45.4859 140.887 43.7974L142.552 41.7529Z" fill="#7BADEF"/>
<path d="M167.54 28.9878C167.619 29.5512 167.875 30.4802 167.972 30.9487C168.732 34.3846 169.352 38.5542 168.7 41.4699C168.075 44.2648 167.399 45.7094 165.797 46.4844C164.352 47.1836 162.438 46.6049 161.352 44.3586C160.223 42.0252 160.359 38.8865 161.765 36.5949C163.047 34.492 164.595 33.2059 166.458 32.3045C170.045 30.5692 173.793 31.7428 175.545 35.3648C177.331 39.0564 175.73 42.4528 172.36 44.7707L170.059 43.391C173.73 41.2068 174.284 38.5321 173.231 36.3554C172.085 33.9872 169.674 33.1338 167.167 34.3469C165.356 35.223 164.265 36.567 163.476 38.0448C162.581 39.6596 162.606 41.7536 163.296 43.1815C163.709 44.0347 164.336 44.3976 164.945 44.1028C165.851 43.6647 166.27 42.087 166.51 40.2733C166.898 37.6569 166.358 33.9643 165.688 31.6456C165.531 31.0985 165.229 30.3418 165.01 29.9323L167.54 28.9878ZM160.469 33.1173C160.843 33.6673 161.26 34.1745 161.643 34.6121C163.127 36.3012 165.339 38.519 166.746 39.3852C167.793 40.0391 169.142 40.7403 170.331 41.1105L169.237 43.3802C168.188 42.9426 167.345 42.5336 166.358 41.9151C164.546 40.8792 162.154 38.5985 160.106 36.4088C159.62 35.892 159.141 35.4359 158.524 34.9607L160.469 33.1173Z" fill="#7BADEF"/>
<path d="M187.1 27.9402L193.216 26.1807L193.821 28.2813L187.705 30.0408L187.1 27.9402ZM186.189 28.2022L188.439 27.5551L190.546 34.8795C190.776 35.6789 190.975 35.7423 191.867 35.4856C192.276 35.3679 194.005 34.8706 194.507 34.7262C195.344 34.4855 195.37 34.0152 194.807 31.6408C195.416 31.8682 196.471 31.9672 197.146 31.9341C197.755 35.1002 197.385 36.193 195.284 36.7973C194.764 36.947 192.682 37.546 192.198 37.6851C189.875 38.3536 188.981 37.9061 188.296 35.5266L186.189 28.2022ZM184.401 22.1951L192.58 19.842L195.19 28.9139L192.941 29.561L190.941 22.6084L185.01 24.3144L184.401 22.1951ZM178.302 29.1226L184.307 27.3952L184.788 29.0683L178.783 30.7957L178.302 29.1226ZM176.938 23.9597L182.886 22.2484L183.373 23.9401L177.424 25.6514L176.938 23.9597ZM179.029 31.6509L185.034 29.9235L185.521 31.6151L179.516 33.3425L179.029 31.6509ZM176.637 26.7635L184.296 24.5601L184.804 26.3262L177.145 28.5295L176.637 26.7635ZM180.795 33.9407L185.722 32.5235L187.347 38.1748L182.421 39.592L181.913 37.826L184.887 36.9703L184.278 34.8511L181.303 35.7067L180.795 33.9407ZM179.717 34.2509L181.65 33.6947L183.49 40.0896L181.557 40.6458L179.717 34.2509Z" fill="#7BADEF"/>
<path d="M205.452 17.3095L207.809 17.182L208.671 33.1174C208.733 34.257 208.468 34.7362 207.752 35.1043C207.014 35.4348 205.973 35.5299 204.331 35.6188C204.186 35.0842 203.775 34.2928 203.46 33.8449C204.39 33.8334 205.528 33.7524 205.857 33.7346C206.223 33.6954 206.332 33.5732 206.314 33.2449L205.452 17.3095ZM198.277 18.957L215.274 18.0371L215.374 19.8721L198.376 20.792L198.277 18.957ZM202.689 22.8058L202.739 23.7329L211.276 23.2709L211.226 22.3437L202.689 22.8058ZM200.407 21.457L213.523 20.7472L213.732 24.6103L200.616 25.3201L200.407 21.457ZM200.179 26.1961L214.106 25.4424L214.515 32.9948L212.158 33.1223L211.835 27.1538L200.265 27.78L200.179 26.1961ZM198.358 28.6968L216.244 27.7288L216.34 29.4866L198.453 30.4545L198.358 28.6968ZM200.299 31.2652L213.279 30.5627L213.37 32.2431L200.39 32.9456L200.299 31.2652Z" fill="#7BADEF"/>
<path d="M230.523 22.8383C230.203 23.2438 229.835 23.7544 229.541 24.1507C228.995 24.8558 228.274 25.8419 227.661 26.6438C225.922 28.8394 222.173 33.1677 218.943 35.2599L217.079 33.2702C220.48 31.4509 223.968 27.4489 225.497 25.4746C226.571 24.0562 227.464 22.6593 228.064 21.3385L230.523 22.8383ZM235.736 27.4316C236.087 29.4569 236.024 33.4043 235.783 35.3223L233.074 35.3081C233.534 33.1513 233.742 29.4861 233.216 27.3352L235.736 27.4316ZM221.745 23.0881C222.359 23.4197 222.962 23.6825 223.618 23.9699C225.035 24.5942 228.541 25.7751 229.836 26.385C231.691 27.2586 232.616 28.6992 231.421 31.2367C230.449 33.3018 228.851 36.0132 227.407 37.1721C226.253 38.1252 225.091 38.0486 223.779 37.4305C223.096 37.1091 222.323 36.6168 221.794 36.1966L222.497 33.7052C223.089 34.2191 224.004 34.8639 224.459 35.0782C225.054 35.3584 225.592 35.3976 226.126 34.9438C227.078 34.1945 228.311 32.1666 229.118 30.4516C229.778 29.0515 229.281 28.5613 228.179 28.0421C227.146 27.5559 223.937 26.5151 222.917 26.1843C222.377 26.0153 221.409 25.7092 220.843 25.5495L221.745 23.0881ZM236.558 24.8682C236.699 25.7043 236.784 27.1128 236.812 27.9169L235.132 27.8526C235.102 26.962 235.046 25.674 234.895 24.7689L236.558 24.8682ZM239.003 25.0357C239.144 25.915 239.264 27.34 239.291 28.1008L237.611 28.0365C237.607 27.1367 237.507 25.8497 237.348 24.9622L239.003 25.0357Z" fill="#7BADEF"/>
<path d="M245.576 35.4006L256.261 37.6989L255.48 41.3299L253.38 40.8783L253.783 39.0061L247.202 37.5905L246.799 39.4627L244.795 39.0315L245.576 35.4006ZM250.88 39.3511L252.979 39.8026L251.86 45.0032C251.742 45.5516 251.749 45.6124 252.032 45.6735C252.146 45.6979 252.581 45.7914 252.713 45.8199C253.016 45.885 253.157 45.5987 253.646 43.5077C253.97 43.9335 254.8 44.4881 255.32 44.7384C254.548 47.5007 253.856 48.1432 252.513 47.8544C252.192 47.7853 251.549 47.6469 251.246 47.5819C249.563 47.2198 249.342 46.4995 249.757 44.5706L250.88 39.3511ZM247.517 38.6081L249.635 39.0637C248.649 43.0066 247.566 45.4646 243.735 46.1642C243.626 45.5669 243.204 44.5858 242.825 44.0491C246.03 43.5909 246.731 41.8027 247.517 38.6081ZM247.016 29.7152L257.361 31.9403L256.966 33.7747L246.622 31.5496L247.016 29.7152ZM247.002 32.8185L256.155 34.7873L255.76 36.6217L246.607 34.6529L247.002 32.8185ZM251.24 29.12L253.491 29.604L252.339 34.9559L250.089 34.4719L251.24 29.12ZM239.889 32.7724L245.165 33.9074L244.799 35.6094L239.522 34.4745L239.889 32.7724ZM241.125 27.5773L246.231 28.6756L245.861 30.3966L240.755 29.2983L241.125 27.5773ZM239.335 35.3444L244.612 36.4793L244.241 38.2002L238.965 37.0653L239.335 35.3444ZM239.611 29.9229L246.306 31.3629L245.919 33.1595L239.225 31.7195L239.611 29.9229ZM239.81 38.1968L244.084 39.1161L242.856 44.8273L238.582 43.908L238.964 42.1303L241.385 42.651L241.848 40.4951L239.428 39.9744L239.81 38.1968ZM238.713 37.9608L240.567 38.3595L239.167 44.865L237.314 44.4663L238.713 37.9608Z" fill="#7BADEF"/>
<path d="M273.643 36.7039C273.294 37.1532 272.806 37.9841 272.538 38.3806C270.603 41.3194 268.044 44.6693 265.498 46.2327C263.058 47.7317 261.55 48.253 259.878 47.6437C258.369 47.094 257.452 45.3185 258.306 42.9739C259.193 40.5385 261.54 38.4494 264.163 37.8611C266.565 37.3157 268.566 37.5302 270.511 38.2388C274.255 39.603 276.024 43.1095 274.647 46.8899C273.243 50.7429 269.69 51.9603 265.68 51.1577L265.067 48.5461C269.191 49.6578 271.496 48.1917 272.324 45.9199C273.224 43.4481 272.156 41.1237 269.539 40.1701C267.649 39.4814 265.925 39.6356 264.315 40.0989C262.533 40.582 261.048 42.0585 260.505 43.5488C260.181 44.4394 260.357 45.1419 260.993 45.3737C261.938 45.718 263.362 44.9191 264.83 43.8276C266.978 42.2838 269.251 39.3238 270.447 37.2273C270.73 36.7334 271.062 35.9899 271.203 35.5471L273.643 36.7039ZM265.755 34.5089C265.621 35.16 265.548 35.8127 265.501 36.3928C265.323 38.6337 265.273 41.7654 265.632 43.3787C265.892 44.5853 266.329 46.0415 266.892 47.1525L264.502 47.9492C264.084 46.8912 263.791 46.0019 263.547 44.863C263.028 42.8415 262.997 39.5361 263.141 36.5416C263.173 35.8327 263.167 35.1716 263.078 34.3981L265.755 34.5089Z" fill="#7BADEF"/>
<path d="M285.328 44.1374C285.733 44.502 286.243 44.919 286.682 45.2366C287.528 45.8491 290.922 48.1869 291.872 48.7551C292.564 49.1846 292.97 49.3828 293.203 49.4562L293.185 51.5924C292.654 51.5665 292.119 51.5137 291.582 51.5305C290.305 51.5134 287.661 51.7012 286.091 51.7587C286.726 52.0033 287.219 52.3123 287.705 52.6639C290.368 54.5923 291.187 57.7165 289.543 59.9884C287.75 62.4641 284.452 63.0616 280.66 60.3165C278.482 58.7398 277.552 56.5616 278.697 54.979C279.616 53.7098 281.615 53.3897 283.276 54.5921C285.423 56.1462 285.57 58.4498 284.369 60.2074L282.366 59.1153C283.151 57.9644 283.123 56.7499 282.198 56.0807C281.619 55.661 280.966 55.7378 280.671 56.1452C280.251 56.7249 280.61 57.5817 281.566 58.2736C284.214 60.1907 286.287 60.1634 287.501 58.4868C288.533 57.0609 287.815 55.0842 285.982 53.7571C283.569 52.0102 281.088 52.1721 278.038 52.8543L277.679 50.3492C279.427 50.2771 282.48 50.0514 283.944 49.9415C285.343 49.856 287.941 49.7308 289.208 49.5972C288.387 49.05 286.168 47.563 285.276 47.0132C284.83 46.7382 284.322 46.4179 283.916 46.2197L285.328 44.1374Z" fill="#7BADEF"/>
<path d="M300.366 66.499L303.25 60.5238L304.612 57.9819L307.373 59.5831L305.844 62.0279L302.09 67.4985L300.366 66.499ZM298.646 71.4715C297.775 70.9669 297.515 69.9887 298.02 69.1185C298.525 68.2484 299.51 68.0147 300.363 68.5096C301.2 68.9948 301.486 69.966 300.982 70.8361C300.477 71.7063 299.482 71.9567 298.646 71.4715Z" fill="#7BADEF"/>
</svg>
