<svg width="497" height="136" viewBox="0 0 497 136" fill="none" xmlns="http://www.w3.org/2000/svg">
<path d="M21.6226 28.6354L28.9987 34.4309L27.61 36.1983L20.2339 30.4028L21.6226 28.6354ZM19.3636 31.5104L26.7633 37.3244L25.3746 39.0919L17.9749 33.2778L19.3636 31.5104ZM24.2182 19.3167L35.0114 27.7971L33.2894 29.9887L22.4962 21.5083L24.2182 19.3167ZM16.8707 34.3922L24.7181 40.558L23.1258 42.5847L15.2783 36.4188L16.8707 34.3922ZM26.0328 28.7464L28.4129 30.6166L21.6546 39.2181L19.2744 37.348L26.0328 28.7464ZM25.2416 26.6003L31.7223 31.6922L30.2595 33.5539L23.7789 28.462L15.8725 38.5246L13.3981 36.5804L21.1748 26.6827L24.676 26.1559L25.2416 26.6003ZM29.0576 26.74L31.2695 29.1639C30.0474 29.652 28.8439 30.1166 28.0039 30.4095L26.3997 28.4249C27.2851 27.9772 28.3742 27.2702 29.0576 26.74ZM30.9698 15.2836L33.0049 17.8354C30.7392 19.4093 28.0022 20.6128 25.7921 21.0488C25.6776 20.2728 25.2332 18.704 24.9218 17.8876C26.8946 17.6082 29.1418 16.5915 30.9698 15.2836ZM30.8554 20.3772L32.8012 22.897C28.423 25.8983 23.3345 27.9604 18.9091 28.2566C19.0286 27.4739 19.0926 25.6947 19.0286 24.8059C22.8564 24.6881 27.1808 23.0166 30.8554 20.3772ZM30.1922 17.8741L37.804 23.8548L36.082 26.0465L27.3861 19.214L30.1922 17.8741ZM36.964 31.6181L35.7234 33.197L40.0596 36.604L41.3001 35.0251L36.964 31.6181ZM33.9829 35.4122L32.7423 36.9912L37.0785 40.3981L38.319 38.8192L33.9829 35.4122ZM39.9266 27.8476L38.7045 29.4029L43.0406 32.8099L44.2627 31.2545L39.9266 27.8476ZM39.3963 23.429L48.8227 30.8354L37.7501 44.9278L28.3237 37.5214L39.3963 23.429ZM34.4256 39.4572L36.9 41.4013L32.5673 46.9158C32.0859 47.5285 32.0354 47.6413 32.3182 47.8635C32.4124 47.9375 32.8366 48.2708 32.9544 48.3634C33.2844 48.6226 33.6143 48.3483 35.6107 45.9529C35.7487 46.7475 36.5129 47.9577 37.0246 48.6647C34.2337 51.7316 32.973 52.075 31.4647 50.89C31.0641 50.5752 30.4278 50.0753 30.0743 49.7976C28.1419 48.2792 28.3153 47.2339 30.0743 44.9952L34.4256 39.4572ZM30.5574 37.6375L32.914 39.4891C29.7983 42.8725 26.7145 45.0995 21.8178 43.9583C21.998 43.1469 22.0737 41.6437 21.8835 40.7701C25.9048 41.9097 28.1503 40.1675 30.5574 37.6375Z" fill="#7BADEF"/>
<path d="M55.7296 56.3502L58.2548 58.9529L51.2641 65.7354C50.4898 66.4867 50.4866 66.6986 51.1753 67.4084C51.4883 67.7311 52.7196 69.0002 53.0952 69.3873C53.7839 70.0972 54.3615 69.7456 57.4127 66.994C57.5042 67.9492 58.1586 69.5275 58.6335 70.3612C54.6188 73.7552 52.9603 74.1117 50.8733 71.9607C50.4142 71.4875 48.8073 69.8312 48.369 69.3795C46.0108 66.9489 46.2438 65.5536 48.739 63.1327L55.7296 56.3502ZM49.9874 50.6469L52.6587 53.4002C47.6141 57.6264 43.1233 60.2714 35.5527 56.342C35.9482 55.4154 36.2926 53.6615 36.2878 52.5805C42.7819 56.2181 45.9949 53.9777 49.9874 50.6469ZM54.5084 38.9948L57.6226 40.483C56.9694 43.0377 55.841 46.1786 54.7546 47.9425L51.302 46.4067C52.4294 44.7282 53.7273 41.5899 54.5084 38.9948ZM69.0433 51.9099L70.7681 55.5814C67.9355 56.4923 64.7853 57.3773 62.5752 57.7677L61.2443 54.6744C63.5196 54.179 66.8007 53.0417 69.0433 51.9099ZM46.897 43.3729L65.7628 62.8178L63.3322 65.176L44.4664 45.7311L46.897 43.3729ZM62.8466 44.0167L65.3927 46.6409L56.5091 55.2599L53.9631 52.6357L62.8466 44.0167Z" fill="#7BADEF"/>
<path d="M91.2321 74.8083C90.8495 74.9489 89.9012 75.3962 89.327 75.7693C86.7224 77.4522 82.6125 79.6064 78.8037 80.6638C73.864 82.0103 68.0362 82.5822 62.9587 81.8172L62.1683 77.3937C67.2034 78.5993 73.0726 78.1272 77.1474 77.1034C80.0413 76.3353 83.2107 74.8861 84.967 73.5009C83.9208 72.8009 77.5692 68.5509 76.4982 67.8342C75.4769 67.1509 74.0237 66.3587 73.4423 66.0419L75.8257 62.48C76.4316 63.0296 77.9259 64.1377 78.6482 64.6211C79.9683 65.5044 86.3448 69.7711 87.4408 70.5044C88.5367 71.2378 89.5915 71.7632 90.2312 71.9389L91.2321 74.8083ZM80.5109 78.8131C81.6764 82.6221 82.73 88.7001 83.0157 91.7761L78.5262 92.342C78.3996 88.5431 77.668 83.7623 76.6195 79.5629L80.5109 78.8131Z" fill="#7BADEF"/>
<path d="M118.078 80.1455C117.859 81.0175 118.381 81.8904 119.253 82.1094C120.125 82.3284 121.027 81.8133 121.246 80.9413C121.465 80.0693 120.921 79.1601 120.049 78.9411C119.177 78.722 118.297 79.2735 118.078 80.1455ZM116.305 79.7002C116.772 77.8399 118.634 76.7007 120.494 77.168C122.354 77.6352 123.486 79.5264 123.019 81.3867C122.552 83.247 120.668 84.3497 118.808 83.8825C116.947 83.4152 115.837 81.5605 116.305 79.7002ZM112.585 77.53C112.396 77.915 111.864 79.2955 111.681 80.0222C111.25 81.7371 110.63 84.2078 110.206 85.8937C109.615 88.2482 107.439 96.9102 106.826 99.3518C106.403 101.038 105.152 101.836 103.088 101.318C101.547 100.931 99.8469 100.442 98.4373 99.9022L98.9938 96.2103C100.156 96.7495 101.413 97.1579 102.14 97.3404C102.896 97.5303 103.223 97.3344 103.442 96.5859C103.748 95.4887 106.055 86.3035 106.399 84.9373C106.654 83.92 107.435 80.8098 107.881 79.0367C108.071 78.2809 108.239 76.9946 108.283 76.4494L112.585 77.53ZM97.1743 78.6033C98.0171 78.9386 99.0125 79.2813 99.9136 79.5076C101.687 79.953 115.784 83.4939 117.877 84.0196C118.691 84.224 119.963 84.4507 120.769 84.5606L119.813 88.3684C118.934 88.0549 117.808 87.7411 117.023 87.544C114.93 87.0183 100.949 83.5066 99.0302 83.0248C98.1582 82.8057 97.0463 82.5574 96.2105 82.4401L97.1743 78.6033ZM102.608 88.3422C100.628 90.5643 96.9686 93.6931 94.9683 95.0138L92.3329 92.0961C94.7477 90.725 97.8761 88.1116 99.6884 85.9403L102.608 88.3422ZM115.494 89.8174C116.509 92.0501 117.914 96.2966 118.544 98.7105L114.669 99.7457C114.047 96.932 112.866 92.8965 111.895 90.7366L115.494 89.8174Z" fill="#7BADEF"/>
<path d="M139.829 88.4849C140.266 89.7956 141.322 93.8521 141.597 95.2667L137.923 96.1212C137.683 94.6502 136.746 90.9072 136.191 89.2829L139.829 88.4849ZM150.607 91.7712C150.177 92.721 149.933 93.3284 149.692 93.9061C148.605 96.8366 147.002 99.8041 144.706 102.187C141.56 105.507 137.607 107.598 133.98 108.578L131.181 105.064C134.523 104.507 138.931 102.674 141.697 99.8267C143.983 97.5327 145.855 93.7193 146.572 89.9972L150.607 91.7712ZM132.752 89.3183C133.34 90.9158 134.424 94.7041 134.817 96.4321L131.041 97.3967C130.728 95.7673 129.622 91.6152 129.039 90.2592L132.752 89.3183Z" fill="#7BADEF"/>
<path d="M166.395 104.244C166.149 101.949 164.825 89.6123 164.557 87.1091C164.442 86.0364 164.196 84.5858 163.872 83.5355L168.521 83.0367C168.516 84.1222 168.505 85.4195 168.639 86.6711C168.991 89.949 170.271 101.597 170.508 103.802C170.597 104.637 170.94 106.71 171.22 107.916L166.542 108.418C166.626 107.233 166.52 105.406 166.395 104.244ZM168.216 90.8761C172.298 91.5534 178.987 93.2169 182.061 94.3339L180.836 98.655C177.251 97.2613 172.04 95.8914 168.677 95.1671L168.216 90.8761Z" fill="#7BADEF"/>
<path d="M200.631 75.2079C200.749 75.8025 200.917 76.5381 201.152 77.2817C201.611 78.7406 203.02 82.7567 203.87 85.1264C204.982 88.2295 207.265 93.1738 208.064 95.4024C208.934 97.8285 207.768 100.348 204.073 101.673C199.559 103.292 196.572 102.421 195.5 99.4309C194.478 96.5816 196.383 93.6377 200.7 92.0898C206.906 89.864 212.625 91.2515 215.675 92.3865L214.777 96.2745C211.186 94.6967 206.114 93.4273 201.29 95.1574C199.316 95.8656 198.488 97.0218 198.843 98.0092C199.227 99.0812 200.447 99.376 202.394 98.6779C203.889 98.1416 204.753 97.3543 204.166 95.718C203.559 94.0254 201.437 89.087 200.456 86.3506C199.485 83.6423 198.228 80.0495 197.651 78.4415C197.469 77.9337 197.099 77.0794 196.794 76.5839L200.631 75.2079ZM189.864 82.0302C191.989 81.6504 195.334 80.769 197.055 80.1518C200.892 78.7759 204.516 77.253 208.402 75.1271L209.528 78.3532C206.792 79.7801 202.428 81.7273 198.196 83.2449C196.391 83.8924 193.027 84.8121 191.084 85.2542L189.864 82.0302ZM191.88 88.1844C193.864 87.8552 197.376 86.8183 198.871 86.2821C204.09 84.4104 207.608 82.7667 210.916 81.0709L212.082 84.4099C208.351 86.2575 205.336 87.5295 199.976 89.4518C198.312 90.0487 195.074 91.0509 193.131 91.493L191.88 88.1844Z" fill="#7BADEF"/>
<path d="M237.5 64.3922C236.939 65.3088 236.352 66.2396 235.634 67.2417C234.442 68.9431 231.988 72.2809 230.404 75.1481C228.987 77.7552 228.338 80.0826 229.322 81.9014C230.348 83.7993 232.75 83.8291 236.414 81.8468C239.102 80.3922 242.433 78.0452 244.479 76.2225L246.507 80.0325C244.439 81.628 241.828 83.4153 238.402 85.2692C233.13 88.1214 228.351 88.7987 225.898 84.2648C224.087 80.9172 225.269 77.2449 227.294 73.4918C228.899 70.4764 231.336 67.0452 232.445 65.2527C233.133 64.1309 233.629 63.2835 234.015 62.3591L237.5 64.3922ZM221.189 65.9245C224.351 68.7458 227.723 71.0105 230.16 72.5545L228.096 75.9199C225.349 74.3056 221.899 71.7081 218.609 69.0921L221.189 65.9245Z" fill="#7BADEF"/>
<path d="M259.875 46.1619C259.997 47.0348 260.394 48.4742 260.546 49.2C261.723 54.5234 262.684 60.9834 261.673 65.5008C260.705 69.831 259.657 72.0692 257.175 73.27C254.936 74.3533 251.972 73.4567 250.288 69.9764C248.539 66.3612 248.75 61.4983 250.928 57.9478C252.914 54.6898 255.312 52.6971 258.199 51.3006C263.757 48.612 269.564 50.4304 272.279 56.042C275.045 61.7615 272.564 67.0237 267.343 70.6148L263.779 68.4772C269.466 65.0933 270.324 60.9492 268.693 57.5768C266.918 53.9077 263.182 52.5855 259.297 54.4649C256.491 55.8223 254.802 57.9047 253.579 60.1942C252.193 62.696 252.231 65.9403 253.301 68.1526C253.94 69.4746 254.912 70.0368 255.856 69.58C257.259 68.9013 257.907 66.4569 258.279 63.6469C258.882 59.5933 258.045 53.8722 257.006 50.2797C256.763 49.4321 256.295 48.2598 255.955 47.6254L259.875 46.1619ZM248.92 52.56C249.499 53.412 250.146 54.1979 250.74 54.8758C253.038 57.4929 256.465 60.9289 258.646 62.271C260.268 63.2841 262.358 64.3704 264.2 64.944L262.505 68.4606C260.879 67.7825 259.574 67.1488 258.045 66.1906C255.237 64.5856 251.53 61.0521 248.358 57.6596C247.604 56.8589 246.863 56.1522 245.907 55.4159L248.92 52.56Z" fill="#7BADEF"/>
<path d="M290.068 44.5827L299.543 41.8566L300.48 45.1112L291.004 47.8373L290.068 44.5827ZM288.656 44.9887L292.141 43.9861L295.406 55.334C295.762 56.5725 296.071 56.6707 297.454 56.273C298.087 56.0907 300.766 55.3201 301.543 55.0964C302.84 54.7236 302.879 53.9948 302.008 50.3161C302.952 50.6684 304.586 50.8219 305.632 50.7706C306.575 55.676 306.002 57.369 302.747 58.3053C301.941 58.5373 298.715 59.4653 297.966 59.6807C294.366 60.7164 292.981 60.0232 291.921 56.3366L288.656 44.9887ZM285.885 35.6817L298.558 32.036L302.602 46.0913L299.116 47.0939L296.018 36.322L286.83 38.9652L285.885 35.6817ZM276.436 46.4147L285.739 43.7384L286.485 46.3306L277.182 49.0069L276.436 46.4147ZM274.322 38.4157L283.539 35.7642L284.293 38.3852L275.076 41.0366L274.322 38.4157ZM277.563 50.3317L286.866 47.6554L287.62 50.2764L278.317 52.9527L277.563 50.3317ZM273.857 42.7596L285.723 39.3459L286.51 42.0821L274.644 45.4958L273.857 42.7596ZM280.299 53.8795L287.932 51.6837L290.45 60.4395L282.818 62.6352L282.031 59.8991L286.639 58.5733L285.695 55.2899L281.086 56.6157L280.299 53.8795ZM278.629 54.3601L281.624 53.4983L284.474 63.4062L281.479 64.2679L278.629 54.3601Z" fill="#7BADEF"/>
<path d="M318.341 28.1388L321.992 27.9412L323.328 52.6303C323.423 54.396 323.013 55.1385 321.904 55.7088C320.761 56.2208 319.148 56.3681 316.604 56.5058C316.379 55.6776 315.743 54.4514 315.255 53.7575C316.695 53.7396 318.459 53.6141 318.968 53.5866C319.535 53.5259 319.704 53.3366 319.677 52.8279L318.341 28.1388ZM307.224 30.6913L333.559 29.2661L333.713 32.1091L307.377 33.5343L307.224 30.6913ZM314.059 36.6543L314.137 38.0908L327.364 37.3749L327.287 35.9385L314.059 36.6543ZM310.525 34.5646L330.845 33.4649L331.168 39.4501L310.849 40.5498L310.525 34.5646ZM310.172 41.907L331.748 40.7393L332.382 52.4405L328.731 52.638L328.23 43.3909L310.304 44.361L310.172 41.907ZM307.35 45.7815L335.062 44.2817L335.209 47.005L307.497 48.5047L307.35 45.7815ZM310.357 49.7606L330.467 48.6723L330.608 51.2759L310.498 52.3642L310.357 49.7606Z" fill="#7BADEF"/>
<path d="M356.838 36.6377C356.343 37.2661 355.772 38.0571 355.317 38.6711C354.471 39.7635 353.354 41.2914 352.405 42.5337C349.71 45.9354 343.902 52.6413 338.897 55.8828L336.009 52.8002C341.278 49.9815 346.683 43.7811 349.051 40.7223C350.715 38.5247 352.099 36.3604 353.029 34.3141L356.838 36.6377ZM364.915 43.7543C365.458 46.8921 365.361 53.0079 364.988 55.9795L360.792 55.9576C361.504 52.616 361.826 46.9374 361.01 43.6049L364.915 43.7543ZM343.239 37.0247C344.19 37.5386 345.124 37.9456 346.14 38.391C348.335 39.3582 353.768 41.1878 355.774 42.1327C358.648 43.4862 360.081 45.7182 358.23 49.6497C356.723 52.8491 354.248 57.05 352.011 58.8455C350.223 60.3221 348.423 60.2036 346.39 59.2459C345.332 58.7479 344.135 57.9851 343.315 57.3341L344.404 53.4741C345.321 54.2704 346.739 55.2693 347.444 55.6013C348.365 56.0354 349.198 56.0963 350.026 55.3931C351.5 54.2322 353.411 51.0903 354.662 48.4332C355.684 46.2641 354.915 45.5046 353.207 44.7001C351.607 43.9468 346.635 42.3343 345.055 41.8218C344.217 41.56 342.718 41.0858 341.841 40.8383L343.239 37.0247ZM366.189 39.7828C366.408 41.0781 366.539 43.2603 366.582 44.5061L363.979 44.4065C363.933 43.0267 363.846 41.0311 363.612 39.6289L366.189 39.7828ZM369.976 40.0423C370.196 41.4046 370.382 43.6123 370.423 44.7911L367.82 44.6915C367.814 43.2973 367.66 41.3034 367.413 39.9283L369.976 40.0423Z" fill="#7BADEF"/>
<path d="M380.314 56.153L396.869 59.7139L395.659 65.3395L392.407 64.6399L393.03 61.7392L382.834 59.546L382.21 62.4466L379.104 61.7786L380.314 56.153ZM388.532 62.2737L391.784 62.9732L390.051 71.0307C389.868 71.8804 389.879 71.9746 390.318 72.0691C390.494 72.1069 391.168 72.2519 391.373 72.296C391.842 72.3968 392.06 71.9532 392.818 68.7136C393.32 69.3733 394.606 70.2325 395.412 70.6204C394.215 74.9 393.143 75.8956 391.063 75.4481C390.565 75.341 389.568 75.1267 389.1 75.0258C386.492 74.4649 386.149 73.349 386.792 70.3604L388.532 62.2737ZM383.323 61.1225L386.604 61.8284C385.076 67.9372 383.398 71.7455 377.463 72.8294C377.294 71.9041 376.64 70.3839 376.053 69.5524C381.018 68.8425 382.105 66.072 383.323 61.1225ZM382.546 47.3445L398.573 50.7919L397.962 53.634L381.935 50.1866L382.546 47.3445ZM382.524 52.1526L396.705 55.2029L396.094 58.045L381.912 54.9946L382.524 52.1526ZM389.09 46.4223L392.577 47.1723L390.794 55.4642L387.307 54.7142L389.09 46.4223ZM371.503 52.0812L379.678 53.8396L379.111 56.4765L370.936 54.7182L371.503 52.0812ZM373.418 44.0323L381.329 45.7339L380.756 48.4002L372.845 46.6985L373.418 44.0323ZM370.646 56.066L378.821 57.8243L378.247 60.4906L370.073 58.7322L370.646 56.066ZM371.073 47.6663L381.445 49.8974L380.847 52.6808L370.475 50.4498L371.073 47.6663ZM371.382 60.4853L378.003 61.9096L376.1 70.7582L369.478 69.3338L370.071 66.5796L373.821 67.3863L374.539 64.0462L370.789 63.2394L371.382 60.4853ZM369.682 60.1197L372.554 60.7374L370.385 70.8165L367.514 70.1989L369.682 60.1197Z" fill="#7BADEF"/>
<path d="M423.707 58.1452C423.166 58.8413 422.41 60.1288 421.995 60.743C418.996 65.2962 415.031 70.4863 411.086 72.9085C407.306 75.231 404.97 76.0386 402.379 75.0946C400.042 74.243 398.62 71.4921 399.944 67.8596C401.319 64.0863 404.954 60.8496 409.018 59.9382C412.739 59.0931 415.84 59.4254 418.853 60.5233C424.654 62.637 427.395 68.0696 425.261 73.9267C423.086 79.8963 417.582 81.7824 411.368 80.539L410.418 76.4928C416.808 78.2151 420.379 75.9437 421.662 72.4238C423.057 68.5942 421.403 64.9931 417.348 63.5156C414.419 62.4485 411.749 62.6874 409.254 63.4053C406.494 64.1537 404.193 66.4413 403.351 68.7503C402.849 70.1301 403.122 71.2185 404.107 71.5776C405.572 72.1111 407.777 70.8733 410.052 69.1823C413.38 66.7904 416.901 62.2043 418.754 58.9562C419.192 58.1909 419.708 57.039 419.926 56.3529L423.707 58.1452ZM411.485 54.7445C411.277 55.7532 411.164 56.7646 411.091 57.6633C410.815 61.1351 410.738 65.9872 411.294 68.4867C411.698 70.3561 412.375 72.6123 413.247 74.3336L409.543 75.5679C408.897 73.9287 408.442 72.5509 408.064 70.7864C407.259 67.6544 407.212 62.5334 407.435 57.8939C407.484 56.7954 407.475 55.7712 407.337 54.5728L411.485 54.7445Z" fill="#7BADEF"/>
<path d="M441.634 69.569C442.261 70.1339 443.051 70.78 443.731 71.2721C445.042 72.2211 450.301 75.8431 451.772 76.7235C452.845 77.3888 453.473 77.6959 453.835 77.8097L453.807 81.1193C452.985 81.0792 452.156 80.9973 451.323 81.0234C449.345 80.9968 445.249 81.2878 442.817 81.3769C443.8 81.7559 444.564 82.2346 445.316 82.7794C449.443 85.7671 450.712 90.6075 448.164 94.1275C445.387 97.9632 440.277 98.8888 434.402 94.6357C431.028 92.1929 429.586 88.8182 431.361 86.3663C432.784 84.3999 435.881 83.904 438.455 85.7669C441.781 88.1746 442.009 91.7436 440.148 94.4667L437.044 92.7747C438.261 90.9916 438.217 89.11 436.785 88.0731C435.887 87.4228 434.876 87.5418 434.419 88.173C433.769 89.0712 434.325 90.3987 435.805 91.4707C439.908 94.4408 443.121 94.3986 445.001 91.801C446.6 89.5919 445.488 86.5293 442.647 84.4731C438.909 81.7666 435.064 82.0174 430.34 83.0744L429.783 79.1931C432.491 79.0814 437.221 78.7318 439.49 78.5615C441.658 78.429 445.683 78.2351 447.646 78.0281C446.373 77.1804 442.935 74.8765 441.554 74.0246C440.863 73.5986 440.075 73.1023 439.447 72.7952L441.634 69.569Z" fill="#7BADEF"/>
<path d="M464.994 104.254L469.462 94.9964L471.572 91.0583L475.85 93.539L473.48 97.3268L467.664 105.803L464.994 104.254ZM462.328 111.958C460.98 111.176 460.577 109.661 461.358 108.313C462.14 106.964 463.667 106.602 464.989 107.369C466.285 108.121 466.729 109.626 465.947 110.974C465.166 112.322 463.624 112.71 462.328 111.958Z" fill="#7BADEF"/>
</svg>
