<svg width="203" height="104" viewBox="0 0 203 104" fill="none" xmlns="http://www.w3.org/2000/svg">
<g filter="url(#filter0_d_96_43)">
<rect x="20" width="163" height="54" rx="5" fill="white"/>
<path d="M101 64L95.8038 53.5L106.196 53.5L101 64Z" fill="white"/>
<path d="M46.5923 27.2898H44.4673C44.4067 26.9413 44.295 26.6326 44.1321 26.3636C43.9692 26.0909 43.7666 25.8598 43.5241 25.6705C43.2817 25.4811 43.0052 25.339 42.6946 25.2443C42.3878 25.1458 42.0563 25.0966 41.7003 25.0966C41.0677 25.0966 40.5071 25.2557 40.0185 25.5739C39.5298 25.8883 39.1473 26.3504 38.8707 26.9602C38.5942 27.5663 38.456 28.3068 38.456 29.1818C38.456 30.072 38.5942 30.822 38.8707 31.4318C39.151 32.0379 39.5336 32.4962 40.0185 32.8068C40.5071 33.1136 41.0658 33.267 41.6946 33.267C42.0431 33.267 42.3688 33.2216 42.6719 33.1307C42.9787 33.036 43.2533 32.8977 43.4957 32.7159C43.742 32.5341 43.9484 32.3106 44.1151 32.0455C44.2855 31.7803 44.4029 31.4773 44.4673 31.1364L46.5923 31.1477C46.5128 31.7008 46.3404 32.2197 46.0753 32.7045C45.8139 33.1894 45.4711 33.6174 45.0469 33.9886C44.6226 34.3561 44.1264 34.6439 43.5582 34.8523C42.9901 35.0568 42.3594 35.1591 41.6662 35.1591C40.6435 35.1591 39.7306 34.9223 38.9276 34.4489C38.1245 33.9754 37.492 33.2917 37.0298 32.3977C36.5677 31.5038 36.3366 30.4318 36.3366 29.1818C36.3366 27.928 36.5696 26.8561 37.0355 25.9659C37.5014 25.072 38.1359 24.3883 38.9389 23.9148C39.742 23.4413 40.651 23.2045 41.6662 23.2045C42.3139 23.2045 42.9162 23.2955 43.473 23.4773C44.0298 23.6591 44.526 23.9261 44.9616 24.2784C45.3973 24.6269 45.7552 25.0549 46.0355 25.5625C46.3196 26.0663 46.5052 26.642 46.5923 27.2898ZM58.9205 29.1818C58.9205 30.4356 58.6856 31.5095 58.2159 32.4034C57.75 33.2936 57.1136 33.9754 56.3068 34.4489C55.5038 34.9223 54.5928 35.1591 53.5739 35.1591C52.5549 35.1591 51.642 34.9223 50.8352 34.4489C50.0322 33.9716 49.3958 33.2879 48.9261 32.3977C48.4602 31.5038 48.2273 30.4318 48.2273 29.1818C48.2273 27.928 48.4602 26.8561 48.9261 25.9659C49.3958 25.072 50.0322 24.3883 50.8352 23.9148C51.642 23.4413 52.5549 23.2045 53.5739 23.2045C54.5928 23.2045 55.5038 23.4413 56.3068 23.9148C57.1136 24.3883 57.75 25.072 58.2159 25.9659C58.6856 26.8561 58.9205 27.928 58.9205 29.1818ZM56.8011 29.1818C56.8011 28.2992 56.6629 27.5549 56.3864 26.9489C56.1136 26.339 55.7348 25.8788 55.25 25.5682C54.7652 25.2538 54.2064 25.0966 53.5739 25.0966C52.9413 25.0966 52.3826 25.2538 51.8977 25.5682C51.4129 25.8788 51.0322 26.339 50.7557 26.9489C50.483 27.5549 50.3466 28.2992 50.3466 29.1818C50.3466 30.0644 50.483 30.8106 50.7557 31.4205C51.0322 32.0265 51.4129 32.4867 51.8977 32.8011C52.3826 33.1117 52.9413 33.267 53.5739 33.267C54.2064 33.267 54.7652 33.1117 55.25 32.8011C55.7348 32.4867 56.1136 32.0265 56.3864 31.4205C56.6629 30.8106 56.8011 30.0644 56.8011 29.1818ZM60.9134 23.3636H63.4929L66.9474 31.7955H67.0838L70.5384 23.3636H73.1179V35H71.0952V27.0057H70.9872L67.7713 34.9659H66.2599L63.044 26.9886H62.9361V35H60.9134V23.3636ZM77.5213 23.3636V35H75.4134V23.3636H77.5213ZM89.3665 23.3636V35H87.4915L82.0085 27.0739H81.9119V35H79.804V23.3636H81.6903L87.1676 31.2955H87.2699V23.3636H89.3665ZM99.4588 27.0795C99.3641 26.7727 99.2334 26.4981 99.0668 26.2557C98.9039 26.0095 98.7069 25.7992 98.4759 25.625C98.2486 25.4508 97.9872 25.3201 97.6918 25.233C97.3963 25.142 97.0743 25.0966 96.7259 25.0966C96.1009 25.0966 95.544 25.2538 95.0554 25.5682C94.5668 25.8826 94.1823 26.3447 93.902 26.9545C93.6255 27.5606 93.4872 28.2992 93.4872 29.1705C93.4872 30.0492 93.6255 30.7936 93.902 31.4034C94.1785 32.0133 94.563 32.4773 95.0554 32.7955C95.5478 33.1098 96.1198 33.267 96.7713 33.267C97.3622 33.267 97.8736 33.1534 98.3054 32.9261C98.741 32.6989 99.0762 32.3769 99.3111 31.9602C99.5459 31.5398 99.6634 31.0473 99.6634 30.483L100.141 30.5568H96.9815V28.9091H101.703V30.3068C101.703 31.303 101.491 32.1648 101.067 32.892C100.643 33.6193 100.059 34.1799 99.3168 34.5739C98.5743 34.964 97.7221 35.1591 96.7599 35.1591C95.688 35.1591 94.7467 34.9186 93.9361 34.4375C93.1293 33.9527 92.4986 33.2652 92.044 32.375C91.5933 31.4811 91.3679 30.4205 91.3679 29.1932C91.3679 28.2538 91.5005 27.4148 91.7656 26.6761C92.0346 25.9375 92.4096 25.3106 92.8906 24.7955C93.3717 24.2765 93.9361 23.8826 94.5838 23.6136C95.2315 23.3409 95.9361 23.2045 96.6974 23.2045C97.3414 23.2045 97.9418 23.2992 98.4986 23.4886C99.0554 23.6742 99.5497 23.9394 99.9815 24.2841C100.417 24.6288 100.775 25.0379 101.055 25.5114C101.336 25.9848 101.519 26.5076 101.607 27.0795H99.4588ZM114.034 26.5625C113.981 26.0663 113.758 25.6799 113.364 25.4034C112.973 25.1269 112.466 24.9886 111.841 24.9886C111.402 24.9886 111.025 25.0549 110.71 25.1875C110.396 25.3201 110.155 25.5 109.989 25.7273C109.822 25.9545 109.737 26.214 109.733 26.5057C109.733 26.7481 109.788 26.9583 109.898 27.1364C110.011 27.3144 110.165 27.4659 110.358 27.5909C110.551 27.7121 110.765 27.8144 111 27.8977C111.235 27.9811 111.472 28.0511 111.71 28.108L112.801 28.3807C113.241 28.483 113.663 28.6212 114.068 28.7955C114.477 28.9697 114.843 29.1894 115.165 29.4545C115.491 29.7197 115.748 30.0398 115.938 30.4148C116.127 30.7898 116.222 31.2292 116.222 31.733C116.222 32.4148 116.047 33.0152 115.699 33.5341C115.35 34.0492 114.847 34.4527 114.188 34.7443C113.532 35.0322 112.739 35.1761 111.807 35.1761C110.902 35.1761 110.116 35.036 109.449 34.7557C108.786 34.4754 108.267 34.0663 107.892 33.5284C107.521 32.9905 107.32 32.3352 107.29 31.5625H109.364C109.394 31.9678 109.519 32.3049 109.739 32.5739C109.958 32.8428 110.244 33.0436 110.597 33.1761C110.953 33.3087 111.35 33.375 111.79 33.375C112.248 33.375 112.65 33.3068 112.994 33.1705C113.343 33.0303 113.616 32.8371 113.812 32.5909C114.009 32.3409 114.11 32.0492 114.114 31.7159C114.11 31.4129 114.021 31.1629 113.847 30.9659C113.672 30.7652 113.428 30.5985 113.114 30.4659C112.803 30.3295 112.439 30.2083 112.023 30.1023L110.699 29.7614C109.741 29.5152 108.983 29.142 108.426 28.642C107.873 28.1383 107.597 27.4697 107.597 26.6364C107.597 25.9508 107.782 25.3504 108.153 24.8352C108.528 24.3201 109.038 23.9205 109.682 23.6364C110.326 23.3485 111.055 23.2045 111.869 23.2045C112.695 23.2045 113.419 23.3485 114.04 23.6364C114.665 23.9205 115.155 24.3163 115.511 24.8239C115.867 25.3277 116.051 25.9072 116.062 26.5625H114.034ZM128.499 29.1818C128.499 30.4356 128.264 31.5095 127.794 32.4034C127.328 33.2936 126.692 33.9754 125.885 34.4489C125.082 34.9223 124.171 35.1591 123.152 35.1591C122.133 35.1591 121.22 34.9223 120.413 34.4489C119.61 33.9716 118.974 33.2879 118.504 32.3977C118.038 31.5038 117.805 30.4318 117.805 29.1818C117.805 27.928 118.038 26.8561 118.504 25.9659C118.974 25.072 119.61 24.3883 120.413 23.9148C121.22 23.4413 122.133 23.2045 123.152 23.2045C124.171 23.2045 125.082 23.4413 125.885 23.9148C126.692 24.3883 127.328 25.072 127.794 25.9659C128.264 26.8561 128.499 27.928 128.499 29.1818ZM126.379 29.1818C126.379 28.2992 126.241 27.5549 125.964 26.9489C125.692 26.339 125.313 25.8788 124.828 25.5682C124.343 25.2538 123.785 25.0966 123.152 25.0966C122.519 25.0966 121.961 25.2538 121.476 25.5682C120.991 25.8788 120.61 26.339 120.334 26.9489C120.061 27.5549 119.925 28.2992 119.925 29.1818C119.925 30.0644 120.061 30.8106 120.334 31.4205C120.61 32.0265 120.991 32.4867 121.476 32.8011C121.961 33.1117 122.519 33.267 123.152 33.267C123.785 33.267 124.343 33.1117 124.828 32.8011C125.313 32.4867 125.692 32.0265 125.964 31.4205C126.241 30.8106 126.379 30.0644 126.379 29.1818ZM140.889 29.1818C140.889 30.4356 140.654 31.5095 140.185 32.4034C139.719 33.2936 139.082 33.9754 138.276 34.4489C137.473 34.9223 136.562 35.1591 135.543 35.1591C134.524 35.1591 133.611 34.9223 132.804 34.4489C132.001 33.9716 131.365 33.2879 130.895 32.3977C130.429 31.5038 130.196 30.4318 130.196 29.1818C130.196 27.928 130.429 26.8561 130.895 25.9659C131.365 25.072 132.001 24.3883 132.804 23.9148C133.611 23.4413 134.524 23.2045 135.543 23.2045C136.562 23.2045 137.473 23.4413 138.276 23.9148C139.082 24.3883 139.719 25.072 140.185 25.9659C140.654 26.8561 140.889 27.928 140.889 29.1818ZM138.77 29.1818C138.77 28.2992 138.632 27.5549 138.355 26.9489C138.082 26.339 137.704 25.8788 137.219 25.5682C136.734 25.2538 136.175 25.0966 135.543 25.0966C134.91 25.0966 134.351 25.2538 133.866 25.5682C133.382 25.8788 133.001 26.339 132.724 26.9489C132.452 27.5549 132.315 28.2992 132.315 29.1818C132.315 30.0644 132.452 30.8106 132.724 31.4205C133.001 32.0265 133.382 32.4867 133.866 32.8011C134.351 33.1117 134.91 33.267 135.543 33.267C136.175 33.267 136.734 33.1117 137.219 32.8011C137.704 32.4867 138.082 32.0265 138.355 31.4205C138.632 30.8106 138.77 30.0644 138.77 29.1818ZM152.445 23.3636V35H150.57L145.087 27.0739H144.99V35H142.882V23.3636H144.768L150.246 31.2955H150.348V23.3636H152.445ZM155.918 35.125C155.573 35.125 155.277 35.0038 155.031 34.7614C154.785 34.5189 154.664 34.2235 154.668 33.875C154.664 33.5341 154.785 33.2424 155.031 33C155.277 32.7576 155.573 32.6364 155.918 32.6364C156.251 32.6364 156.541 32.7576 156.787 33C157.037 33.2424 157.164 33.5341 157.168 33.875C157.164 34.1061 157.103 34.3163 156.986 34.5057C156.872 34.6951 156.721 34.8466 156.531 34.9602C156.346 35.0701 156.141 35.125 155.918 35.125ZM160.558 35.125C160.214 35.125 159.918 35.0038 159.672 34.7614C159.426 34.5189 159.304 34.2235 159.308 33.875C159.304 33.5341 159.426 33.2424 159.672 33C159.918 32.7576 160.214 32.6364 160.558 32.6364C160.892 32.6364 161.181 32.7576 161.428 33C161.678 33.2424 161.804 33.5341 161.808 33.875C161.804 34.1061 161.744 34.3163 161.626 34.5057C161.513 34.6951 161.361 34.8466 161.172 34.9602C160.986 35.0701 160.782 35.125 160.558 35.125ZM165.199 35.125C164.854 35.125 164.559 35.0038 164.312 34.7614C164.066 34.5189 163.945 34.2235 163.949 33.875C163.945 33.5341 164.066 33.2424 164.312 33C164.559 32.7576 164.854 32.6364 165.199 32.6364C165.532 32.6364 165.822 32.7576 166.068 33C166.318 33.2424 166.445 33.5341 166.449 33.875C166.445 34.1061 166.384 34.3163 166.267 34.5057C166.153 34.6951 166.002 34.8466 165.812 34.9602C165.627 35.0701 165.422 35.125 165.199 35.125Z" fill="black"/>
</g>
<defs>
<filter id="filter0_d_96_43" x="0" y="0" width="203" height="104" filterUnits="userSpaceOnUse" color-interpolation-filters="sRGB">
<feFlood flood-opacity="0" result="BackgroundImageFix"/>
<feColorMatrix in="SourceAlpha" type="matrix" values="0 0 0 0 0 0 0 0 0 0 0 0 0 0 0 0 0 0 127 0" result="hardAlpha"/>
<feOffset dy="20"/>
<feGaussianBlur stdDeviation="10"/>
<feComposite in2="hardAlpha" operator="out"/>
<feColorMatrix type="matrix" values="0 0 0 0 0 0 0 0 0 0 0 0 0 0 0 0 0 0 0.05 0"/>
<feBlend mode="normal" in2="BackgroundImageFix" result="effect1_dropShadow_96_43"/>
<feBlend mode="normal" in="SourceGraphic" in2="effect1_dropShadow_96_43" result="shape"/>
</filter>
</defs>
</svg>
