<svg width="537" height="160" viewBox="0 0 537 160" fill="none" xmlns="http://www.w3.org/2000/svg">
<path d="M27.1031 64.736L25.7448 62.2222L28.1622 42.7944L18.1462 48.2065L16.2593 44.7146L31.5964 36.4273L32.9547 38.9411L30.5275 58.3742L40.5533 52.9568L42.4402 56.4487L27.1031 64.736Z" fill="#FAF7D5"/>
<path d="M40.2385 36.8957L68.2307 28.8832L69.2301 32.3747L41.2379 40.3872L40.2385 36.8957ZM50.9405 50.7337L71.6186 44.8148L72.6094 48.2762L51.9313 54.1951L50.9405 50.7337ZM56.2642 41.2314L63.9997 39.0171L64.9646 42.3882L57.2291 44.6025L56.2642 41.2314ZM42.7549 29.3042L46.4871 28.2358L54.3188 55.5959L50.5865 56.6643L42.7549 29.3042ZM50.3997 26.432L54.0417 25.3895L59.7194 45.2248L56.0774 46.2673L50.3997 26.432ZM58.1611 24.536L61.8031 23.4935L67.3775 42.9676L63.7355 44.0101L58.1611 24.536Z" fill="#FAF7D5"/>
<path d="M84.6016 30.4482L103.76 28.7363L104.138 32.325L85.0095 34.0696L84.6016 30.4482ZM96.7634 22.3864L99.654 20.7563C101.216 22.3278 103.096 24.5085 103.908 26.0163L100.822 27.8261C100.102 26.3536 98.2898 24.0505 96.7634 22.3864ZM83.3251 20.0833L86.8397 21.4257C84.255 26.8609 80.1894 32.4829 76.1244 35.9113C75.7881 34.988 74.811 32.9403 74.1933 32.0049C77.6968 29.2417 81.1821 24.7228 83.3251 20.0833ZM79.6849 28.92L83.6968 25.2699L83.7254 25.3339L82.6974 49.1683L78.8188 49.001L79.6849 28.92ZM90.8852 20.6287L94.7012 20.7933C94.3427 34.1901 95.709 44.6529 99.4708 45.3479C100.188 45.4415 100.664 43.8325 101.032 40.4013C101.717 41.2143 103.363 42.2881 104.037 42.6618C102.962 48.6949 101.21 50.0608 99.4629 49.8914C92.0795 48.8836 90.7129 37.7 90.8852 20.6287Z" fill="#FAF7D5"/>
<path d="M128.76 33.2469C127.213 36.0748 125.323 39.2747 122.984 42.3366C118.976 47.5771 115.078 50.2459 111.889 49.0306C108.612 47.7818 107.292 43.1577 109.177 38.2135C111.741 31.4848 119.829 27.9334 127.406 30.8212C134.632 33.5751 137.307 40.3576 134.866 46.7645C132.524 52.9081 127.089 55.8288 119.282 54.16L118.374 49.8605C119.571 50.1491 120.446 50.315 121.302 50.4405C125.364 50.9496 129.304 49.4023 130.943 45.1018C132.693 40.5087 131.075 36.1395 126.014 34.2106C119.812 31.8468 114.489 35.6146 113.084 39.3008C111.958 42.2555 112.582 44.135 113.694 44.5587C114.952 45.0382 116.777 43.5895 119.511 40.1084C121.407 37.6817 123.333 34.5627 124.797 31.6024L128.76 33.2469Z" fill="#FAF7D5"/>
<path d="M158.476 51.3954L168.951 56.5583L167.414 59.6754L156.94 54.5125L158.476 51.3954ZM146.467 37.3783L159.104 43.607L157.748 46.359L145.111 40.1303L146.467 37.3783ZM140.677 48.4165L153.567 54.7698L152.169 57.606L139.279 51.2528L140.677 48.4165ZM143.015 43.4606L156.242 49.98L154.872 52.7601L141.645 46.2407L143.015 43.4606ZM162.361 54.9857L165.619 56.5913L157.937 72.1768L154.679 70.5712L162.361 54.9857ZM152.416 37.1344L155.702 38.7538L153.833 42.5449L150.548 40.9254L152.416 37.1344ZM146.783 48.5637L150.068 50.1832L142.829 64.8701L139.544 63.2506L146.783 48.5637ZM160.448 43.5713L163.84 46.6043C163.673 46.8713 163.407 46.9148 162.86 46.7499L158.791 55.006C156.729 59.1903 153.136 65.1334 147.365 67.2105C147.304 66.2727 146.636 64.5123 146.085 63.7174C151.045 61.8689 153.721 57.2192 155.617 53.3719L160.448 43.5713ZM170.586 46.1599L172.077 49.9318C168.576 49.8117 164.287 48.884 160.697 47.8824C160.888 47.0692 160.992 45.6545 160.917 44.8148C164.254 45.6219 168.066 46.2442 170.586 46.1599ZM147.227 55.3099C147.835 56.2726 149.493 59.7075 149.89 60.6014L146.762 62.0613C146.389 60.4813 145.293 57.3232 144.71 55.8843L147.227 55.3099ZM146.307 41.2436L149.195 41.8992C149.202 43.1593 148.917 44.7291 148.601 45.7251L145.489 45.0987C145.89 44.1443 146.23 42.5322 146.307 41.2436ZM153.632 44.0162L156.332 46.0451C155.161 47.0738 154.089 48.046 153.238 48.709L150.847 46.8324C151.711 46.0714 152.895 44.8745 153.632 44.0162ZM144.859 52.5371L146.817 54.5842C143.919 56.995 139.996 59.0756 136.85 59.7936C136.676 58.8004 136.247 57.1927 135.808 56.3131C138.732 55.9744 142.406 54.3993 144.859 52.5371Z" fill="#FAF7D5"/>
<path d="M186.839 59.3423L200.78 67.1915L199.182 70.0287L185.242 62.1795L186.839 59.3423ZM182.962 64.0579L198.649 72.8902L197.021 75.782L181.334 66.9497L182.962 64.0579ZM180.083 69.2993L195.524 77.9933L193.911 80.8578L178.47 72.1637L180.083 69.2993ZM193.748 59.3878L196.967 61.2004L191.33 71.2124L188.111 69.3999L193.748 59.3878ZM191.084 72.2236L194.276 74.0208L187.916 85.3151C187.025 86.8973 186.249 87.5741 184.924 87.4388C183.556 87.3154 182.052 86.5405 180.006 85.3885C180.404 84.4268 180.65 82.8408 180.69 81.7493C181.996 82.5565 183.497 83.4014 183.921 83.6045C184.358 83.8503 184.54 83.8452 184.755 83.4633L191.084 72.2236ZM178.532 74.606L181.996 74.5802C182.526 76.6389 182.958 79.2535 182.805 80.9282L179.074 80.9829C179.277 79.4088 179.004 76.7039 178.532 74.606ZM179.101 53.3682L186.139 57.3313L175.632 75.9913L168.594 72.0283L170.238 69.1092L174.221 71.3519L181.44 58.5299L177.457 56.2873L179.101 53.3682ZM174.902 61.2081L180.194 64.1881L178.581 67.0526L173.289 64.0726L174.902 61.2081ZM177.573 52.508L180.601 54.2131L168.727 75.3011L165.699 73.5961L177.573 52.508Z" fill="#FAF7D5"/>
<path d="M210.137 80.4762L228.236 86.9852L227.069 90.3997L208.983 83.9329L210.137 80.4762ZM224.562 78.2808L227.87 78.0184C228.625 80.1013 229.413 82.8707 229.516 84.5804L225.954 84.9233C225.921 83.2845 225.246 80.4327 224.562 78.2808ZM213.341 70.5365L215.964 73.2332C211.332 77.076 205.278 80.4651 200.148 81.8646C200.231 80.8855 200.206 78.6168 200.04 77.5082C204.381 76.476 209.444 73.8433 213.341 70.5365ZM206.32 77.0208L211.495 75.3979L211.494 75.4679L200.532 96.6567L197.084 94.8727L206.32 77.0208ZM219.969 74.2127L223.361 75.9678C217.399 87.9698 214.235 98.0361 217.355 100.25C217.966 100.636 219.076 99.3771 220.853 96.4191C221.133 97.4452 222.174 99.1118 222.627 99.7342C219.113 104.755 216.95 105.257 215.436 104.368C209.162 100.346 212.629 89.6263 219.969 74.2127Z" fill="#FAF7D5"/>
<path d="M245.971 87.0596C245.643 87.5711 245.047 88.785 244.74 89.5055C243.715 91.7619 242.426 94.8891 241.391 97.6108C240.179 100.801 238.43 105.93 237.785 107.628C236.417 111.227 234.751 111.733 232.819 110.999C229.981 109.92 226.876 105.926 228.055 102.824C229.134 99.9856 233.927 98.391 238.54 98.5032C241.501 98.5567 244.634 99.2119 246.859 100.057C251.365 101.77 254.046 105.469 252.511 109.507C251.187 112.99 248.383 114.905 243.296 114.277C241.838 114.058 240.488 113.646 239.244 113.307L239.373 109.002C240.66 109.491 241.948 109.98 243.021 110.154C245.547 110.645 247.905 110.168 248.706 108.061C249.474 106.042 248.152 104.233 245.606 103.265C243.118 102.32 240.343 101.868 237.715 101.907C234.703 101.901 232.229 102.77 231.751 104.028C231.395 104.965 232.47 106.278 233.231 106.567C233.758 106.767 234.227 106.677 234.617 105.653C235.195 104.131 236.595 100.008 237.941 96.4668C239.209 93.1306 240.618 89.5128 241.129 88.1666C241.352 87.5813 241.82 86.0847 241.933 85.5245L245.971 87.0596ZM253.099 93.4197C254.912 95.3479 257.584 98.5405 258.741 100.253L255.821 102.56C254.862 100.855 251.891 97.2142 250.411 95.6466L253.099 93.4197ZM234.519 88.1994C236.167 89.0606 237.426 89.5389 238.479 89.9393C241.523 91.0962 246.3 92.2754 249.648 92.5432L248.356 96.2054C244.76 95.7094 239.848 94.4453 237.273 93.4664C235.341 92.7322 234.211 92.2691 233.26 91.7739L234.519 88.1994Z" fill="#FAF7D5"/>
<path d="M263 116.81L284.124 120.326L283.518 123.971L262.394 120.454L263 116.81ZM275.271 94.9535L279.132 95.5961L274.891 121.075L271.03 120.432L275.271 94.9535ZM262.463 108.786L266.231 109.413L264.041 122.57L260.273 121.942L262.463 108.786ZM283.433 112.277L287.293 112.919L285.108 126.044L281.248 125.402L283.433 112.277ZM265.852 96.0519L269.558 96.6687L268.278 104.359L283.01 106.811L284.29 99.1207L288.212 99.7735L286.335 111.046L263.976 107.324L265.852 96.0519Z" fill="#FAF7D5"/>
<path d="M305.076 100.395C305.015 101.228 304.982 102.246 304.916 103.049C304.853 104.484 304.747 106.465 304.681 108.09C304.334 112.611 303.191 121.816 300.781 127.542L296.479 126.56C299.396 121.04 300.454 112.513 300.718 108.481C300.876 105.605 300.81 102.923 300.42 100.607L305.076 100.395ZM316.195 101.623C318.499 104.023 322.006 109.5 323.424 112.322L319.777 114.755C318.437 111.414 315.379 106.184 312.726 103.774L316.195 101.623ZM293.525 108.674C294.649 108.563 295.696 108.37 296.836 108.162C299.302 107.718 305.044 106.133 307.365 105.775C310.614 105.273 313.159 106.369 313.852 110.855C314.416 114.506 314.758 119.585 313.869 122.447C313.152 124.775 311.555 125.719 309.235 126.078C308.028 126.264 306.545 126.303 305.424 126.223L304.143 122.239C305.402 122.393 307.214 122.43 308.018 122.306C309.07 122.143 309.796 121.714 310.133 120.617C310.732 118.75 310.551 114.913 310.082 111.881C309.7 109.406 308.56 109.202 306.641 109.498C304.785 109.785 299.568 111.288 297.9 111.768C297.022 112.03 295.446 112.495 294.542 112.793L293.525 108.674Z" fill="#FAF7D5"/>
<path d="M345.361 92.8672C345.458 93.5604 345.664 94.2837 345.89 94.9673C346.283 96.3543 348.2 101.953 348.78 103.706C351.09 110.692 351.991 115.208 347.314 120.91L342.981 119.375C343.973 118.486 345.145 117.044 345.673 115.847C347.145 112.722 346.766 109.879 345.114 104.886C344.377 102.656 342.725 97.8607 342.026 96.2452C341.731 95.5515 341.297 94.7386 341.021 94.3024L345.361 92.8672ZM335.546 102.576C337.071 102.303 338.557 101.91 340.163 101.379C343.997 100.111 348.665 98.2707 351.401 96.7723L352.679 100.637C349.963 101.897 345.464 103.649 341.451 104.976C340.143 105.409 338.3 105.919 336.785 106.321L335.546 102.576ZM330.725 98.2679C330.733 99.0897 330.789 100.258 330.847 100.931C331.195 104.477 332.19 111.073 334.211 114.493C334.293 113.444 334.376 111.801 334.498 110.573L336.763 111.143C336.717 113.994 336.927 117.222 337.131 119.034C337.169 119.549 337.296 120.233 337.434 120.55C337.542 120.877 337.739 121.372 337.907 121.779L334.686 123.207C333.432 121.61 331.025 117.822 329.806 114.136C328.194 109.261 327.275 104.487 326.855 101.922C326.709 101.08 326.404 100.06 326.188 99.3066L330.725 98.2679Z" fill="#FAF7D5"/>
<path d="M364.024 102.813L373.036 98.9652L373.958 101.125L364.946 104.973L364.024 102.813ZM365.524 106.326L374.565 102.466L375.487 104.625L366.446 108.486L365.524 106.326ZM356.79 95.7576L369.977 90.1267L371.12 92.8045L357.933 98.4353L356.79 95.7576ZM366.912 110.057L376.5 105.963L377.558 108.439L367.97 112.533L366.912 110.057ZM366.339 98.8288L369.248 97.5871L373.735 108.097L370.827 109.338L366.339 98.8288ZM363.976 98.4763L371.894 95.0953L372.865 97.3699L364.947 100.751L370.197 113.045L367.174 114.336L362.01 102.243L363.285 98.7713L363.976 98.4763ZM366.02 95.0505L369.351 94.2409C369.184 95.6055 369.006 96.9414 368.853 97.8579L366.229 98.3313C366.263 97.2954 366.162 95.9427 366.02 95.0505ZM356.484 87.5476L359.844 86.9642C360.148 89.83 359.877 92.9416 359.167 95.1852C358.398 94.9005 356.738 94.5201 355.834 94.3956C356.568 92.448 356.765 89.8789 356.484 87.5476ZM361.093 90.2094L364.378 89.6917C364.93 95.2093 364.265 100.906 362.315 105.109C361.658 104.607 360.06 103.655 359.213 103.267C361.027 99.7015 361.666 94.9008 361.093 90.2094ZM358.467 89.5605L367.767 85.5894L368.911 88.2672L358.286 92.8038L358.467 89.5605ZM374.458 90.256L375.281 92.1852L380.579 89.923L379.756 87.9939L374.458 90.256ZM376.437 94.8917L377.261 96.8208L382.559 94.5587L381.735 92.6295L376.437 94.8917ZM372.491 85.6492L373.302 87.5495L378.6 85.2873L377.788 83.387L372.491 85.6492ZM368.176 83.9168L379.694 78.999L387.046 96.2172L375.528 101.135L368.176 83.9168ZM380.365 96.5166L383.388 95.2257L386.265 101.963C386.585 102.712 386.663 102.815 387.008 102.667C387.123 102.618 387.642 102.397 387.786 102.335C388.189 102.163 388.103 101.723 386.911 98.6918C387.708 98.9642 389.2 98.8717 390.105 98.7578C391.514 102.854 391.195 104.182 389.353 104.968C388.863 105.177 388.086 105.509 387.654 105.694C385.293 106.702 384.422 106.018 383.254 103.283L380.365 96.5166ZM376.756 99.1469L379.635 97.9175C381.171 102.47 381.663 106.413 378.16 110.326C377.507 109.754 376.168 108.93 375.272 108.666C378.334 105.554 377.866 102.622 376.756 99.1469Z" fill="#FAF7D5"/>
<path d="M407.059 86.9487L410.791 86.2946L412.548 96.3169C412.742 97.427 412.923 97.5542 413.941 97.3758C414.404 97.2947 416.223 96.9758 416.778 96.8785C417.796 96.7001 417.831 95.9946 417.245 91.7428C418.124 92.2244 419.872 92.5855 420.871 92.6647C421.447 98.1261 420.781 99.7685 417.697 100.309C417.019 100.428 414.644 100.844 413.997 100.958C410.512 101.569 409.443 100.548 408.816 96.9709L407.059 86.9487ZM398.76 88.5624L402.708 87.8705C403.398 94.7104 403.047 100.144 395.208 104.379C394.639 103.493 393.326 102.166 392.389 101.535C399.344 98.0592 399.295 93.9676 398.76 88.5624ZM391.346 77.8155L394.46 75.9982C396.284 78.0623 398.336 80.8812 399.222 82.8555L395.868 84.9373C395.08 82.9777 393.13 80.0138 391.346 77.8155ZM411.038 72.8378L415.223 73.5028C414.348 76.4852 413.263 79.7267 412.303 81.8656L408.849 81.1997C409.756 78.9428 410.7 75.44 411.038 72.8378ZM390.661 86.9626L418.538 82.0759L419.149 85.5606L391.272 90.4473L390.661 86.9626ZM400.58 73.5586L404.342 72.8991L406.575 85.6351L402.813 86.2946L400.58 73.5586Z" fill="#FAF7D5"/>
<path d="M453.751 79.5301C453.406 79.9106 452.753 80.6117 452.437 81.0259C450.774 83.3416 447.489 87.0656 444.224 89.0007L441.187 86.1487C443.838 84.8235 446.494 82.2738 447.429 80.8102C445.525 80.6566 433.105 79.6542 431.139 79.4955C429.859 79.3923 428.793 79.3691 427.314 79.4067L427.667 75.0378C428.869 75.3233 430.167 75.5851 431.446 75.6884C433.412 75.847 446.644 76.9148 448.266 77.0458C449.14 77.1163 450.867 77.13 451.472 77.0218L453.751 79.5301ZM440.713 82.6867C440.088 90.4259 439.387 96.7769 430.529 100.679L427.117 97.42C428.174 97.1598 429.341 96.72 430.566 95.9394C434.719 93.5105 435.733 90.2943 436.146 85.1764C436.226 84.1778 436.261 83.3639 436.188 82.3215L440.713 82.6867Z" fill="#FAF7D5"/>
<path d="M484.43 82.6919C484.182 83.6625 484.769 84.6528 485.74 84.9011C486.71 85.1494 487.701 84.5625 487.949 83.5919C488.197 82.6213 487.61 81.6309 486.64 81.3827C485.669 81.1344 484.679 81.7213 484.43 82.6919ZM482.55 82.2109C483.062 80.209 485.119 78.9901 487.121 79.5021C489.122 80.0142 490.341 82.071 489.829 84.0729C489.317 86.0748 487.26 87.2937 485.259 86.7816C483.257 86.2696 482.038 84.2127 482.55 82.2109ZM485.637 85.5536C485.187 86.0523 484.749 86.8776 484.435 87.4757C482.977 90.2698 480.432 94.6601 477.023 97.3752C473.362 100.317 468.56 102.288 462.688 102.628L460.313 98.1423C466.706 98.291 470.808 96.5288 474.019 94.0861C476.695 92.0884 478.732 88.9254 479.793 86.4178C477.943 85.9445 467.934 83.3842 465.659 82.8023C464.264 82.4454 462.815 82.1718 462.011 82.0307L463.112 77.7237C463.991 78.0777 465.651 78.6639 466.652 78.9199C468.927 79.5018 478.997 82.0776 480.695 82.5121C481.302 82.6673 482.28 82.8852 483.123 82.8746L485.637 85.5536Z" fill="#FAF7D5"/>
<path d="M518.146 98.23C517.65 98.9556 517.118 99.8051 516.471 100.914C515.666 102.293 514.136 104.916 513.362 106.241C509.954 112.081 507.366 113.906 504.045 114.94C501.108 115.873 497.565 115.545 495.213 115.043L494.125 110.384C497.192 111.34 499.955 111.575 502.63 110.78C505.652 109.825 507.214 108.018 509.676 103.799C510.465 102.447 511.98 99.8516 512.658 98.6888C513.305 97.5801 513.729 96.6675 514.063 95.8473L518.146 98.23ZM505.484 91.1674C505.067 91.7578 504.666 92.3211 504.177 93.1594C503.482 94.3491 499.727 100.785 498.843 102.299C498.449 102.975 497.887 104.061 497.578 104.715L493.63 102.411C493.969 101.956 494.665 100.948 495.154 100.11C496.054 98.5689 499.778 92.1873 500.472 90.9976C500.756 90.5108 501.281 89.5486 501.563 88.8794L505.484 91.1674Z" fill="#FAF7D5"/>
</svg>
