<svg width="278" height="87" viewBox="0 0 278 87" fill="none" xmlns="http://www.w3.org/2000/svg">
<path d="M34.7124 37.9055H28.0717C27.8823 36.8165 27.5331 35.8518 27.0241 35.0114C26.5152 34.1591 25.8819 33.437 25.1243 32.8452C24.3667 32.2533 23.5026 31.8094 22.532 31.5135C21.5732 31.2057 20.5374 31.0518 19.4247 31.0518C17.4479 31.0518 15.696 31.549 14.169 32.5433C12.642 33.5258 11.4465 34.9699 10.5824 36.8757C9.71828 38.7696 9.28622 41.0838 9.28622 43.8182C9.28622 46.5999 9.71828 48.9437 10.5824 50.8494C11.4583 52.7434 12.6539 54.1757 14.169 55.1463C15.696 56.1051 17.442 56.5845 19.407 56.5845C20.496 56.5845 21.514 56.4425 22.4609 56.1584C23.4197 55.8625 24.2779 55.4304 25.0355 54.8622C25.8049 54.294 26.45 53.5956 26.9709 52.767C27.5036 51.9384 27.8705 50.9915 28.0717 49.9261L34.7124 49.9616C34.4638 51.6899 33.9252 53.3116 33.0966 54.8267C32.2798 56.3419 31.2086 57.6795 29.8828 58.8395C28.5571 59.9877 27.0064 60.8873 25.2308 61.5384C23.4553 62.1776 21.4844 62.4972 19.3182 62.4972C16.1222 62.4972 13.2694 61.7573 10.7599 60.2777C8.25047 58.7981 6.27367 56.6615 4.82955 53.8679C3.38542 51.0743 2.66335 47.7244 2.66335 43.8182C2.66335 39.9001 3.39134 36.5502 4.8473 33.7685C6.30327 30.9749 8.28598 28.8383 10.7955 27.3587C13.3049 25.879 16.1458 25.1392 19.3182 25.1392C21.3423 25.1392 23.2244 25.4233 24.9645 25.9915C26.7045 26.5597 28.2552 27.3942 29.6165 28.495C30.9777 29.584 32.0964 30.9216 32.9723 32.5078C33.8601 34.0821 34.4401 35.8814 34.7124 37.9055ZM73.2377 43.8182C73.2377 47.7363 72.5038 51.0921 71.036 53.8857C69.5801 56.6674 67.5914 58.7981 65.0701 60.2777C62.5607 61.7573 59.7138 62.4972 56.5297 62.4972C53.3455 62.4972 50.4927 61.7573 47.9714 60.2777C45.4619 58.7862 43.4733 56.6496 42.0055 53.8679C40.5495 51.0743 39.8216 47.7244 39.8216 43.8182C39.8216 39.9001 40.5495 36.5502 42.0055 33.7685C43.4733 30.9749 45.4619 28.8383 47.9714 27.3587C50.4927 25.879 53.3455 25.1392 56.5297 25.1392C59.7138 25.1392 62.5607 25.879 65.0701 27.3587C67.5914 28.8383 69.5801 30.9749 71.036 33.7685C72.5038 36.5502 73.2377 39.9001 73.2377 43.8182ZM66.6149 43.8182C66.6149 41.0601 66.1828 38.7341 65.3187 36.8402C64.4664 34.9344 63.2827 33.4962 61.7676 32.5256C60.2524 31.5431 58.5065 31.0518 56.5297 31.0518C54.5529 31.0518 52.8069 31.5431 51.2917 32.5256C49.7766 33.4962 48.5869 34.9344 47.7228 36.8402C46.8706 38.7341 46.4444 41.0601 46.4444 43.8182C46.4444 46.5762 46.8706 48.9081 47.7228 50.8139C48.5869 52.7079 49.7766 54.1461 51.2917 55.1286C52.8069 56.0992 54.5529 56.5845 56.5297 56.5845C58.5065 56.5845 60.2524 56.0992 61.7676 55.1286C63.2827 54.1461 64.4664 52.7079 65.3187 50.8139C66.1828 48.9081 66.6149 46.5762 66.6149 43.8182ZM109.348 25.6364V62H103.489L86.3548 37.2308H86.0529V62H79.4656V25.6364H85.3604L102.477 50.4233H102.797V25.6364H109.348ZM147.652 37.9055H141.011C140.822 36.8165 140.473 35.8518 139.964 35.0114C139.455 34.1591 138.821 33.437 138.064 32.8452C137.306 32.2533 136.442 31.8094 135.471 31.5135C134.513 31.2057 133.477 31.0518 132.364 31.0518C130.387 31.0518 128.635 31.549 127.108 32.5433C125.581 33.5258 124.386 34.9699 123.522 36.8757C122.658 38.7696 122.226 41.0838 122.226 43.8182C122.226 46.5999 122.658 48.9437 123.522 50.8494C124.398 52.7434 125.593 54.1757 127.108 55.1463C128.635 56.1051 130.381 56.5845 132.346 56.5845C133.435 56.5845 134.453 56.4425 135.4 56.1584C136.359 55.8625 137.217 55.4304 137.975 54.8622C138.744 54.294 139.39 53.5956 139.91 52.767C140.443 51.9384 140.81 50.9915 141.011 49.9261L147.652 49.9616C147.403 51.6899 146.865 53.3116 146.036 54.8267C145.219 56.3419 144.148 57.6795 142.822 58.8395C141.497 59.9877 139.946 60.8873 138.17 61.5384C136.395 62.1776 134.424 62.4972 132.258 62.4972C129.062 62.4972 126.209 61.7573 123.699 60.2777C121.19 58.7981 119.213 56.6615 117.769 53.8679C116.325 51.0743 115.603 47.7244 115.603 43.8182C115.603 39.9001 116.331 36.5502 117.787 33.7685C119.243 30.9749 121.225 28.8383 123.735 27.3587C126.244 25.879 129.085 25.1392 132.258 25.1392C134.282 25.1392 136.164 25.4233 137.904 25.9915C139.644 26.5597 141.195 27.3942 142.556 28.495C143.917 29.584 145.036 30.9216 145.912 32.5078C146.8 34.0821 147.38 35.8814 147.652 37.9055ZM153.684 62V25.6364H177.335V31.1584H160.272V41.0305H176.11V46.5526H160.272V56.478H177.477V62H153.684ZM184.055 62V25.6364H197.692C200.485 25.6364 202.829 26.1572 204.723 27.1989C206.629 28.2405 208.067 29.6728 209.038 31.4957C210.02 33.3068 210.511 35.3665 210.511 37.6747C210.511 40.0066 210.02 42.0781 209.038 43.8892C208.055 45.7003 206.605 47.1267 204.688 48.1683C202.77 49.1982 200.408 49.7131 197.603 49.7131H188.565V44.2976H196.715C198.349 44.2976 199.686 44.0135 200.728 43.4453C201.77 42.8771 202.539 42.0959 203.036 41.1016C203.545 40.1072 203.8 38.965 203.8 37.6747C203.8 36.3845 203.545 35.2481 203.036 34.2656C202.539 33.2831 201.764 32.5196 200.71 31.9751C199.669 31.4188 198.325 31.1406 196.68 31.1406H190.643V62H184.055ZM214.635 31.1584V25.6364H243.648V31.1584H232.409V62H225.874V31.1584H214.635Z" fill="white"/>
</svg>
