<svg width="231" height="84" viewBox="0 0 231 84" fill="none" xmlns="http://www.w3.org/2000/svg">
<path d="M21.7976 31.0349C21.5597 31.4054 21.1284 32.2848 20.9058 32.8067C20.1632 34.4412 19.2293 36.7066 18.48 38.6782C17.6016 40.989 16.3348 44.7049 15.8675 45.9344C14.8763 48.542 13.6696 48.9083 12.2704 48.3764C10.214 47.5948 7.96533 44.702 8.81947 42.4549C9.60108 40.3985 13.073 39.2434 16.4146 39.3246C18.5592 39.3634 20.8293 39.838 22.4405 40.4504C25.7052 41.6914 27.647 44.3704 26.535 47.296C25.5761 49.8187 23.5445 51.2059 19.8595 50.7515C18.8038 50.5928 17.8256 50.2938 16.9242 50.0483L17.0177 46.9297C17.9505 47.2842 18.8833 47.6388 19.6605 47.7643C21.4905 48.1202 23.1988 47.7748 23.779 46.2484C24.335 44.7857 23.3773 43.4754 21.5329 42.7744C19.7309 42.0894 17.7203 41.7619 15.8169 41.7906C13.635 41.7862 11.8431 42.4153 11.4966 43.3269C11.2387 44.0052 12.0176 44.9564 12.5687 45.1659C12.9503 45.3109 13.2904 45.2461 13.5724 44.5041C13.9914 43.4017 15.0055 40.4146 15.9805 37.8495C16.8991 35.4327 17.9195 32.812 18.2901 31.8368C18.4513 31.4128 18.7906 30.3286 18.872 29.9229L21.7976 31.0349ZM26.9612 35.6421C28.2743 37.0389 30.2097 39.3516 31.0482 40.5923L28.9332 42.2632C28.2379 41.0284 26.0863 38.3909 25.0136 37.2553L26.9612 35.6421ZM13.5014 31.8606C14.6958 32.4844 15.6074 32.8309 16.3705 33.121C18.5753 33.959 22.0356 34.8132 24.4609 35.0072L23.5253 37.6601C20.9202 37.3008 17.362 36.3851 15.4965 35.676C14.0973 35.1441 13.2785 34.8087 12.59 34.4499L13.5014 31.8606Z" fill="#FAF7D5"/>
<path d="M34.2437 52.6159L49.546 55.163L49.1066 57.8028L33.8043 55.2558L34.2437 52.6159ZM43.1328 36.7829L45.9293 37.2484L42.8572 55.705L40.0607 55.2396L43.1328 36.7829ZM33.8547 46.8033L36.5841 47.2576L34.9978 56.7879L32.2684 56.3336L33.8547 46.8033ZM49.0451 49.3317L51.8416 49.7972L50.259 59.3052L47.4625 58.8397L49.0451 49.3317ZM36.3099 37.5785L38.9945 38.0254L38.0673 43.5959L48.7386 45.3722L49.6658 39.8016L52.507 40.2745L51.1478 48.4402L34.9507 45.7442L36.3099 37.5785Z" fill="#FAF7D5"/>
<path d="M64.9055 40.7255C64.8611 41.329 64.8374 42.067 64.7895 42.6481C64.7437 43.6879 64.667 45.1226 64.6195 46.3003C64.3682 49.5749 63.5398 56.2432 61.7941 60.3913L58.6778 59.6795C60.7909 55.6812 61.5576 49.5043 61.7488 46.5832C61.8629 44.5002 61.8151 42.557 61.5329 40.8794L64.9055 40.7255ZM72.9603 41.6151C74.6288 43.3538 77.1696 47.3214 78.1969 49.3657L75.5547 51.128C74.584 48.7077 72.3693 44.9192 70.4473 43.1737L72.9603 41.6151ZM56.538 46.7229C57.3519 46.643 58.1104 46.5029 58.9363 46.3523C60.7224 46.0304 64.8824 44.8827 66.5634 44.623C68.9168 44.2593 70.7606 45.053 71.2628 48.303C71.6715 50.9478 71.9187 54.6272 71.2752 56.7003C70.7556 58.3869 69.599 59.0705 67.918 59.3303C67.0439 59.4653 65.9697 59.4936 65.1575 59.4356L64.2297 56.5497C65.1419 56.6612 66.4541 56.6879 67.0368 56.5979C67.7989 56.4801 68.3246 56.1694 68.5689 55.3743C69.0026 54.0222 68.8714 51.2427 68.532 49.0462C68.2549 47.2531 67.4289 47.1054 66.0393 47.3201C64.6945 47.5279 60.9155 48.6167 59.707 48.9641C59.0709 49.1542 57.9296 49.4912 57.2746 49.7071L56.538 46.7229Z" fill="#FAF7D5"/>
<path d="M94.1803 35.2502C94.2509 35.7524 94.4002 36.2763 94.564 36.7716C94.8485 37.7763 96.2375 41.8317 96.6576 43.1021C98.331 48.1623 98.9831 51.4342 95.5954 55.5644L92.4567 54.4525C93.1754 53.8087 94.0242 52.7636 94.4063 51.8967C95.4731 49.6329 95.1983 47.574 94.002 43.9565C93.4679 42.3415 92.2712 38.8675 91.7648 37.6973C91.5508 37.1948 91.2367 36.6059 91.0366 36.2899L94.1803 35.2502ZM87.0707 42.2834C88.1756 42.0852 89.2521 41.8009 90.4149 41.4163C93.1926 40.4977 96.5737 39.1646 98.5557 38.0791L99.4814 40.8784C97.5142 41.7917 94.2551 43.0606 91.3482 44.0219C90.4008 44.3353 89.0659 44.705 87.9679 44.9965L87.0707 42.2834ZM83.5782 39.1625C83.584 39.7578 83.625 40.6042 83.6669 41.092C83.919 43.6601 84.6392 48.4383 86.1036 50.9161C86.1628 50.156 86.223 48.9656 86.3111 48.0765L87.9525 48.4892C87.9189 50.5546 88.0712 52.893 88.2187 54.2058C88.2465 54.5788 88.3386 55.0739 88.4384 55.3036C88.5168 55.5405 88.6594 55.8994 88.7806 56.1937L86.4473 57.2282C85.5392 56.0713 83.7957 53.3275 82.9127 50.6575C81.7449 47.1262 81.0789 43.6677 80.7749 41.8095C80.6688 41.1996 80.4482 40.4604 80.2917 39.915L83.5782 39.1625Z" fill="#FAF7D5"/>
<path d="M107.745 42.4382L114.274 39.6506L114.942 41.2149L108.413 44.0025L107.745 42.4382ZM108.832 44.9828L115.381 42.1863L116.049 43.7506L109.5 46.5471L108.832 44.9828ZM102.505 37.3269L112.058 33.248L112.886 35.1877L103.333 39.2667L102.505 37.3269ZM109.838 47.6851L116.784 44.7194L117.549 46.5132L110.604 49.4789L109.838 47.6851ZM109.423 39.5518L111.53 38.6523L114.78 46.2653L112.674 47.1648L109.423 39.5518ZM107.711 39.2964L113.447 36.8472L114.15 38.4949L108.415 40.9441L112.217 49.8503L110.027 50.7855L106.287 42.0252L107.21 39.5101L107.711 39.2964ZM109.191 36.8147L111.604 36.2283C111.484 37.2168 111.354 38.1845 111.243 38.8484L109.343 39.1913C109.368 38.4409 109.295 37.4611 109.191 36.8147ZM102.284 31.3796L104.717 30.957C104.938 33.033 104.741 35.287 104.227 36.9123C103.67 36.7061 102.468 36.4305 101.813 36.3403C102.344 34.9295 102.487 33.0684 102.284 31.3796ZM105.622 33.3079L108.002 32.9328C108.402 36.9298 107.92 41.0566 106.507 44.1012C106.031 43.7372 104.874 43.0478 104.261 42.767C105.575 40.1839 106.038 36.7063 105.622 33.3079ZM103.72 32.8378L110.457 29.9611L111.285 31.9009L103.589 35.1872L103.72 32.8378ZM115.304 33.3416L115.9 34.7391L119.738 33.1004L119.142 31.7029L115.304 33.3416ZM116.738 36.6997L117.334 38.0972L121.172 36.4584L120.575 35.061L116.738 36.6997ZM113.879 30.0044L114.467 31.381L118.304 29.7423L117.717 28.3657L113.879 30.0044ZM110.754 28.7495L119.097 25.1871L124.422 37.6599L116.079 41.2223L110.754 28.7495ZM119.583 37.8768L121.773 36.9417L123.857 41.8224C124.089 42.3647 124.145 42.4392 124.395 42.3323C124.479 42.2967 124.854 42.1364 124.959 42.0918C125.251 41.9672 125.188 41.6484 124.325 39.4525C124.902 39.6498 125.983 39.5828 126.639 39.5003C127.659 42.4677 127.428 43.4293 126.094 43.9993C125.739 44.1507 125.176 44.3911 124.863 44.5247C123.153 45.255 122.522 44.7598 121.676 42.7784L119.583 37.8768ZM116.969 39.7822L119.055 38.8916C120.167 42.1897 120.523 45.046 117.985 47.8806C117.512 47.4661 116.542 46.8692 115.893 46.6777C118.112 44.4234 117.772 42.2997 116.969 39.7822Z" fill="#FAF7D5"/>
<path d="M138.794 30.9833L141.497 30.5095L142.769 37.7697C142.91 38.5739 143.042 38.666 143.779 38.5367C144.114 38.478 145.432 38.247 145.834 38.1765C146.571 38.0473 146.597 37.5362 146.172 34.4562C146.809 34.8051 148.075 35.0667 148.799 35.124C149.216 39.0803 148.734 40.27 146.5 40.6616C146.008 40.7478 144.288 41.0493 143.819 41.1315C141.295 41.574 140.521 40.8348 140.066 38.2435L138.794 30.9833ZM132.782 32.1523L135.641 31.6511C136.141 36.606 135.887 40.5418 130.208 43.6095C129.796 42.968 128.845 42.0065 128.166 41.5498C133.205 39.0318 133.169 36.0678 132.782 32.1523ZM127.411 24.3673L129.667 23.0508C130.988 24.5461 132.474 26.5881 133.116 28.0182L130.687 29.5263C130.115 28.1068 128.703 25.9597 127.411 24.3673ZM141.676 20.7614L144.708 21.2431C144.073 23.4036 143.288 25.7517 142.592 27.3012L140.09 26.8188C140.747 25.1839 141.431 22.6464 141.676 20.7614ZM126.914 30.9934L147.109 27.4535L147.551 29.9778L127.357 33.5177L126.914 30.9934ZM134.1 21.2835L136.825 20.8058L138.443 30.0318L135.717 30.5095L134.1 21.2835Z" fill="#FAF7D5"/>
<path d="M172.472 25.6162C172.222 25.8918 171.749 26.3997 171.52 26.6997C170.315 28.3773 167.936 31.0749 165.57 32.4767L163.371 30.4107C165.291 29.4508 167.215 27.6037 167.892 26.5435C166.513 26.4322 157.516 25.7061 156.092 25.5912C155.165 25.5164 154.393 25.4995 153.321 25.5268L153.576 22.362C154.447 22.5688 155.387 22.7584 156.314 22.8332C157.738 22.9482 167.323 23.7217 168.499 23.8166C169.132 23.8676 170.382 23.8776 170.821 23.7992L172.472 25.6162ZM163.027 27.9028C162.574 33.5091 162.067 38.1098 155.65 40.9367L153.178 38.5756C153.944 38.3872 154.789 38.0685 155.676 37.5031C158.685 35.7436 159.419 33.4138 159.719 29.7064C159.777 28.983 159.802 28.3934 159.749 27.6383L163.027 27.9028Z" fill="#FAF7D5"/>
<path d="M194.6 27.8904C194.42 28.5935 194.845 29.3109 195.548 29.4908C196.251 29.6706 196.969 29.2455 197.149 28.5424C197.328 27.8393 196.903 27.1219 196.2 26.942C195.497 26.7622 194.78 27.1873 194.6 27.8904ZM193.238 27.542C193.608 26.0918 195.098 25.2088 196.549 25.5798C197.999 25.9507 198.882 27.4407 198.511 28.8908C198.14 30.341 196.65 31.224 195.2 30.8531C193.75 30.4821 192.867 28.9921 193.238 27.542ZM195.474 29.9634C195.148 30.3247 194.831 30.9226 194.603 31.3559C193.547 33.3799 191.703 36.5602 189.234 38.527C186.582 40.6578 183.103 42.0856 178.85 42.3319L177.129 39.0827C181.76 39.1904 184.732 37.9139 187.057 36.1444C188.996 34.6973 190.472 32.406 191.241 30.5895C189.9 30.2466 182.65 28.392 181.002 27.9704C179.991 27.7119 178.941 27.5137 178.359 27.4115L179.157 24.2914C179.794 24.5479 180.996 24.9725 181.721 25.158C183.369 25.5795 190.664 27.4455 191.894 27.7602C192.334 27.8726 193.042 28.0305 193.653 28.0228L195.474 29.9634Z" fill="#FAF7D5"/>
<path d="M218.876 39.0859C218.517 39.6115 218.131 40.2269 217.662 41.03C217.08 42.029 215.971 43.929 215.411 44.8888C212.942 49.1199 211.067 50.4419 208.661 51.1908C206.534 51.8663 203.967 51.6292 202.263 51.2649L201.475 47.8904C203.697 48.5829 205.698 48.753 207.636 48.1771C209.825 47.4852 210.957 46.1762 212.74 43.1204C213.312 42.141 214.409 40.2605 214.901 39.4182C215.369 38.6151 215.676 37.954 215.918 37.3598L218.876 39.0859ZM209.704 33.9697C209.401 34.3974 209.111 34.8055 208.756 35.4127C208.254 36.2746 205.533 40.9366 204.893 42.0335C204.607 42.5232 204.2 43.31 203.977 43.7834L201.117 42.1145C201.362 41.7848 201.866 41.0551 202.221 40.4479C202.872 39.3314 205.57 34.7086 206.073 33.8467C206.279 33.4941 206.659 32.7971 206.863 32.3123L209.704 33.9697Z" fill="#FAF7D5"/>
</svg>
