<svg width="183" height="108" viewBox="0 0 183 108" fill="none" xmlns="http://www.w3.org/2000/svg">
<path d="M24.2377 69.8909L22.8976 68.3135L21.6934 54.1826L15.4081 59.522L13.5466 57.3307L23.171 49.1548L24.511 50.7322L25.7091 64.8683L32.0006 59.5237L33.8621 61.7149L24.2377 69.8909Z" fill="#FAF7D5"/>
<path d="M29.2621 48.2589L47.896 38.3773L49.1285 40.7015L30.4946 50.5832L29.2621 48.2589ZM38.9242 56.4584L52.6892 49.1587L53.9112 51.4629L40.1461 58.7626L38.9242 56.4584ZM41.27 48.925L46.4194 46.1943L47.6094 48.4383L42.46 51.1691L41.27 48.925ZM29.9054 42.5012L32.3899 41.1836L42.0484 59.3968L39.5638 60.7143L29.9054 42.5012ZM34.8917 39.3178L37.3161 38.0321L44.3183 51.2362L41.8938 52.5218L34.8917 39.3178ZM40.1073 36.8087L42.5317 35.523L49.4063 48.4866L46.9819 49.7723L40.1073 36.8087Z" fill="#FAF7D5"/>
<path d="M59.5572 37.0872L72.8768 32.9971L73.6836 35.4836L60.3901 39.5923L59.5572 37.0872ZM66.9653 29.5478L68.769 27.9585C70.1117 28.8377 71.7716 30.1007 72.5738 31.0473L70.6583 32.7933C69.927 31.8578 68.2969 30.4979 66.9653 29.5478ZM57.0962 29.9336L59.7884 30.3571C58.7729 34.597 56.7359 39.1916 54.37 42.2316C53.9931 41.6278 52.9932 40.3234 52.4149 39.7533C54.4829 37.269 56.2742 33.5432 57.0962 29.9336ZM55.8435 36.7425L58.1385 33.5534L58.1683 33.5944L61.0188 50.6394L58.2451 51.1033L55.8435 36.7425ZM62.5357 29.1849L65.2647 28.7285C67.0223 38.2762 69.5617 45.4857 72.3319 45.4133C72.8539 45.372 72.9501 44.1602 72.6952 41.6734C73.3032 42.1466 74.6309 42.6604 75.1641 42.8242C75.3083 47.261 74.2724 48.4919 73.0085 48.6343C67.6248 49.0288 64.9771 41.3086 62.5357 29.1849Z" fill="#FAF7D5"/>
<path d="M91.0872 32.4406C90.4157 34.677 89.5571 37.2283 88.3589 39.7495C86.3058 44.0651 83.9438 46.5418 81.5015 46.1594C78.9919 45.7664 77.3621 42.6877 77.955 38.901C78.7619 33.7475 83.9603 30.0162 89.7636 30.9249C95.298 31.7915 98.2123 36.1962 97.444 41.1032C96.7072 45.8086 93.294 48.6945 87.5108 48.6843L86.2219 45.7737C87.1133 45.7985 87.7582 45.7847 88.3842 45.745C91.3386 45.4959 93.8985 43.8078 94.4143 40.514C94.9651 36.9962 93.1622 34.1429 89.2859 33.5359C84.5357 32.7921 81.3296 36.2615 80.8875 39.0847C80.5332 41.3477 81.2575 42.586 82.109 42.7193C83.0725 42.8702 84.1484 41.5695 85.5631 38.692C86.5427 36.6875 87.4391 34.1879 88.0316 31.8703L91.0872 32.4406Z" fill="#FAF7D5"/>
<path d="M114.819 40.8287L123.017 42.9146L122.396 45.3543L114.198 43.2684L114.819 40.8287ZM104.204 32.6986L114.094 35.215L113.546 37.369L103.655 34.8525L104.204 32.6986ZM101.758 41.3904L111.846 43.9572L111.282 46.1771L101.193 43.6103L101.758 41.3904ZM102.671 37.5272L113.023 40.1611L112.469 42.3371L102.117 39.7032L102.671 37.5272ZM118.111 42.7896L120.661 43.4383L117.557 55.6368L115.007 54.9881L118.111 42.7896ZM108.383 31.6323L110.954 32.2866L110.2 35.2538L107.628 34.5995L108.383 31.6323ZM106.107 40.5779L108.678 41.2322L105.754 52.7273L103.182 52.073L106.107 40.5779ZM115.041 34.988L117.9 36.6281C117.822 36.8423 117.64 36.913 117.228 36.8783L115.584 43.3402C114.751 46.6151 113.097 51.3662 109.32 53.7048C109.135 53.0494 108.397 51.9022 107.888 51.4215C111.125 49.3668 112.323 45.6699 113.09 42.6587L115.041 34.988ZM122.614 35.3L124.238 37.7491C121.739 38.1897 118.559 38.1765 115.865 38.0057C115.878 37.4007 115.739 36.3825 115.56 35.7987C118.046 35.8696 120.841 35.7382 122.614 35.3ZM107.435 45.292C108.01 45.8829 109.701 48.0682 110.116 48.642L108.119 50.1464C107.617 49.0827 106.366 47.0092 105.737 46.077L107.435 45.292ZM104.671 35.4618L106.816 35.4928C107.01 36.3847 107.044 37.5399 106.969 38.2932L104.67 38.3166C104.81 37.5801 104.81 36.3865 104.671 35.4618ZM110.278 36.3268L112.496 37.3591C111.821 38.2639 111.207 39.114 110.704 39.7114L108.727 38.7406C109.225 38.0716 109.884 37.0457 110.278 36.3268ZM105.34 43.6826L107.035 44.8392C105.343 46.9829 102.876 49.0464 100.754 50.0277C100.482 49.35 99.9361 48.2751 99.4929 47.7177C101.514 47.0385 103.881 45.3707 105.34 43.6826Z" fill="#FAF7D5"/>
<path d="M136.082 42.1929L147.14 45.662L146.434 47.9126L135.376 44.4434L136.082 42.1929ZM134.043 46.1168L146.485 50.0205L145.766 52.3143L133.323 48.4106L134.043 46.1168ZM132.789 50.2636L145.037 54.1061L144.324 56.3783L132.076 52.5357L132.789 50.2636ZM140.985 41.1877L143.538 41.9888L141.047 49.9305L138.493 49.1294L140.985 41.1877ZM141.024 50.6841L143.556 51.4784L140.745 60.4372C140.352 61.6923 139.903 62.2884 138.944 62.3915C137.956 62.5095 136.774 62.1861 135.151 61.677C135.288 60.9357 135.225 59.7748 135.089 58.9953C136.136 59.3713 137.326 59.7447 137.657 59.8249C138.004 59.9335 138.132 59.9025 138.227 59.5996L141.024 50.6841ZM132.487 54.2571L134.938 53.7187C135.622 55.0981 136.321 56.8861 136.465 58.0958L133.828 58.6949C133.736 57.5489 133.136 55.673 132.487 54.2571ZM129.701 39.1213L135.284 40.8729L130.64 55.6743L125.057 53.9227L125.784 51.6073L128.943 52.5985L132.134 42.4279L128.974 41.4367L129.701 39.1213ZM127.903 45.3077L132.101 46.6247L131.388 48.8969L127.19 47.5798L127.903 45.3077ZM128.489 38.7411L130.891 39.4947L125.643 56.2221L123.241 55.4685L128.489 38.7411Z" fill="#FAF7D5"/>
<path d="M155.784 53.677L169.588 55.5718L169.274 58.1669L155.485 56.2999L155.784 53.677ZM165.677 49.9551L167.982 49.2724C168.83 50.635 169.804 52.4792 170.134 53.6755L167.661 54.4533C167.392 53.297 166.485 51.3773 165.677 49.9551ZM156.562 46.152L158.826 47.6691C156.12 51.0879 152.339 54.3987 148.914 56.1609C148.826 55.4545 148.468 53.8504 148.183 53.0899C151.104 51.7065 154.297 49.0805 156.562 46.152ZM152.56 51.8015L155.984 49.8742L155.994 49.924L151.407 66.5859L148.696 65.8394L152.56 51.8015ZM161.811 47.7618L164.479 48.4962C162.056 57.897 161.325 65.5056 163.869 66.6058C164.36 66.7879 164.957 65.7292 165.772 63.366C166.125 64.0511 167.113 65.0759 167.528 65.4489C165.791 69.5344 164.334 70.2151 163.127 69.8124C158.077 67.9047 158.924 59.7871 161.811 47.7618Z" fill="#FAF7D5"/>
</svg>
