<svg width="278" height="87" viewBox="0 0 278 87" fill="none" xmlns="http://www.w3.org/2000/svg">
<path d="M8.25639 62H1.22514L14.027 25.6364H22.1591L34.9787 62H27.9474L18.2351 33.0938H17.951L8.25639 62ZM8.48722 47.7422H27.6634V53.0334H8.48722V47.7422ZM39.7683 62V25.6364H53.4047C56.1982 25.6364 58.542 26.1572 60.4359 27.1989C62.3417 28.2405 63.7799 29.6728 64.7505 31.4957C65.733 33.3068 66.2243 35.3665 66.2243 37.6747C66.2243 40.0066 65.733 42.0781 64.7505 43.8892C63.7681 45.7003 62.318 47.1267 60.4004 48.1683C58.4828 49.1982 56.1213 49.7131 53.3159 49.7131H44.2782V44.2976H52.4281C54.0616 44.2976 55.3992 44.0135 56.4409 43.4453C57.4825 42.8771 58.252 42.0959 58.7491 41.1016C59.2581 40.1072 59.5126 38.965 59.5126 37.6747C59.5126 36.3845 59.2581 35.2481 58.7491 34.2656C58.252 33.2831 57.4766 32.5196 56.4231 31.9751C55.3815 31.4188 54.0379 31.1406 52.3926 31.1406H46.3556V62H39.7683ZM71.946 62V25.6364H85.5824C88.3759 25.6364 90.7197 26.1572 92.6136 27.1989C94.5194 28.2405 95.9576 29.6728 96.9283 31.4957C97.9107 33.3068 98.402 35.3665 98.402 37.6747C98.402 40.0066 97.9107 42.0781 96.9283 43.8892C95.9458 45.7003 94.4957 47.1267 92.5781 48.1683C90.6605 49.1982 88.299 49.7131 85.4936 49.7131H76.456V44.2976H84.6058C86.2393 44.2976 87.5769 44.0135 88.6186 43.4453C89.6603 42.8771 90.4297 42.0959 90.9268 41.1016C91.4358 40.1072 91.6903 38.965 91.6903 37.6747C91.6903 36.3845 91.4358 35.2481 90.9268 34.2656C90.4297 33.2831 89.6544 32.5196 88.6009 31.9751C87.5592 31.4188 86.2157 31.1406 84.5703 31.1406H78.5334V62H71.946Z" fill="#D2E6FF"/>
<g clip-path="url(#clip0_78_4388)">
<path d="M13.498 0C8.78627 0 5 3.69372 5 8.298C5 14.1137 13.498 22 13.498 22C13.498 22 22 14.1137 22 8.298C22 3.69372 18.1856 0 13.498 0ZM13.498 11.9521C11.4338 11.9521 9.78414 10.3685 9.78414 8.298C9.78414 6.22746 11.4338 4.67554 13.498 4.67554C15.5621 4.67554 17.1837 6.29476 17.1837 8.298C17.1837 10.3012 15.534 11.9521 13.498 11.9521Z" fill="#D2E6FF"/>
</g>
<defs>
<clipPath id="clip0_78_4388">
<rect width="17" height="22" fill="white" transform="translate(5)"/>
</clipPath>
</defs>
</svg>
