<svg width="38" height="38" viewBox="0 0 38 38" fill="none" xmlns="http://www.w3.org/2000/svg">
<path d="M19 3.41455C21.5482 3.41455 23.2119 3.42073 23.9912 3.43311C24.7705 3.44548 25.6673 3.4764 26.6816 3.52588C27.597 3.57536 28.3268 3.66813 28.8711 3.8042C29.4154 3.94027 29.8607 4.07015 30.207 4.19385C30.6523 4.36702 31.042 4.56494 31.376 4.7876C31.71 5.01025 32.0501 5.28239 32.3965 5.604C32.7181 5.92562 32.9902 6.2596 33.2129 6.60596C33.4355 6.95231 33.6335 7.34814 33.8066 7.79346C33.9303 8.11507 34.0602 8.54801 34.1963 9.09229C34.3324 9.63656 34.4251 10.3787 34.4746 11.3188C34.4993 12.3084 34.5241 13.1991 34.5488 13.9907C34.5736 14.7824 34.5859 16.4523 34.5859 19.0005C34.5859 21.5239 34.5736 23.1815 34.5488 23.9731C34.5241 24.7648 34.4993 25.6554 34.4746 26.645C34.4251 27.5851 34.3324 28.3273 34.1963 28.8716C34.0602 29.4159 33.9303 29.8488 33.8066 30.1704C33.6335 30.6157 33.4355 31.0116 33.2129 31.3579C32.9902 31.7043 32.7181 32.0382 32.3965 32.3599C32.0501 32.7062 31.71 32.9907 31.376 33.2134C31.042 33.436 30.6523 33.634 30.207 33.8071C29.8607 33.9308 29.4154 34.0607 28.8711 34.1968C28.3268 34.3328 27.597 34.4132 26.6816 34.438C25.6673 34.4875 24.7705 34.5184 23.9912 34.5308C23.2119 34.5431 21.5482 34.5493 19 34.5493C16.4766 34.5493 14.819 34.5431 14.0273 34.5308C13.2357 34.5184 12.3327 34.4875 11.3184 34.438C10.403 34.4132 9.67318 34.3328 9.12891 34.1968C8.58464 34.0607 8.13932 33.9308 7.79297 33.8071C7.3724 33.634 6.98893 33.436 6.64258 33.2134C6.29622 32.9907 5.96224 32.7062 5.64062 32.3599C5.29427 32.0382 5.00977 31.7043 4.78711 31.3579C4.56445 31.0116 4.36654 30.6281 4.19336 30.2075C4.06966 29.8612 3.93978 29.4159 3.80371 28.8716C3.66764 28.3273 3.58724 27.5975 3.5625 26.6821C3.51302 25.6678 3.4821 24.7648 3.46973 23.9731C3.45736 23.1815 3.45117 21.5239 3.45117 19.0005C3.45117 16.4523 3.45736 14.7824 3.46973 13.9907C3.4821 13.1991 3.51302 12.3084 3.5625 11.3188C3.58724 10.4035 3.66764 9.67367 3.80371 9.12939C3.93978 8.58512 4.06966 8.13981 4.19336 7.79346C4.36654 7.34814 4.56445 6.9585 4.78711 6.62451C5.00977 6.29053 5.2819 5.95036 5.60352 5.604C5.94987 5.28239 6.29004 5.01025 6.62402 4.7876C6.95801 4.56494 7.34766 4.36702 7.79297 4.19385C8.13932 4.07015 8.58464 3.94027 9.12891 3.8042C9.67318 3.66813 10.403 3.57536 11.3184 3.52588C12.3327 3.4764 13.2295 3.44548 14.0088 3.43311C14.7881 3.42073 16.4518 3.41455 19 3.41455ZM19 0.000488281C16.4271 0.000488281 14.7324 0.00667191 13.916 0.019043C13.0996 0.031414 12.1842 0.062336 11.1699 0.111816C10.1556 0.161297 9.28353 0.260254 8.55371 0.408691C7.82389 0.557129 7.16211 0.755047 6.56836 1.00244C5.92513 1.24984 5.33138 1.54671 4.78711 1.89307C4.24284 2.23942 3.71094 2.67236 3.19141 3.19189C2.67188 3.71143 2.23893 4.24333 1.89258 4.7876C1.54622 5.33187 1.24935 5.92562 1.00195 6.56885C0.754557 7.1626 0.556641 7.82438 0.408203 8.5542C0.259766 9.28402 0.160807 10.1561 0.111328 11.1704C0.061849 12.1847 0.0309245 13.1001 0.0185547 13.9165C0.0061849 14.7329 0 16.4276 0 19.0005C0 21.5734 0.0061849 23.2681 0.0185547 24.0845C0.0309245 24.9009 0.061849 25.8162 0.111328 26.8306C0.160807 27.8449 0.259766 28.717 0.408203 29.4468C0.556641 30.1766 0.754557 30.8384 1.00195 31.4321C1.24935 32.0754 1.54622 32.6691 1.89258 33.2134C2.23893 33.7576 2.67188 34.2896 3.19141 34.8091C3.71094 35.3286 4.24284 35.7616 4.78711 36.1079C5.33138 36.4543 5.92513 36.7511 6.56836 36.9985C7.16211 37.2212 7.82389 37.4129 8.55371 37.5737C9.28353 37.7345 10.1556 37.8397 11.1699 37.8892C12.1842 37.9386 13.0996 37.9696 13.916 37.9819C14.7324 37.9943 16.4271 38.0005 19 38.0005C21.5729 38.0005 23.2676 37.9943 24.084 37.9819C24.9004 37.9696 25.8158 37.9386 26.8301 37.8892C27.8444 37.8397 28.7165 37.7345 29.4463 37.5737C30.1761 37.4129 30.8379 37.2212 31.4316 36.9985C32.0501 36.7511 32.6315 36.4543 33.1758 36.1079C33.7201 35.7616 34.2643 35.3286 34.8086 34.8091C35.3281 34.2896 35.7611 33.7576 36.1074 33.2134C36.4538 32.6691 36.7507 32.0754 36.998 31.4321C37.2207 30.8384 37.4124 30.1766 37.5732 29.4468C37.7341 28.717 37.8268 27.8449 37.8516 26.8306C37.901 25.8162 37.932 24.9009 37.9443 24.0845C37.9567 23.2681 37.9629 21.5734 37.9629 19.0005C37.9629 16.4276 37.9567 14.7329 37.9443 13.9165C37.932 13.1001 37.901 12.1847 37.8516 11.1704C37.8268 10.1561 37.7341 9.28402 37.5732 8.5542C37.4124 7.82438 37.2207 7.1626 36.998 6.56885C36.7507 5.95036 36.4538 5.36279 36.1074 4.80615C35.7611 4.24951 35.3281 3.71143 34.8086 3.19189C34.2891 2.67236 33.7572 2.23942 33.2129 1.89307C32.6686 1.54671 32.0749 1.24984 31.4316 1.00244C30.8379 0.779785 30.1761 0.588055 29.4463 0.427246C28.7165 0.266438 27.8444 0.161297 26.8301 0.111816C25.8158 0.062336 24.9004 0.031414 24.084 0.019043C23.2676 0.00667191 21.5729 0.000488281 19 0.000488281ZM19 9.24072C17.6641 9.24072 16.4023 9.50049 15.2148 10.02C14.0273 10.5148 12.9883 11.2075 12.0977 12.0981C11.207 12.9888 10.5143 14.0278 10.0195 15.2153C9.5 16.4028 9.24023 17.6646 9.24023 19.0005C9.24023 20.3364 9.5 21.5981 10.0195 22.7856C10.5143 23.9731 11.207 25.0122 12.0977 25.9028C12.9883 26.7935 14.0273 27.4862 15.2148 27.981C16.4023 28.5005 17.6641 28.7603 19 28.7603C20.3359 28.7603 21.5977 28.5005 22.7852 27.981C23.9727 27.4862 25.0117 26.7935 25.9023 25.9028C26.793 25.0122 27.4857 23.9731 27.9805 22.7856C28.5 21.5981 28.7598 20.3364 28.7598 19.0005C28.7598 17.6646 28.5 16.4028 27.9805 15.2153C27.4857 14.0278 26.793 12.9888 25.9023 12.0981C25.0117 11.2075 23.9727 10.5148 22.7852 10.02C21.5977 9.50049 20.3359 9.24072 19 9.24072ZM19 25.3462C17.2435 25.3462 15.7467 24.7277 14.5098 23.4907C13.2728 22.2537 12.6543 20.757 12.6543 19.0005C12.6543 17.244 13.2728 15.7472 14.5098 14.5103C15.7467 13.2733 17.2435 12.6548 19 12.6548C20.7565 12.6548 22.2533 13.2733 23.4902 14.5103C24.7272 15.7472 25.3457 17.244 25.3457 19.0005C25.3457 20.757 24.7272 22.2537 23.4902 23.4907C22.2533 24.7277 20.7565 25.3462 19 25.3462ZM31.4316 8.86963C31.4316 9.48812 31.209 10.02 30.7637 10.4653C30.3184 10.9106 29.7741 11.1333 29.1309 11.1333C28.5124 11.1333 27.9805 10.9106 27.5352 10.4653C27.0898 10.02 26.8672 9.48812 26.8672 8.86963C26.8672 8.2264 27.0898 7.68213 27.5352 7.23682C27.9805 6.7915 28.5124 6.56885 29.1309 6.56885C29.7741 6.56885 30.3184 6.7915 30.7637 7.23682C31.209 7.68213 31.4316 8.2264 31.4316 8.86963Z" fill="white"/>
</svg>
