<svg width="26" height="45" viewBox="0 0 26 45" fill="none" xmlns="http://www.w3.org/2000/svg">
<path d="M12.8492 19.3742C14.2068 19.3742 15.3073 18.2737 15.3073 16.9161C15.3073 15.5585 14.2068 14.458 12.8492 14.458C11.4916 14.458 10.3911 15.5585 10.3911 16.9161C10.3911 18.2737 11.4916 19.3742 12.8492 19.3742Z" fill="#7BADEF"/>
<path d="M2 23.3352V32.1508C2 38.1397 6.85474 43 12.8492 43C17.7039 43 21.8156 39.8045 23.2011 35.4078" stroke="#7BADEF" stroke-width="3.68715" stroke-linecap="round" stroke-linejoin="round"/>
<path d="M23.6928 28.6145V19.7989C23.6928 13.81 18.838 8.94971 12.8436 8.94971C7.98889 8.94971 3.87717 12.1452 2.4917 16.5419" stroke="#7BADEF" stroke-width="3.68715" stroke-linecap="round" stroke-linejoin="round"/>
<path d="M12.8491 8.94971V2" stroke="#7BADEF" stroke-width="2.4581" stroke-linecap="round" stroke-linejoin="round"/>
</svg>
