<svg width="238" height="70" viewBox="0 0 238 70" fill="none" xmlns="http://www.w3.org/2000/svg">
<path d="M65.9655 25.8548H71.447L78.7879 43.7724H79.0777L86.4186 25.8548H91.9001V50.582H87.6019V33.5941H87.3724L80.5386 50.5096H77.327L70.4932 33.5579H70.2638V50.582H65.9655V25.8548ZM118.873 38.2184C118.873 40.8827 118.374 43.1647 117.376 45.0643C116.386 46.9558 115.034 48.4047 113.319 49.4109C111.613 50.417 109.677 50.9201 107.512 50.9201C105.346 50.9201 103.407 50.417 101.692 49.4109C99.9856 48.3967 98.6333 46.9438 97.6352 45.0522C96.6452 43.1526 96.1501 40.8746 96.1501 38.2184C96.1501 35.5541 96.6452 33.2762 97.6352 31.3846C98.6333 29.485 99.9856 28.0321 101.692 27.0259C103.407 26.0198 105.346 25.5167 107.512 25.5167C109.677 25.5167 111.613 26.0198 113.319 27.0259C115.034 28.0321 116.386 29.485 117.376 31.3846C118.374 33.2762 118.873 35.5541 118.873 38.2184ZM114.37 38.2184C114.37 36.3429 114.076 34.7612 113.488 33.4734C112.909 32.1774 112.104 31.1995 111.073 30.5394C110.043 29.8713 108.856 29.5373 107.512 29.5373C106.167 29.5373 104.98 29.8713 103.95 30.5394C102.92 31.1995 102.111 32.1774 101.523 33.4734C100.943 34.7612 100.654 36.3429 100.654 38.2184C100.654 40.0939 100.943 41.6796 101.523 42.9755C102.111 44.2634 102.92 45.2414 103.95 45.9094C104.98 46.5695 106.167 46.8995 107.512 46.8995C108.856 46.8995 110.043 46.5695 111.073 45.9094C112.104 45.2414 112.909 44.2634 113.488 42.9755C114.076 41.6796 114.37 40.0939 114.37 38.2184ZM125.088 25.8548L131.524 45.3178H131.777L138.2 25.8548H143.127L134.409 50.582H128.879L120.174 25.8548H125.088ZM150.863 25.8548V50.582H146.383V25.8548H150.863ZM155.714 50.582V25.8548H171.796V29.6097H160.193V36.3228H170.963V40.0778H160.193V46.8271H171.893V50.582H155.714Z" fill="white"/>
<g clip-path="url(#clip0_78_4347)">
<path d="M66.4162 11.8652C63.9308 11.8652 61.9336 13.8727 61.9336 16.375C61.9336 19.5356 66.4162 23.8216 66.4162 23.8216C66.4162 23.8216 70.9009 19.5356 70.9009 16.375C70.9009 13.8727 68.8888 11.8652 66.4162 11.8652ZM66.4162 18.3609C65.3274 18.3609 64.4572 17.5002 64.4572 16.375C64.4572 15.2497 65.3274 14.4063 66.4162 14.4063C67.505 14.4063 68.3603 15.2863 68.3603 16.375C68.3603 17.4637 67.4901 18.3609 66.4162 18.3609Z" fill="white"/>
</g>
<defs>
<clipPath id="clip0_78_4347">
<rect width="8.96728" height="11.9564" fill="white" transform="translate(61.9336 11.8652)"/>
</clipPath>
</defs>
</svg>
