<svg width="105" height="10" viewBox="0 0 105 10" fill="none" xmlns="http://www.w3.org/2000/svg">
<path d="M5.34195 3.30078C5.3107 2.98568 5.17658 2.74089 4.93961 2.56641C4.70263 2.39193 4.38101 2.30469 3.97476 2.30469C3.69872 2.30469 3.46565 2.34375 3.27554 2.42187C3.08544 2.4974 2.93961 2.60286 2.83804 2.73828C2.73908 2.8737 2.68961 3.02734 2.68961 3.19922C2.6844 3.34245 2.71435 3.46745 2.77945 3.57422C2.84716 3.68099 2.93961 3.77344 3.05679 3.85156C3.17398 3.92708 3.3094 3.99349 3.46304 4.05078C3.61669 4.10547 3.78075 4.15234 3.95523 4.19141L4.67398 4.36328C5.02294 4.44141 5.34325 4.54557 5.63492 4.67578C5.92659 4.80599 6.17919 4.96615 6.39273 5.15625C6.60627 5.34635 6.77164 5.57031 6.88882 5.82812C7.00862 6.08594 7.06981 6.38151 7.07242 6.71484C7.06981 7.20443 6.94481 7.62891 6.69742 7.98828C6.45263 8.34505 6.09846 8.6224 5.63492 8.82031C5.17398 9.01562 4.61799 9.11328 3.96695 9.11328C3.32112 9.11328 2.75862 9.01432 2.27945 8.81641C1.80289 8.61849 1.43049 8.32552 1.16226 7.9375C0.896637 7.54687 0.757314 7.0638 0.744293 6.48828H2.38101C2.39924 6.75651 2.47606 6.98047 2.61148 7.16016C2.7495 7.33724 2.9331 7.47135 3.16226 7.5625C3.39403 7.65104 3.65575 7.69531 3.94742 7.69531C4.23388 7.69531 4.48257 7.65365 4.69351 7.57031C4.90705 7.48698 5.07242 7.37109 5.18961 7.22266C5.30679 7.07422 5.36539 6.90365 5.36539 6.71094C5.36539 6.53125 5.312 6.38021 5.20523 6.25781C5.10106 6.13542 4.94742 6.03125 4.74429 5.94531C4.54377 5.85937 4.29768 5.78125 4.00601 5.71094L3.13492 5.49219C2.46044 5.32812 1.92789 5.07161 1.53726 4.72266C1.14664 4.3737 0.952627 3.90365 0.955231 3.3125C0.952627 2.82812 1.08153 2.40495 1.34195 2.04297C1.60497 1.68099 1.96565 1.39844 2.42398 1.19531C2.88231 0.992187 3.40315 0.890625 3.98648 0.890625C4.58023 0.890625 5.09846 0.992187 5.54117 1.19531C5.98648 1.39844 6.33284 1.68099 6.58023 2.04297C6.82763 2.40495 6.95523 2.82422 6.96304 3.30078H5.34195ZM16.2687 3.80078H14.5578C14.5265 3.57943 14.4627 3.38281 14.3664 3.21094C14.27 3.03646 14.1463 2.88802 13.9953 2.76562C13.8442 2.64323 13.6697 2.54948 13.4718 2.48437C13.2765 2.41927 13.0643 2.38672 12.8351 2.38672C12.4211 2.38672 12.0604 2.48958 11.7531 2.69531C11.4458 2.89844 11.2075 3.19531 11.0382 3.58594C10.869 3.97396 10.7843 4.44531 10.7843 5C10.7843 5.57031 10.869 6.04948 11.0382 6.4375C11.2101 6.82552 11.4497 7.11849 11.757 7.31641C12.0643 7.51432 12.4197 7.61328 12.8234 7.61328C13.05 7.61328 13.2596 7.58333 13.4523 7.52344C13.6476 7.46354 13.8208 7.3763 13.9718 7.26172C14.1229 7.14453 14.2479 7.0026 14.3468 6.83594C14.4484 6.66927 14.5187 6.47917 14.5578 6.26562L16.2687 6.27344C16.2244 6.64062 16.1138 6.99479 15.9367 7.33594C15.7622 7.67448 15.5265 7.97786 15.2296 8.24609C14.9354 8.51172 14.5838 8.72266 14.175 8.87891C13.7687 9.03255 13.3091 9.10937 12.7961 9.10937C12.0825 9.10937 11.4445 8.94792 10.882 8.625C10.3221 8.30208 9.87938 7.83464 9.55386 7.22266C9.23095 6.61068 9.06949 5.86979 9.06949 5C9.06949 4.1276 9.23355 3.38542 9.56168 2.77344C9.8898 2.16146 10.3351 1.69531 10.8976 1.375C11.4601 1.05208 12.0929 0.890625 12.7961 0.890625C13.2596 0.890625 13.6893 0.955729 14.0851 1.08594C14.4836 1.21615 14.8364 1.40625 15.1437 1.65625C15.451 1.90365 15.701 2.20703 15.8937 2.56641C16.089 2.92578 16.214 3.33724 16.2687 3.80078ZM18.4816 9V1H21.6378C22.242 1 22.7576 1.10807 23.1847 1.32422C23.6144 1.53776 23.9412 1.84115 24.1652 2.23438C24.3918 2.625 24.505 3.08464 24.505 3.61328C24.505 4.14453 24.3905 4.60156 24.1613 4.98437C23.9321 5.36458 23.6001 5.65625 23.1652 5.85937C22.7329 6.0625 22.2095 6.16406 21.5949 6.16406H19.4816V4.80469H21.3214C21.6444 4.80469 21.9126 4.76042 22.1261 4.67188C22.3397 4.58333 22.4985 4.45052 22.6027 4.27344C22.7095 4.09635 22.7628 3.8763 22.7628 3.61328C22.7628 3.34766 22.7095 3.1237 22.6027 2.94141C22.4985 2.75911 22.3384 2.62109 22.1222 2.52734C21.9087 2.43099 21.6392 2.38281 21.3136 2.38281H20.173V9H18.4816ZM22.8019 5.35938L24.7902 9H22.923L20.9777 5.35938H22.8019ZM34.0519 5C34.0519 5.8724 33.8865 6.61458 33.5558 7.22656C33.2277 7.83854 32.7798 8.30599 32.2121 8.62891C31.647 8.94922 31.0115 9.10937 30.3058 9.10937C29.5949 9.10937 28.9569 8.94792 28.3918 8.625C27.8267 8.30208 27.38 7.83464 27.0519 7.22266C26.7238 6.61068 26.5597 5.86979 26.5597 5C26.5597 4.1276 26.7238 3.38542 27.0519 2.77344C27.38 2.16146 27.8267 1.69531 28.3918 1.375C28.9569 1.05208 29.5949 0.890625 30.3058 0.890625C31.0115 0.890625 31.647 1.05208 32.2121 1.375C32.7798 1.69531 33.2277 2.16146 33.5558 2.77344C33.8865 3.38542 34.0519 4.1276 34.0519 5ZM32.3371 5C32.3371 4.4349 32.2524 3.95833 32.0832 3.57031C31.9165 3.18229 31.6808 2.88802 31.3761 2.6875C31.0714 2.48698 30.7147 2.38672 30.3058 2.38672C29.897 2.38672 29.5402 2.48698 29.2355 2.6875C28.9308 2.88802 28.6938 3.18229 28.5246 3.57031C28.3579 3.95833 28.2746 4.4349 28.2746 5C28.2746 5.5651 28.3579 6.04167 28.5246 6.42969C28.6938 6.81771 28.9308 7.11198 29.2355 7.3125C29.5402 7.51302 29.897 7.61328 30.3058 7.61328C30.7147 7.61328 31.0714 7.51302 31.3761 7.3125C31.6808 7.11198 31.9165 6.81771 32.0832 6.42969C32.2524 6.04167 32.3371 5.5651 32.3371 5ZM36.3048 9V1H37.9962V7.60547H41.4259V9H36.3048ZM43.5461 9V1H45.2375V7.60547H48.6671V9H43.5461ZM57.0128 9.11719C56.4061 9.11719 55.8813 8.98828 55.4386 8.73047C54.9985 8.47005 54.6587 8.10807 54.4191 7.64453C54.1795 7.17839 54.0597 6.63802 54.0597 6.02344C54.0597 5.40365 54.1795 4.86198 54.4191 4.39844C54.6587 3.93229 54.9985 3.57031 55.4386 3.3125C55.8813 3.05208 56.4061 2.92188 57.0128 2.92188C57.6196 2.92188 58.1431 3.05208 58.5832 3.3125C59.0259 3.57031 59.367 3.93229 59.6066 4.39844C59.8462 4.86198 59.966 5.40365 59.966 6.02344C59.966 6.63802 59.8462 7.17839 59.6066 7.64453C59.367 8.10807 59.0259 8.47005 58.5832 8.73047C58.1431 8.98828 57.6196 9.11719 57.0128 9.11719ZM57.0207 7.82812C57.2967 7.82812 57.5272 7.75 57.7121 7.59375C57.897 7.4349 58.0363 7.21875 58.13 6.94531C58.2264 6.67187 58.2746 6.36068 58.2746 6.01172C58.2746 5.66276 58.2264 5.35156 58.13 5.07812C58.0363 4.80469 57.897 4.58854 57.7121 4.42969C57.5272 4.27083 57.2967 4.19141 57.0207 4.19141C56.742 4.19141 56.5076 4.27083 56.3175 4.42969C56.13 4.58854 55.9881 4.80469 55.8918 5.07812C55.798 5.35156 55.7511 5.66276 55.7511 6.01172C55.7511 6.36068 55.798 6.67187 55.8918 6.94531C55.9881 7.21875 56.13 7.4349 56.3175 7.59375C56.5076 7.75 56.742 7.82812 57.0207 7.82812ZM62.048 9V3H63.6613V4.04687H63.7238C63.8332 3.67448 64.0168 3.39323 64.2746 3.20313C64.5324 3.01042 64.8293 2.91406 65.1652 2.91406C65.2485 2.91406 65.3384 2.91927 65.4347 2.92969C65.5311 2.9401 65.6157 2.95443 65.6886 2.97266V4.44922C65.6105 4.42578 65.5024 4.40495 65.3644 4.38672C65.2264 4.36849 65.1001 4.35938 64.9855 4.35938C64.7407 4.35938 64.522 4.41276 64.3293 4.51953C64.1392 4.6237 63.9881 4.76953 63.8761 4.95703C63.7668 5.14453 63.7121 5.36068 63.7121 5.60547V9H62.048ZM73.9621 9H71.1261V1H73.9855C74.7902 1 75.4829 1.16016 76.0636 1.48047C76.6444 1.79818 77.091 2.25521 77.4035 2.85156C77.7186 3.44792 77.8761 4.16146 77.8761 4.99219C77.8761 5.82552 77.7186 6.54167 77.4035 7.14062C77.091 7.73958 76.6418 8.19922 76.0558 8.51953C75.4725 8.83984 74.7746 9 73.9621 9ZM72.8175 7.55078H73.8918C74.3918 7.55078 74.8123 7.46224 75.1535 7.28516C75.4972 7.10547 75.755 6.82812 75.9269 6.45312C76.1014 6.07552 76.1886 5.58854 76.1886 4.99219C76.1886 4.40104 76.1014 3.91797 75.9269 3.54297C75.755 3.16797 75.4985 2.89193 75.1574 2.71484C74.8162 2.53776 74.3957 2.44922 73.8957 2.44922H72.8175V7.55078ZM80.1291 9V1H83.2853C83.8895 1 84.4051 1.10807 84.8322 1.32422C85.2619 1.53776 85.5887 1.84115 85.8127 2.23438C86.0392 2.625 86.1525 3.08464 86.1525 3.61328C86.1525 4.14453 86.0379 4.60156 85.8087 4.98437C85.5796 5.36458 85.2475 5.65625 84.8127 5.85937C84.3804 6.0625 83.8569 6.16406 83.2423 6.16406H81.1291V4.80469H82.9689C83.2918 4.80469 83.56 4.76042 83.7736 4.67188C83.9871 4.58333 84.146 4.45052 84.2502 4.27344C84.3569 4.09635 84.4103 3.8763 84.4103 3.61328C84.4103 3.34766 84.3569 3.1237 84.2502 2.94141C84.146 2.75911 83.9858 2.62109 83.7697 2.52734C83.5561 2.43099 83.2866 2.38281 82.9611 2.38281H81.8205V9H80.1291ZM84.4494 5.35938L86.4377 9H84.5705L82.6252 5.35938H84.4494ZM89.7267 9H87.9142L90.6759 1H92.8556L95.6134 9H93.8009L91.797 2.82812H91.7345L89.7267 9ZM89.6134 5.85547H93.8947V7.17578H89.6134V5.85547ZM102.505 3.58594C102.45 3.39583 102.374 3.22786 102.275 3.08203C102.176 2.93359 102.055 2.80859 101.911 2.70703C101.771 2.60286 101.609 2.52344 101.427 2.46875C101.247 2.41406 101.048 2.38672 100.829 2.38672C100.42 2.38672 100.061 2.48828 99.7511 2.69141C99.4438 2.89453 99.2043 3.1901 99.0324 3.57812C98.8605 3.96354 98.7746 4.4349 98.7746 4.99219C98.7746 5.54948 98.8592 6.02344 99.0285 6.41406C99.1977 6.80469 99.4373 7.10286 99.7472 7.30859C100.057 7.51172 100.423 7.61328 100.845 7.61328C101.228 7.61328 101.555 7.54557 101.825 7.41016C102.099 7.27214 102.307 7.07812 102.45 6.82812C102.596 6.57812 102.669 6.28255 102.669 5.94141L103.013 5.99219H100.95V4.71875H104.298V5.72656C104.298 6.42969 104.15 7.03385 103.853 7.53906C103.556 8.04167 103.147 8.42969 102.626 8.70312C102.105 8.97396 101.509 9.10937 100.837 9.10937C100.087 9.10937 99.4282 8.94401 98.8605 8.61328C98.2928 8.27995 97.8501 7.80729 97.5324 7.19531C97.2173 6.58073 97.0597 5.85156 97.0597 5.00781C97.0597 4.35937 97.1535 3.78125 97.341 3.27344C97.5311 2.76302 97.7967 2.33073 98.1378 1.97656C98.479 1.6224 98.8761 1.35286 99.3293 1.16797C99.7824 0.983073 100.273 0.890625 100.802 0.890625C101.255 0.890625 101.677 0.957031 102.068 1.08984C102.458 1.22005 102.805 1.40495 103.107 1.64453C103.411 1.88411 103.66 2.16927 103.853 2.5C104.045 2.82812 104.169 3.1901 104.224 3.58594H102.505Z" fill="#5999E8"/>
</svg>
